<?xml version="1.0" encoding="UTF-8"?>
<svg width="89px" height="89px" viewBox="0 0 89 89" version="1.1" xmlns="http://www.w3.org/2000/svg" xmlns:xlink="http://www.w3.org/1999/xlink">
    <title>DD9CD5E7-90BD-4E91-BD24-A125A166097E@0,5x</title>
    <g id="ENEL---Web-bamboo-[Web---1600]" stroke="none" stroke-width="1" fill="none" fill-rule="evenodd">
        <g id="ENEL---Web-bamboo-[Web---1600]-6" transform="translate(-862.000000, -367.000000)" fill="#FE2974">
            <path d="M906.5,367 C931.038309,367 951,386.93169 951,411.433121 C951,432.86546 935.70301,451.239701 914.627443,455.125996 L913.460351,448.821073 C931.491567,445.49546 944.57732,429.772549 944.57732,411.433121 C944.57732,390.468017 927.494825,373.413028 906.5,373.413028 C885.505175,373.413028 868.42268,390.468017 868.42268,411.433121 C868.42268,430.065716 881.578165,445.56692 899.55433,448.82657 L899.55433,405.478167 L914.757732,405.478167 L914.757732,411.891195 L905.97701,411.891195 L905.97701,456 L902.479402,455.686678 C879.401794,453.621683 862,434.596978 862,411.433121 C862,386.93169 881.961691,367 906.5,367 Z M906.834586,385.736842 L906.834586,396.443609 L900.142857,396.443609 L900.142857,385.736842 L906.834586,385.736842 Z" id="Combined-Shape"></path>
        </g>
    </g>
</svg>