<?xml version="1.0" encoding="utf-8"?>
<!-- Generator: Adobe Illustrator 24.0.3, SVG Export Plug-In . SVG Version: 6.00 Build 0)  -->
<svg version="1.1" id="Layer_1" xmlns="http://www.w3.org/2000/svg" xmlns:xlink="http://www.w3.org/1999/xlink" x="0px" y="0px"
	 viewBox="0 0 12.5 12.6" style="enable-background:new 0 0 12.5 12.6;" xml:space="preserve">
<style type="text/css">
	.st0{fill:#FFFFFF;}
</style>
<g>
	<g>
		<path class="st0" d="M9.5,2.4c-0.4,0-0.7,0.3-0.7,0.7c0,0.4,0.3,0.7,0.7,0.7c0.4,0,0.7-0.3,0.7-0.7C10.2,2.7,9.9,2.4,9.5,2.4z"/>
		<path class="st0" d="M6.3,3.3c-1.7,0-3,1.4-3,3c0,1.7,1.4,3,3,3c1.7,0,3-1.4,3-3C9.3,4.6,8,3.3,6.3,3.3z M6.3,8.2
			c-1.1,0-1.9-0.9-1.9-1.9s0.9-1.9,1.9-1.9c1.1,0,1.9,0.9,1.9,1.9S7.4,8.2,6.3,8.2z"/>
		<path class="st0" d="M8.7,12.4H3.8c-2,0-3.7-1.6-3.7-3.7V3.9c0-2,1.6-3.7,3.7-3.7h4.9c2,0,3.7,1.6,3.7,3.7v4.9
			C12.4,10.8,10.7,12.4,8.7,12.4z M3.8,1.3c-1.4,0-2.5,1.1-2.5,2.5v4.9c0,1.4,1.1,2.5,2.5,2.5h4.9c1.4,0,2.5-1.1,2.5-2.5V3.9
			c0-1.4-1.1-2.5-2.5-2.5H3.8z"/>
	</g>
</g>
</svg>
