<?xml version="1.0" encoding="utf-8"?>
<!-- Generator: Adobe Illustrator 24.0.3, SVG Export Plug-In . SVG Version: 6.00 Build 0)  -->
<svg version="1.1" id="Layer_1" xmlns="http://www.w3.org/2000/svg" xmlns:xlink="http://www.w3.org/1999/xlink" x="0px" y="0px"
	 viewBox="0 0 150 43.7" style="enable-background:new 0 0 150 43.7;" xml:space="preserve">
<style type="text/css">
	.st0{fill:#FFFFFF;}
	.st1{fill:#F0B000;}
	.st2{fill:#008FBE;}
</style>
<g>
	<g>
		<g>
			<g>
				<g>
					<path class="st0" d="M120.9,17.4l-0.6-0.3c-1.1-0.5-2.3-0.9-3.4-1.1c-1.1-0.2-2.2-0.3-3.3-0.3c-2.1-0.1-4.2,0.2-6,0.9
						s-3.5,1.6-4.8,2.9c-1.4,1.2-2.4,2.7-3.2,4.4c-0.8,1.7-1.2,3.6-1.3,5.5c-0.1,1.2,0.1,2.3,0.3,3.3c0.3,1,0.7,2,1.3,2.8
						c0.6,0.8,1.4,1.5,2.4,2c1,0.5,2.2,0.8,3.6,0.8c1.3,0.1,2.6-0.2,3.7-0.6c0.7-0.3,1.3-0.6,1.9-1c0.8,1.4,0.8,1.4,1.2,1.6
						c3.8,0,5.8-2.4,5.8-2.4c-3.5-4.3,1.6-16.5,2.2-17.7L120.9,17.4z M112,21c0.1,0,0.2,0,0.3,0c0.1,0,0.1,0,0.2,0
						c0.2,0,0.5,0,0.6,0.1c-0.8,1.7-0.8,5.9-2.5,10.2c-0.1,0.3-1,1.6-2.3,1.8c-1.6,0.3-2.9-0.7-3.2-1.2c-0.2-0.3-0.3-0.7-0.4-1.2
						c-0.1-0.5-0.1-1-0.1-1.6c0.1-1.1,0.2-2.2,0.6-3.2c0.4-1,1-1.9,1.7-2.7c0.7-0.8,1.6-1.3,2.5-1.8C110.2,21.2,111,21,112,21"/>
					<path class="st0" d="M97.7,13.4c0.6-1.3,1.6-1.8,2.1-2c0.8-0.3,3-0.3,4.4,0.2c0.2-0.7,1.3-4.6,1.6-5.6
						c-0.9-0.3-2.8-0.6-3.9-0.6c-1.6-0.1-3.1,0.1-4.3,0.5c-1.3,0.4-2.4,1-3.3,1.8s-1.7,1.8-2.4,2.9s-1.2,2.4-1.5,3.8L90,15.6h-3
						l-1.3,4.9c0,0,1.6,0,2.3,0c0.7,0,0.6,0.8,0.6,0.8l-4.8,16.7l1.1,0.2c0.4,0.1,1.6,0.1,1.9,0.1c0.1,0,0.1,0,0.1,0
						c1.7,0,4.2-1.2,4.2-1.2l4-14.3c0,0,0.4-2.3,3.5-2.3c0.3,0,0.6,0,0.6,0l1.3-4.9H97l0.1-0.5C97.2,14.5,97.4,13.9,97.7,13.4"/>
					<path class="st0" d="M76.2,33c-2.6-0.5-3.3-3.3-3.2-5c0.1-1.1,0.3-2.1,0.7-3.1s0.9-1.7,1.4-2.4c0.6-0.6,1.3-1,2.1-1.4
						c2.5-1.3,5.4-0.6,5.4-0.6l1.4-4.9c0,0-8.4-1.8-13.3,2.5c-1.3,1.2-2.3,2.7-3.1,4.3s-1.2,3.5-1.4,5.4c-0.1,1.3,0,2.5,0.2,3.7
						c0.3,1.2,0.8,2.3,1.6,3.2c0.8,0.9,1.7,1.7,2.9,2.3c1.3,0.6,2.7,1,4.2,1.1h0.1c0.2,0,0.5,0,0.7,0c0.3,0,0.7,0,1,0
						c1.3-0.1,2.3-0.2,2.9-0.3l1-0.2l1.4-5C82.3,32.6,78.4,33.4,76.2,33"/>
				</g>
				<g>
					<path class="st1" d="M42.6,38L30,25.4c-1.3-1.3-1.3-3.3,0-4.6l4.6-4.6c1.3-1.3,3.3-1.3,4.6,0l13.3,13.3L44.2,38
						C43.8,38.4,43.1,38.4,42.6,38z"/>
					<path class="st2" d="M56.8,20.8l-4.6-4.5c-1.3-1.3-3.3-1.3-4.6,0l-4.3,4.3l9.1,9.1l4.3-4.3C58,24.1,58,22.1,56.8,20.8z"/>
				</g>
			</g>
		</g>
	</g>
</g>
</svg>
