<?xml version="1.0" encoding="utf-8"?>
<!-- Generator: Adobe Illustrator 24.0.3, SVG Export Plug-In . SVG Version: 6.00 Build 0)  -->
<svg version="1.1" id="Layer_1" xmlns="http://www.w3.org/2000/svg" xmlns:xlink="http://www.w3.org/1999/xlink" x="0px" y="0px"
	 viewBox="0 0 15.5 140.5" style="enable-background:new 0 0 15.5 140.5;" xml:space="preserve">
<style type="text/css">
	.st0{fill-rule:evenodd;clip-rule:evenodd;fill:#606060;}
</style>
<g id="DESK_SIMULADOR_LIBRANZA_9_">
	<g id="_x30_8_x5F_S_x5F_LIBRANZA_x5F_0_x5F_0a_9_" transform="translate(-376.000000, -1396.000000)">
		<g id="Group-30_9_" transform="translate(-240.000000, 927.000000)">
			<g id="Group-10_9_">
				
					<g id="logos_x2F_vigilado_9_" transform="translate(672.000000, 474.500000) rotate(90.000000) translate(-672.000000, -474.500000) translate(665.000000, 418.000000)">
					
						<g id="Group_9_" transform="translate(7.208791, 56.500000) scale(-1, -1) rotate(90.000000) translate(-7.208791, -56.500000) translate(-49.291209, 50.291209)">
						<path id="Fill-1578_9_" class="st0" d="M6.4,86.1l-0.1-0.7c0.2,0,0.4-0.1,0.5-0.2C6.9,85.1,7,84.9,7,84.7c0-0.2,0-0.4-0.1-0.5
							c-0.1-0.1-0.2-0.2-0.3-0.2c-0.1,0-0.1,0-0.2,0.1c-0.1,0-0.1,0.1-0.1,0.2c0,0.1-0.1,0.3-0.1,0.5c-0.1,0.4-0.2,0.6-0.3,0.8
							C5.5,85.9,5.2,86,5,86c-0.2,0-0.3-0.1-0.5-0.1c-0.1-0.1-0.3-0.2-0.3-0.4C4.1,85.2,4,85,4,84.8c0-0.4,0.1-0.7,0.3-1
							c0.2-0.2,0.4-0.3,0.7-0.3l0,0.7c-0.2,0-0.3,0.1-0.4,0.2c-0.1,0.1-0.1,0.2-0.1,0.4c0,0.2,0,0.3,0.1,0.5
							c0.1,0.1,0.1,0.1,0.2,0.1c0.1,0,0.1,0,0.2-0.1c0.1-0.1,0.1-0.3,0.2-0.6c0.1-0.3,0.2-0.6,0.2-0.7c0.1-0.1,0.2-0.3,0.3-0.4
							c0.1-0.1,0.3-0.1,0.5-0.1c0.2,0,0.4,0.1,0.5,0.2c0.2,0.1,0.3,0.3,0.4,0.5c0.1,0.2,0.1,0.4,0.1,0.7c0,0.4-0.1,0.8-0.3,1
							C7,85.9,6.8,86.1,6.4,86.1"/>
						<path id="Fill-1580_9_" class="st0" d="M4.1,82.8v-0.7l1.8,0c0.3,0,0.5,0,0.6,0c0.1,0,0.2-0.1,0.3-0.2C6.9,81.8,7,81.7,7,81.5
							c0-0.2,0-0.3-0.1-0.4c-0.1-0.1-0.2-0.1-0.3-0.2c-0.1,0-0.3,0-0.6,0l-1.9,0v-0.7l1.8,0c0.4,0,0.7,0,0.9,0
							c0.2,0,0.3,0.1,0.4,0.2c0.1,0.1,0.2,0.2,0.3,0.4c0.1,0.2,0.1,0.4,0.1,0.6c0,0.3,0,0.6-0.1,0.7c-0.1,0.2-0.2,0.3-0.3,0.4
							c-0.1,0.1-0.2,0.2-0.4,0.2c-0.2,0-0.5,0.1-0.9,0.1L4.1,82.8z"/>
						<path id="Fill-1582_9_" class="st0" d="M7.5,79.5l-3.4,0v-1.1c0-0.4,0-0.7,0-0.8c0.1-0.2,0.2-0.4,0.3-0.5
							c0.2-0.1,0.4-0.2,0.7-0.2c0.2,0,0.4,0,0.5,0.1c0.1,0.1,0.2,0.2,0.3,0.3c0.1,0.1,0.1,0.2,0.2,0.4c0,0.2,0.1,0.4,0,0.7v0.4h1.3
							L7.5,79.5L7.5,79.5z M4.7,78.9h1v-0.4c0-0.3,0-0.5,0-0.5c0-0.1-0.1-0.2-0.2-0.2c-0.1,0-0.2-0.1-0.3-0.1c-0.1,0-0.2,0-0.3,0.1
							c-0.1,0.1-0.1,0.2-0.1,0.3c0,0.1,0,0.2,0,0.5L4.7,78.9L4.7,78.9z"/>
						<polygon id="Fill-1585_9_" class="st0" points="7.5,76.5 4.1,76.5 4.1,74 4.7,74 4.7,75.8 5.4,75.8 5.4,74.1 6,74.1 6,75.8 
							6.9,75.8 6.9,73.9 7.5,73.9 						"/>
						<path id="Fill-1586_9_" class="st0" d="M7.5,73.4l-3.4,0l0-1.4c0-0.4,0-0.6,0.1-0.8c0.1-0.2,0.2-0.3,0.3-0.4
							c0.2-0.1,0.3-0.1,0.5-0.1c0.2,0,0.5,0.1,0.6,0.2C5.9,71,6,71.2,6,71.5c0.1-0.1,0.2-0.3,0.3-0.4c0.1-0.1,0.3-0.2,0.5-0.4
							l0.7-0.4v0.8l-0.7,0.5C6.5,71.9,6.4,72,6.3,72c-0.1,0.1-0.1,0.1-0.1,0.2c0,0.1,0,0.2,0,0.3v0.1l1.4,0L7.5,73.4z M5.6,72.7
							v-0.5c0-0.3,0-0.5,0-0.6c0-0.1-0.1-0.1-0.1-0.2c-0.1,0-0.1-0.1-0.3-0.1c-0.1,0-0.2,0-0.3,0.1c-0.1,0.1-0.1,0.1-0.1,0.3
							c0,0.1,0,0.2,0,0.5l0,0.5L5.6,72.7L5.6,72.7z"/>
						<polygon id="Fill-1588_9_" class="st0" points="4.2,70.1 7.5,70.1 7.5,69.4 4.2,69.4 						"/>
						<polygon id="Fill-1589_9_" class="st0" points="7.5,68.8 4.2,68.8 4.2,68.2 6.4,66.8 4.2,66.8 4.2,66.1 7.5,66.1 7.5,66.8 
							5.3,68.2 7.5,68.2 						"/>
						<polygon id="Fill-1590_9_" class="st0" points="7.5,64.7 4.7,64.7 4.7,65.7 4.2,65.7 4.2,63 4.7,63 4.7,64 7.5,64.1 						"/>
						<polygon id="Fill-1591_9_" class="st0" points="7.5,62.7 4.2,62.7 4.2,60.2 4.7,60.2 4.7,62 5.5,62 5.5,60.3 6.1,60.3 6.1,62 
							7,62 7,60.1 7.5,60.1 						"/>
						<polygon id="Fill-1592_9_" class="st0" points="7.6,59.6 4.2,59.6 4.2,59 6.4,57.6 4.2,57.6 4.2,56.9 7.6,56.9 7.6,57.6 
							5.3,59 7.6,59 						"/>
						<path id="Fill-1593_9_" class="st0" d="M4.2,56.3l0-1.2c0-0.3,0-0.5,0.1-0.6c0.1-0.2,0.2-0.4,0.3-0.5c0.1-0.1,0.3-0.2,0.5-0.3
							c0.2-0.1,0.5-0.1,0.8-0.1c0.3,0,0.5,0,0.7,0.1c0.2,0.1,0.4,0.2,0.6,0.4c0.1,0.1,0.2,0.3,0.3,0.5c0,0.1,0.1,0.3,0.1,0.6v1.3
							L4.2,56.3z M4.8,55.6l2.2,0v-0.5c0-0.2,0-0.3,0-0.4c0-0.1-0.1-0.2-0.1-0.3c-0.1-0.1-0.2-0.1-0.3-0.2c-0.2-0.1-0.4-0.1-0.6-0.1
							c-0.3,0-0.5,0-0.6,0.1c-0.1,0-0.2,0.1-0.3,0.2c-0.1,0.1-0.1,0.2-0.1,0.3c0,0.1,0,0.3,0,0.6V55.6z"/>
						<polygon id="Fill-1595_9_" class="st0" points="7.6,53 4.2,53 4.2,50.5 4.8,50.5 4.8,52.3 5.5,52.3 5.5,50.6 6.1,50.6 
							6.1,52.3 7,52.3 7,50.4 7.6,50.4 						"/>
						<polygon id="Fill-1596_9_" class="st0" points="7.6,49.9 4.2,49.9 4.2,49.2 6.5,47.8 4.2,47.8 4.2,47.2 7.6,47.2 7.6,47.9 
							5.4,49.3 7.6,49.3 						"/>
						<path id="Fill-1597_9_" class="st0" d="M6.4,44.4l0.2-0.7c0.4,0.1,0.6,0.3,0.8,0.5c0.2,0.2,0.3,0.5,0.3,0.9
							c0,0.4-0.1,0.8-0.5,1.1c-0.3,0.3-0.7,0.4-1.2,0.4c-0.6,0-1-0.1-1.3-0.4c-0.3-0.3-0.5-0.7-0.5-1.1c0-0.4,0.1-0.7,0.4-1
							c0.1-0.1,0.3-0.3,0.6-0.3l0.2,0.7c-0.2,0-0.3,0.1-0.4,0.2c-0.1,0.1-0.1,0.3-0.1,0.5c0,0.2,0.1,0.5,0.3,0.6
							C5.2,45.9,5.5,46,5.9,46c0.4,0,0.7-0.1,0.9-0.2c0.2-0.1,0.3-0.3,0.3-0.6c0-0.2-0.1-0.3-0.2-0.5C6.8,44.6,6.6,44.5,6.4,44.4"/>
						<polygon id="Fill-1599_9_" class="st0" points="7.6,43.3 7.6,42.6 4.2,42.6 4.2,43.3 						"/>
						<path id="Fill-1600_9_" class="st0" d="M7.6,39l0,0.7L6.8,40v1.4l0.8,0.3v0.7L4.2,41v-0.7L7.6,39z M6.3,40.2L5,40.7l1.3,0.5
							V40.2z"/>
						<polygon id="Fill-1601_9_" class="st0" points="7.6,37.6 4.2,37.6 4.3,35.3 4.8,35.3 4.8,36.9 5.6,36.9 5.6,35.5 6.2,35.5 
							6.2,36.9 7.6,36.9 						"/>
						<polygon id="Fill-1602_9_" class="st0" points="7.6,34.8 7.6,34.1 4.3,34.1 4.3,34.8 						"/>
						<polygon id="Fill-1603_9_" class="st0" points="7.6,33.6 4.3,33.6 4.3,32.9 6.5,31.5 4.3,31.5 4.3,30.9 7.6,30.9 7.6,31.6 
							5.4,32.9 7.6,32.9 						"/>
						<path id="Fill-1604_9_" class="st0" d="M7.6,27.2l0,0.7l-0.8,0.3v1.4l0.8,0.3v0.7l-3.4-1.3v-0.7L7.6,27.2z M6.3,28.4L5,28.9
							l1.3,0.5V28.4z"/>
						<polygon id="Fill-1605_9_" class="st0" points="7.6,26.9 4.3,26.9 4.3,26.2 6.5,24.9 4.3,24.8 4.3,24.2 7.7,24.2 7.7,24.9 
							5.4,26.3 7.6,26.3 						"/>
						<path id="Fill-1606_9_" class="st0" d="M6.4,21.4l0.2-0.7C7,20.9,7.3,21,7.4,21.3c0.2,0.2,0.3,0.5,0.3,0.9
							c0,0.4-0.1,0.8-0.5,1.1C7,23.5,6.5,23.7,6,23.7c-0.6,0-1-0.1-1.3-0.4c-0.3-0.3-0.5-0.7-0.5-1.2c0-0.4,0.1-0.7,0.4-1
							c0.1-0.2,0.3-0.3,0.6-0.4l0.2,0.7c-0.2,0-0.3,0.1-0.4,0.2c-0.1,0.1-0.1,0.3-0.1,0.5c0,0.2,0.1,0.5,0.3,0.6
							C5.3,22.9,5.6,23,6,23c0.4,0,0.7-0.1,0.9-0.2c0.2-0.1,0.3-0.4,0.3-0.6c0-0.2-0.1-0.3-0.2-0.5C6.9,21.6,6.7,21.5,6.4,21.4"/>
						<polygon id="Fill-1608_9_" class="st0" points="7.7,20.3 7.7,19.6 4.3,19.6 4.3,20.3 						"/>
						<polygon id="Fill-1609_9_" class="st0" points="7.7,19 4.3,19 4.3,16.5 4.9,16.5 4.9,18.3 5.6,18.3 5.6,16.6 6.2,16.6 
							6.2,18.3 7.1,18.3 7.1,16.4 7.7,16.4 						"/>
						<path id="Fill-1610_9_" class="st0" d="M7.7,16l-3.4,0l0-1.4c0-0.4,0-0.6,0.1-0.8c0.1-0.2,0.2-0.3,0.3-0.4
							c0.2-0.1,0.3-0.1,0.5-0.1c0.2,0,0.5,0.1,0.6,0.2c0.2,0.2,0.3,0.4,0.3,0.7c0.1-0.1,0.2-0.3,0.3-0.4c0.1-0.1,0.3-0.2,0.5-0.4
							l0.7-0.4v0.8L7,14.2c-0.3,0.2-0.4,0.3-0.5,0.4c-0.1,0.1-0.1,0.1-0.1,0.2c0,0.1,0,0.2,0,0.3l0,0.1l1.4,0V16z M5.7,15.3v-0.5
							c0-0.3,0-0.5,0-0.6c0-0.1-0.1-0.1-0.1-0.2c-0.1,0-0.1-0.1-0.3-0.1c-0.1,0-0.2,0-0.3,0.1C5,14,4.9,14.1,4.9,14.2
							c0,0.1,0,0.2,0,0.5v0.5L5.7,15.3L5.7,15.3z"/>
						<path id="Fill-1612_9_" class="st0" d="M7.7,9.6l0,0.7l-0.8,0.3V12l0.8,0.3V13l-3.4-1.3v-0.7L7.7,9.6z M6.4,10.8l-1.3,0.5
							l1.3,0.5V10.8z"/>
						<path id="Fill-1613_9_" class="st0" d="M9.4,63.9l0-1.3c0-0.3,0-0.5,0.1-0.6c0.1-0.2,0.2-0.4,0.3-0.5c0.1-0.1,0.3-0.2,0.6-0.3
							c0.2-0.1,0.5-0.1,0.8-0.1c0.3,0,0.5,0,0.7,0.1c0.2,0.1,0.4,0.2,0.6,0.4c0.1,0.1,0.2,0.3,0.3,0.5c0,0.2,0.1,0.4,0.1,0.6l0,1.3
							L9.4,63.9z M10,63.2l2.2,0v-0.5c0-0.2,0-0.3,0-0.4c0-0.1-0.1-0.2-0.1-0.3c-0.1-0.1-0.2-0.1-0.3-0.2c-0.2,0-0.4-0.1-0.6-0.1
							c-0.3,0-0.5,0-0.6,0.1c-0.1,0-0.2,0.1-0.3,0.2c-0.1,0.1-0.1,0.2-0.2,0.3c0,0.1,0,0.3,0,0.5L10,63.2L10,63.2z"/>
						<polygon id="Fill-1615_9_" class="st0" points="12.8,60.6 9.4,60.5 9.4,58.1 10,58.1 10,59.9 10.7,59.9 10.7,58.2 11.3,58.2 
							11.3,59.9 12.2,59.9 12.2,58 12.8,58 						"/>
						<g id="Group-1620_9_" transform="translate(68.296703, 6.082132)">
							<path id="Fill-1616_9_" class="st0" d="M-56.7,48l0.2-0.7c0.4,0.1,0.6,0.3,0.8,0.5c0.2,0.2,0.3,0.5,0.3,0.9
								c0,0.4-0.1,0.8-0.5,1.1c-0.3,0.3-0.7,0.4-1.3,0.4c-0.6,0-1-0.1-1.3-0.4c-0.3-0.3-0.5-0.7-0.5-1.1c0-0.4,0.1-0.7,0.4-1
								c0.1-0.1,0.3-0.3,0.6-0.3l0.2,0.7c-0.2,0-0.3,0.1-0.4,0.2c-0.1,0.1-0.1,0.3-0.1,0.5c0,0.3,0.1,0.5,0.3,0.6
								c0.2,0.2,0.5,0.2,0.9,0.2c0.4,0,0.7-0.1,0.9-0.2c0.2-0.1,0.3-0.3,0.3-0.6c0-0.2,0-0.3-0.2-0.5C-56.3,48.2-56.5,48.1-56.7,48"
								/>
							<path id="Fill-1618_9_" class="st0" d="M-57.2,47c-0.3,0-0.6,0-0.9-0.1c-0.2-0.1-0.3-0.2-0.5-0.3c-0.1-0.1-0.2-0.3-0.3-0.4
								c-0.1-0.2-0.1-0.4-0.1-0.7c0-0.5,0.2-0.9,0.5-1.2c0.3-0.3,0.7-0.5,1.3-0.5c0.5,0,1,0.1,1.3,0.5c0.3,0.3,0.5,0.7,0.5,1.2
								c0,0.5-0.1,0.9-0.5,1.2C-56.2,46.8-56.6,47-57.2,47 M-57.2,46.3c0.4,0,0.7-0.1,0.9-0.3c0.2-0.2,0.3-0.4,0.3-0.7
								c0-0.3-0.1-0.5-0.3-0.7c-0.2-0.2-0.5-0.2-0.9-0.2c-0.4,0-0.7,0.1-0.9,0.2c-0.2,0.2-0.3,0.4-0.3,0.7c0,0.3,0.1,0.5,0.3,0.7
								C-57.8,46.2-57.6,46.3-57.2,46.3"/>
						</g>
						<polygon id="Fill-1621_9_" class="st0" points="12.8,49.3 9.5,49.3 9.5,48.6 12.2,48.6 12.2,46.9 12.8,46.9 						"/>
						<path id="Fill-1622_9_" class="st0" d="M11.2,46.7c-0.3,0-0.6-0.1-0.9-0.2c-0.2-0.1-0.3-0.2-0.5-0.3c-0.1-0.1-0.2-0.3-0.3-0.4
							c-0.1-0.2-0.1-0.5-0.1-0.7c0-0.5,0.2-0.9,0.5-1.2c0.3-0.3,0.7-0.5,1.3-0.5c0.5,0,1,0.1,1.3,0.4c0.3,0.3,0.5,0.7,0.5,1.2
							c0,0.5-0.1,0.9-0.5,1.2C12.1,46.5,11.7,46.7,11.2,46.7 M11.1,46c0.4,0,0.7-0.1,0.9-0.3c0.2-0.2,0.3-0.4,0.3-0.7
							c0-0.3-0.1-0.5-0.3-0.7c-0.2-0.2-0.5-0.3-0.9-0.3c-0.4,0-0.7,0.1-0.9,0.2C10.1,44.5,10,44.7,10,45c0,0.3,0.1,0.5,0.3,0.7
							C10.5,45.9,10.8,46,11.1,46"/>
						<polygon id="Fill-1624_9_" class="st0" points="12.8,42.9 9.5,42.9 9.5,41.9 11.8,41.3 9.5,40.7 9.5,39.7 12.8,39.7 
							12.8,40.3 10.2,40.3 12.8,41 12.8,41.6 10.2,42.3 12.8,42.3 						"/>
						<path id="Fill-1625_9_" class="st0" d="M9.5,39.1v-1.4c0-0.3,0-0.5,0-0.6c0-0.1,0.1-0.2,0.1-0.3c0.1-0.1,0.2-0.2,0.3-0.3
							c0.1-0.1,0.2-0.1,0.4-0.1c0.2,0,0.3,0,0.4,0.1c0.1,0.1,0.2,0.2,0.3,0.3c0.1-0.2,0.2-0.4,0.3-0.5c0.1-0.1,0.3-0.2,0.5-0.2
							c0.1,0,0.3,0,0.4,0.1c0.1,0.1,0.3,0.2,0.3,0.3c0.1,0.1,0.1,0.3,0.2,0.5c0,0.1,0,0.4,0,0.8l0,1.2H9.5z M10,38.4l0.8,0V38
							c0-0.3,0-0.4,0-0.5c0-0.1-0.1-0.2-0.1-0.3c-0.1-0.1-0.1-0.1-0.3-0.1c-0.1,0-0.2,0-0.2,0.1c-0.1,0.1-0.1,0.1-0.1,0.3
							c0,0.1,0,0.3,0,0.6V38.4z M11.4,38.4h0.9v-0.6c0-0.2,0-0.4,0-0.5c0-0.1-0.1-0.2-0.1-0.2C12,37,12,37,11.8,37
							c-0.1,0-0.2,0-0.2,0.1c-0.1,0-0.1,0.1-0.2,0.2c0,0.1,0,0.3,0,0.6L11.4,38.4L11.4,38.4z"/>
						<polygon id="Fill-1627_9_" class="st0" points="9.5,35.8 12.9,35.8 12.9,35.1 9.5,35.1 						"/>
						<path id="Fill-1628_9_" class="st0" d="M12.9,31.5v0.7l-0.8,0.3v1.4l0.8,0.3l0,0.7l-3.4-1.3v-0.7L12.9,31.5z M11.5,32.7
							l-1.2,0.5l1.2,0.5V32.7z"/>
						<polygon id="Fill-1629_9_" class="st0" points="11,128.5 5.4,130.4 5.4,129.2 9.5,127.8 5.4,126.4 5.4,125.2 11,127.2 						
							"/>
						<polygon id="Fill-1630_9_" class="st0" points="11,124.3 11,123.1 5.4,123.1 5.4,124.3 						"/>
						<path id="Fill-1631_9_" class="st0" d="M9,119.1l-1,0l0-2.4l2.2,0c0.2,0.2,0.4,0.6,0.6,1c0.2,0.4,0.2,0.9,0.2,1.4
							c0,0.6-0.1,1.1-0.4,1.5c-0.2,0.4-0.6,0.8-1.1,1c-0.5,0.2-1,0.3-1.5,0.3c-0.6,0-1.1-0.1-1.6-0.4c-0.5-0.2-0.8-0.6-1-1.1
							c-0.2-0.4-0.3-0.8-0.3-1.4c0-0.7,0.1-1.3,0.4-1.6c0.3-0.4,0.7-0.6,1.2-0.7l0.2,1.1c-0.3,0.1-0.5,0.2-0.7,0.4
							c-0.2,0.2-0.2,0.5-0.2,0.8c0,0.5,0.1,0.9,0.5,1.2c0.3,0.3,0.8,0.4,1.4,0.4c0.7,0,1.2-0.1,1.5-0.4c0.3-0.3,0.5-0.7,0.5-1.2
							c0-0.2-0.1-0.5-0.1-0.7c-0.1-0.2-0.2-0.4-0.3-0.6l-0.7,0L9,119.1z"/>
						<polygon id="Fill-1633_9_" class="st0" points="11,115.2 11.1,114.1 5.4,114.1 5.4,115.2 						"/>
						<polygon id="Fill-1634_9_" class="st0" points="11.1,112.6 5.5,112.6 5.5,111.4 10.1,111.4 10.1,108.6 11.1,108.6 						"/>
						<path id="Fill-1635_9_" class="st0" d="M11.1,102.4l0,1.2l-1.3,0.5l0,2.3l1.3,0.5l0,1.2l-5.6-2.2l0-1.2L11.1,102.4z
							 M8.9,104.4l-2.1,0.8l2.1,0.8L8.9,104.4z"/>
						<g id="Group-1640_9_" transform="translate(27.318681, 3.598615)">
							<path id="Fill-1636_9_" class="st0" d="M-21.8,97.7l0-2.1c0-0.5,0-0.8,0.1-1.1c0.1-0.3,0.3-0.6,0.5-0.8
								c0.2-0.2,0.6-0.4,0.9-0.5c0.4-0.1,0.8-0.2,1.3-0.2c0.5,0,0.9,0.1,1.2,0.2c0.4,0.1,0.7,0.3,1,0.6c0.2,0.2,0.3,0.5,0.4,0.8
								c0.1,0.2,0.1,0.6,0.1,1l0,2.1L-21.8,97.7z M-20.9,96.6l3.7,0v-0.8c0-0.3,0-0.5,0-0.7c-0.1-0.2-0.1-0.3-0.2-0.4
								c-0.1-0.1-0.3-0.2-0.5-0.3c-0.2-0.1-0.6-0.1-1-0.1c-0.4,0-0.8,0-1,0.1c-0.2,0.1-0.4,0.2-0.5,0.3c-0.1,0.1-0.2,0.3-0.3,0.5
								c0,0.2-0.1,0.5-0.1,0.9V96.6z"/>
							<path id="Fill-1638_9_" class="st0" d="M-19,91.9c-0.6,0-1.1-0.1-1.4-0.2c-0.3-0.1-0.5-0.3-0.8-0.5c-0.2-0.2-0.4-0.5-0.5-0.7
								c-0.1-0.3-0.2-0.7-0.2-1.2c0-0.8,0.3-1.5,0.8-2c0.5-0.5,1.2-0.7,2.2-0.7c0.9,0,1.6,0.2,2.1,0.7c0.5,0.5,0.8,1.2,0.8,2
								c0,0.8-0.3,1.5-0.8,2C-17.4,91.7-18.1,91.9-19,91.9 M-19,90.8c0.6,0,1.1-0.1,1.5-0.4c0.3-0.3,0.5-0.7,0.5-1.1
								c0-0.5-0.2-0.8-0.5-1.1c-0.3-0.3-0.8-0.4-1.5-0.4c-0.6,0-1.1,0.1-1.5,0.4c-0.3,0.3-0.5,0.6-0.5,1.1c0,0.5,0.2,0.9,0.5,1.1
								C-20.2,90.6-19.7,90.8-19,90.8"/>
						</g>
						<polygon id="Fill-1641_9_" class="st0" points="3.7,131.9 3.8,88.3 2.6,88.3 2.5,131.9 						"/>
						<polygon id="Fill-1642_9_" class="st0" points="13.9,131.9 14,88.3 12.8,88.3 12.7,131.9 						"/>
					</g>
				</g>
			</g>
		</g>
	</g>
</g>
</svg>
