<svg width="736" height="449" viewBox="0 0 736 449" fill="none" xmlns="http://www.w3.org/2000/svg">
<g opacity="0.2">
<path fill-rule="evenodd" clip-rule="evenodd" d="M800.268 267.527L734.046 202.05V324.333L800.268 324.403V267.527Z" fill="#FFB800"/>
<path fill-rule="evenodd" clip-rule="evenodd" d="M800.268 391.073L734.046 324.401V448.999H800.268V391.073Z" fill="#00D4D8"/>
<path fill-rule="evenodd" clip-rule="evenodd" d="M670.07 0L734.047 78.575V0L670.07 0Z" fill="#00D4D8"/>
<path fill-rule="evenodd" clip-rule="evenodd" d="M555.586 0L620.685 78.575V0L555.586 0Z" fill="white"/>
<path fill-rule="evenodd" clip-rule="evenodd" d="M570.215 193.071C570.215 206.167 575.416 218.727 584.673 227.987C593.931 237.248 606.487 242.45 619.58 242.45C632.666 242.441 645.213 237.234 654.463 227.975C663.713 218.715 668.909 206.161 668.909 193.071C668.909 179.981 663.713 167.426 654.463 158.167C645.213 148.907 632.666 143.701 619.58 143.692C606.487 143.692 593.931 148.894 584.673 158.154C575.416 167.415 570.215 179.975 570.215 193.071ZM532.015 193.071C532.024 169.846 541.254 147.577 557.675 131.158C574.095 114.739 596.362 105.516 619.58 105.516C642.794 105.516 665.057 114.74 681.472 131.16C697.887 147.58 707.109 169.85 707.109 193.071C707.109 216.292 697.887 238.562 681.472 254.982C665.057 271.401 642.794 280.626 619.58 280.626C596.362 280.626 574.095 271.402 557.675 254.984C541.254 238.565 532.024 216.295 532.015 193.071Z" fill="#FFB800"/>
<path fill-rule="evenodd" clip-rule="evenodd" d="M639.764 194.173C639.764 199.828 637.519 205.252 633.52 209.254C629.522 213.256 624.098 215.509 618.439 215.518C612.78 215.509 607.356 213.256 603.357 209.254C599.359 205.252 597.113 199.828 597.113 194.173C597.113 188.521 599.36 183.101 603.359 179.105C607.359 175.108 612.783 172.863 618.439 172.863C624.095 172.863 629.519 175.108 633.518 179.105C637.518 183.101 639.764 188.521 639.764 194.173Z" fill="#00D4D8"/>
<path fill-rule="evenodd" clip-rule="evenodd" d="M531.88 280.761H707.312V105.349L531.88 105.349V280.761ZM506.201 306.444H734.047V78.5762L506.201 78.5762L506.201 306.444Z" fill="#E73642"/>
<path fill-rule="evenodd" clip-rule="evenodd" d="M723.945 334.523C723.945 338.984 722.114 343.262 718.855 346.417C715.596 349.571 711.175 351.343 706.566 351.343C704.281 351.348 702.017 350.916 699.904 350.073C697.792 349.23 695.871 347.991 694.254 346.429C692.636 344.867 691.353 343.011 690.477 340.968C689.602 338.925 689.151 336.735 689.151 334.523C689.151 330.053 690.986 325.766 694.252 322.605C697.518 319.444 701.947 317.668 706.566 317.668C711.178 317.678 715.599 319.457 718.857 322.617C722.115 325.777 723.945 330.059 723.945 334.523Z" fill="white"/>
<path fill-rule="evenodd" clip-rule="evenodd" d="M706.548 361.318C702.216 361.318 698.061 362.987 694.998 365.958C691.935 368.929 690.214 372.958 690.214 377.159C690.214 381.361 691.935 385.39 694.998 388.361C698.061 391.331 702.216 393 706.548 393C710.881 393 715.035 391.331 718.098 388.361C721.162 385.39 722.883 381.361 722.883 377.159C722.873 372.961 721.149 368.937 718.088 365.968C715.027 362.999 710.878 361.327 706.548 361.318ZM706.548 395.119C701.64 395.11 696.935 393.215 693.464 389.849C689.992 386.483 688.038 381.92 688.029 377.159C688.038 372.399 689.992 367.836 693.464 364.47C696.935 361.103 701.64 359.208 706.548 359.199C711.457 359.208 716.162 361.103 719.633 364.47C723.104 367.836 725.058 372.399 725.068 377.159C725.058 381.92 723.104 386.483 719.633 389.849C716.162 393.215 711.457 395.11 706.548 395.119Z" fill="white"/>
<path fill-rule="evenodd" clip-rule="evenodd" d="M723.945 419.254C723.945 423.863 722.115 428.283 718.857 431.545C715.599 434.806 711.178 436.644 706.566 436.653C701.947 436.653 697.518 434.82 694.252 431.557C690.986 428.294 689.151 423.869 689.151 419.254C689.151 414.64 690.986 410.215 694.252 406.952C697.518 403.689 701.947 401.856 706.566 401.856C711.178 401.865 715.599 403.702 718.857 406.964C722.115 410.226 723.945 414.646 723.945 419.254Z" fill="white"/>
<path fill-rule="evenodd" clip-rule="evenodd" d="M663.336 318.665C659.135 318.665 655.107 320.334 652.136 323.305C649.166 326.276 647.497 330.305 647.497 334.506C647.506 338.705 649.178 342.729 652.146 345.698C655.115 348.666 659.138 350.338 663.336 350.347C667.537 350.347 671.566 348.678 674.536 345.708C677.507 342.737 679.176 338.708 679.176 334.506C679.176 330.305 677.507 326.276 674.536 323.305C671.566 320.334 667.537 318.665 663.336 318.665ZM663.336 352.466C658.576 352.457 654.014 350.562 650.648 347.196C647.282 343.83 645.387 339.267 645.378 334.506C645.387 329.746 647.282 325.183 650.648 321.817C654.014 318.451 658.576 316.556 663.336 316.546C668.096 316.556 672.659 318.451 676.025 321.817C679.39 325.183 681.285 329.746 681.295 334.506C681.285 339.267 679.39 343.83 676.025 347.196C672.659 350.562 668.096 352.457 663.336 352.466Z" fill="white"/>
<path fill-rule="evenodd" clip-rule="evenodd" d="M680.171 377.146C680.171 381.616 678.395 385.903 675.235 389.064C672.074 392.225 667.787 394 663.318 394C658.854 393.991 654.576 392.211 651.423 389.052C648.27 385.892 646.499 381.61 646.499 377.146C646.499 374.937 646.934 372.75 647.779 370.709C648.624 368.668 649.863 366.814 651.425 365.252C652.987 363.69 654.841 362.451 656.881 361.606C658.922 360.761 661.109 360.325 663.318 360.325C665.529 360.321 667.72 360.753 669.765 361.596C671.809 362.439 673.667 363.677 675.233 365.24C676.798 366.802 678.04 368.658 678.887 370.701C679.735 372.744 680.171 374.934 680.171 377.146Z" fill="white"/>
<path fill-rule="evenodd" clip-rule="evenodd" d="M663.336 402.852C659.138 402.861 655.115 404.533 652.146 407.502C649.178 410.471 647.506 414.495 647.497 418.693C647.497 422.894 649.166 426.924 652.136 429.894C655.107 432.865 659.135 434.534 663.336 434.534C667.537 434.534 671.566 432.865 674.536 429.894C677.507 426.924 679.176 422.894 679.176 418.693C679.176 414.492 677.507 410.463 674.536 407.492C671.566 404.521 667.537 402.852 663.336 402.852ZM663.336 436.653C658.576 436.644 654.014 434.749 650.648 431.383C647.282 428.017 645.387 423.454 645.378 418.693C645.387 413.933 647.282 409.37 650.648 406.004C654.014 402.637 658.576 400.742 663.336 400.733C668.096 400.742 672.659 402.637 676.025 406.004C679.39 409.37 681.285 413.933 681.295 418.693C681.285 423.454 679.39 428.017 676.025 431.383C672.659 434.749 668.096 436.644 663.336 436.653Z" fill="white"/>
<path fill-rule="evenodd" clip-rule="evenodd" d="M636.398 334.523C636.398 338.984 634.626 343.262 631.472 346.417C628.318 349.571 624.04 351.343 619.58 351.343C617.368 351.348 615.177 350.916 613.133 350.073C611.088 349.23 609.23 347.991 607.665 346.429C606.099 344.867 604.857 343.011 604.01 340.968C603.163 338.925 602.727 336.735 602.727 334.523C602.727 330.053 604.502 325.766 607.663 322.605C610.823 319.444 615.11 317.668 619.58 317.668C624.044 317.678 628.321 319.457 631.474 322.617C634.628 325.777 636.398 330.059 636.398 334.523Z" fill="white"/>
<path fill-rule="evenodd" clip-rule="evenodd" d="M619.562 361.318C615.358 361.318 611.325 362.986 608.349 365.956C605.373 368.926 603.697 372.955 603.688 377.159C603.697 381.364 605.373 385.393 608.349 388.363C611.325 391.332 615.358 393 619.562 393C623.763 393 627.792 391.331 630.762 388.361C633.733 385.39 635.401 381.361 635.401 377.159C635.392 372.961 633.72 368.937 630.752 365.968C627.783 362.999 623.76 361.327 619.562 361.318ZM619.562 395.119C614.799 395.119 610.231 393.227 606.863 389.859C603.496 386.491 601.604 381.923 601.604 377.159C601.604 372.396 603.496 367.828 606.863 364.459C610.231 361.091 614.799 359.199 619.562 359.199C624.322 359.208 628.884 361.103 632.25 364.47C635.616 367.836 637.511 372.399 637.52 377.159C637.511 381.92 635.616 386.483 632.25 389.849C628.884 393.215 624.322 395.11 619.562 395.119Z" fill="white"/>
<path fill-rule="evenodd" clip-rule="evenodd" d="M636.398 419.254C636.398 423.863 634.628 428.283 631.474 431.545C628.321 434.806 624.044 436.644 619.58 436.653C615.11 436.653 610.823 434.82 607.663 431.557C604.502 428.294 602.727 423.869 602.727 419.254C602.727 414.64 604.502 410.215 607.663 406.952C610.823 403.689 615.11 401.856 619.58 401.856C624.044 401.865 628.321 403.702 631.474 406.964C634.628 410.226 636.398 414.646 636.398 419.254Z" fill="white"/>
<path fill-rule="evenodd" clip-rule="evenodd" d="M576.91 318.665C572.71 318.665 568.681 320.334 565.71 323.305C562.74 326.276 561.071 330.305 561.071 334.506C561.08 338.705 562.752 342.729 565.72 345.698C568.689 348.666 572.712 350.338 576.91 350.347C581.111 350.347 585.14 348.678 588.111 345.708C591.081 342.737 592.75 338.708 592.75 334.506C592.75 330.305 591.081 326.276 588.111 323.305C585.14 320.334 581.111 318.665 576.91 318.665ZM576.91 352.466C572.15 352.457 567.588 350.562 564.222 347.196C560.856 343.83 558.961 339.267 558.952 334.506C558.961 329.746 560.856 325.183 564.222 321.817C567.588 318.451 572.15 316.556 576.91 316.546C581.67 316.556 586.233 318.451 589.599 321.817C592.965 325.183 594.86 329.746 594.869 334.506C594.86 339.267 592.965 343.83 589.599 347.196C586.233 350.562 581.67 352.457 576.91 352.466Z" fill="white"/>
<path fill-rule="evenodd" clip-rule="evenodd" d="M593.748 377.146C593.748 381.616 591.972 385.903 588.811 389.064C585.651 392.225 581.364 394 576.894 394C572.431 393.991 568.153 392.211 565 389.052C561.847 385.892 560.076 381.61 560.076 377.146C560.076 374.937 560.511 372.75 561.356 370.709C562.201 368.668 563.44 366.814 565.002 365.252C566.564 363.69 568.418 362.451 570.458 361.606C572.499 360.761 574.686 360.325 576.894 360.325C579.106 360.321 581.297 360.753 583.341 361.596C585.386 362.439 587.244 363.677 588.809 365.24C590.375 366.802 591.617 368.658 592.464 370.701C593.311 372.744 593.748 374.934 593.748 377.146Z" fill="white"/>
<path fill-rule="evenodd" clip-rule="evenodd" d="M576.91 402.852C572.712 402.861 568.689 404.533 565.72 407.502C562.752 410.471 561.08 414.495 561.071 418.693C561.071 422.894 562.74 426.924 565.71 429.894C568.681 432.865 572.71 434.534 576.91 434.534C581.111 434.534 585.14 432.865 588.111 429.894C591.081 426.924 592.75 422.894 592.75 418.693C592.75 414.492 591.081 410.463 588.111 407.492C585.14 404.521 581.111 402.852 576.91 402.852ZM576.91 436.653C572.15 436.644 567.588 434.749 564.222 431.383C560.856 428.017 558.961 423.454 558.952 418.693C558.961 413.933 560.856 409.37 564.222 406.004C567.588 402.637 572.15 400.742 576.91 400.733C581.67 400.742 586.233 402.637 589.599 406.004C592.965 409.37 594.86 413.933 594.869 418.693C594.86 423.454 592.965 428.017 589.599 431.383C586.233 434.749 581.67 436.644 576.91 436.653Z" fill="white"/>
<path fill-rule="evenodd" clip-rule="evenodd" d="M551.096 334.523C551.096 336.735 550.645 338.925 549.771 340.968C548.896 343.011 547.614 344.867 545.998 346.429C544.382 347.991 542.464 349.23 540.353 350.073C538.243 350.916 535.981 351.348 533.698 351.343C531.415 351.348 529.154 350.916 527.044 350.073C524.933 349.23 523.015 347.991 521.399 346.429C519.783 344.867 518.501 343.011 517.626 340.968C516.752 338.925 516.301 336.735 516.301 334.523C516.301 330.053 518.134 325.766 521.397 322.605C524.659 319.444 529.084 317.668 533.698 317.668C538.312 317.668 542.737 319.444 546 322.605C549.263 325.766 551.096 330.053 551.096 334.523Z" fill="white"/>
<path fill-rule="evenodd" clip-rule="evenodd" d="M533.698 361.318C529.369 361.327 525.22 362.999 522.159 365.968C519.097 368.937 517.373 372.961 517.364 377.159C517.364 381.361 519.085 385.39 522.148 388.361C525.211 391.331 529.366 393 533.698 393C538.03 393 542.185 391.331 545.248 388.361C548.312 385.39 550.033 381.361 550.033 377.159C550.023 372.961 548.299 368.937 545.238 365.968C542.177 362.999 538.027 361.327 533.698 361.318ZM533.698 395.119C528.789 395.11 524.084 393.215 520.613 389.849C517.142 386.483 515.188 381.92 515.179 377.159C515.188 372.399 517.142 367.836 520.613 364.47C524.084 361.103 528.789 359.208 533.698 359.199C538.607 359.208 543.312 361.103 546.783 364.47C550.254 367.836 552.208 372.399 552.218 377.159C552.208 381.92 550.254 386.483 546.783 389.849C543.312 393.215 538.607 395.11 533.698 395.119Z" fill="white"/>
<path fill-rule="evenodd" clip-rule="evenodd" d="M551.096 419.254C551.096 423.869 549.263 428.294 546 431.557C542.737 434.82 538.312 436.653 533.698 436.653C529.084 436.653 524.659 434.82 521.397 431.557C518.134 428.294 516.301 423.869 516.301 419.254C516.301 414.64 518.134 410.215 521.397 406.952C524.659 403.689 529.084 401.856 533.698 401.856C538.312 401.856 542.737 403.689 546 406.952C549.263 410.215 551.096 414.64 551.096 419.254Z" fill="white"/>
<path fill-rule="evenodd" clip-rule="evenodd" d="M64.007 194.193C64.0024 200.676 65.2747 207.096 67.7512 213.087C70.2276 219.078 73.8597 224.522 78.44 229.107C83.0202 233.693 88.4587 237.331 94.4448 239.813C100.431 242.295 106.847 243.572 113.327 243.572C119.809 243.577 126.229 242.303 132.219 239.823C138.21 237.343 143.652 233.706 148.236 229.12C152.82 224.534 156.455 219.088 158.934 213.095C161.413 207.102 162.686 200.679 162.681 194.193C162.681 181.097 157.482 168.537 148.226 159.277C138.97 150.016 126.416 144.814 113.327 144.814C100.243 144.823 87.6985 150.03 78.4502 159.289C69.202 168.549 64.007 181.103 64.007 194.193ZM25.8149 194.193C25.8149 170.972 35.0349 148.702 51.4465 132.283C67.8581 115.863 90.1171 106.638 113.327 106.638C124.823 106.634 136.209 108.895 146.832 113.292C157.456 117.69 167.109 124.138 175.242 132.268C183.375 140.398 189.827 150.051 194.231 160.677C198.635 171.302 200.904 182.691 200.909 194.193C200.899 217.417 191.672 239.687 175.254 256.106C158.837 272.525 136.575 281.748 113.362 281.748C90.1522 281.748 67.8933 272.524 51.4816 256.104C35.07 239.684 25.8501 217.414 25.8501 194.193" fill="#E73642"/>
<path fill-rule="evenodd" clip-rule="evenodd" d="M132.442 196.438C132.442 202.095 130.195 207.519 126.195 211.519C122.196 215.519 116.772 217.766 111.116 217.766C105.46 217.766 100.036 215.519 96.0365 211.519C92.0372 207.519 89.7905 202.095 89.7905 196.438C89.7905 190.782 92.0372 185.357 96.0365 181.358C100.036 177.358 105.46 175.111 111.116 175.111C116.772 175.111 122.196 177.358 126.195 181.358C130.195 185.357 132.442 190.782 132.442 196.438Z" fill="#FFB800"/>
<path fill-rule="evenodd" clip-rule="evenodd" d="M472.526 324.403H351.308V202.05L472.526 324.403Z" fill="#E73642"/>
<path fill-rule="evenodd" clip-rule="evenodd" d="M351.308 324.403H228.128L227.845 203.173L351.308 324.403Z" fill="#E73642"/>
<path fill-rule="evenodd" clip-rule="evenodd" d="M472.526 448.999H351.308V324.401L472.526 448.999Z" fill="#00D4D8"/>
<path fill-rule="evenodd" clip-rule="evenodd" d="M351.308 448.999H227.845L227.845 324.401L351.308 448.999Z" fill="#00D4D8"/>
<path fill-rule="evenodd" clip-rule="evenodd" d="M163.869 0L227.706 79.6975L227.845 0L163.869 0Z" fill="#FFB800"/>
<path fill-rule="evenodd" clip-rule="evenodd" d="M49.3867 0L113.363 79.6975L113.363 0L49.3867 0Z" fill="#D6D6D6"/>
<path opacity="0.2" fill-rule="evenodd" clip-rule="evenodd" d="M472.953 0V169.401L261.183 169.401V0L228.182 0V79.397L0 79.397L0 307.65L228.5 307.65L228.253 203.021L472.953 203.021V449L506.2 449L506.2 0L472.953 0ZM201.181 281.925L25.1653 281.925L25.1653 106.18L201.181 106.18L201.181 281.925Z" fill="white"/>
<path fill-rule="evenodd" clip-rule="evenodd" d="M200.348 318.665C196.016 318.665 191.861 320.334 188.797 323.305C185.734 326.276 184.013 330.305 184.013 334.506C184.023 338.705 185.747 342.729 188.808 345.698C191.869 348.666 196.018 350.338 200.348 350.347C204.68 350.347 208.835 348.678 211.898 345.708C214.961 342.737 216.682 338.708 216.682 334.506C216.682 330.305 214.961 326.276 211.898 323.305C208.835 320.334 204.68 318.665 200.348 318.665ZM200.348 352.466C195.439 352.457 190.734 350.562 187.263 347.196C183.792 343.83 181.838 339.267 181.828 334.506C181.838 329.746 183.792 325.183 187.263 321.817C190.734 318.451 195.439 316.556 200.348 316.546C205.256 316.556 209.961 318.451 213.432 321.817C216.903 325.183 218.858 329.746 218.867 334.506C218.858 339.267 216.903 343.83 213.432 347.196C209.961 350.562 205.256 352.457 200.348 352.466Z" fill="white"/>
<path fill-rule="evenodd" clip-rule="evenodd" d="M217.743 377.146C217.743 381.616 215.909 385.903 212.643 389.064C209.377 392.225 204.947 394 200.329 394C195.716 393.991 191.296 392.211 188.037 389.052C184.779 385.892 182.949 381.61 182.949 377.146C182.949 374.937 183.399 372.75 184.272 370.709C185.146 368.668 186.426 366.814 188.039 365.252C189.653 363.69 191.569 362.451 193.678 361.606C195.786 360.761 198.046 360.325 200.329 360.325C202.614 360.321 204.878 360.753 206.99 361.596C209.103 362.439 211.023 363.677 212.641 365.24C214.258 366.802 215.541 368.658 216.417 370.701C217.293 372.744 217.743 374.934 217.743 377.146Z" fill="white"/>
<path fill-rule="evenodd" clip-rule="evenodd" d="M200.348 402.853C196.018 402.862 191.869 404.534 188.808 407.502C185.747 410.471 184.023 414.495 184.013 418.694C184.013 422.895 185.734 426.924 188.797 429.895C191.861 432.866 196.016 434.535 200.348 434.535C204.68 434.535 208.835 432.866 211.898 429.895C214.961 426.924 216.682 422.895 216.682 418.694C216.682 414.492 214.961 410.463 211.898 407.492C208.835 404.522 204.68 402.853 200.348 402.853ZM200.348 436.654C195.439 436.644 190.734 434.749 187.263 431.383C183.792 428.017 181.838 423.454 181.828 418.694C181.838 413.933 183.792 409.37 187.263 406.004C190.734 402.638 195.439 400.743 200.348 400.734C205.256 400.743 209.961 402.638 213.432 406.004C216.903 409.37 218.858 413.933 218.867 418.694C218.858 423.454 216.903 428.017 213.432 431.383C209.961 434.749 205.256 436.644 200.348 436.654Z" fill="white"/>
<path fill-rule="evenodd" clip-rule="evenodd" d="M172.849 334.523C172.849 336.735 172.399 338.925 171.523 340.968C170.647 343.011 169.364 344.867 167.747 346.429C166.129 347.991 164.209 349.23 162.096 350.073C159.983 350.916 157.72 351.348 155.434 351.343C153.151 351.348 150.889 350.916 148.778 350.072C146.667 349.229 144.75 347.99 143.135 346.427C141.52 344.864 140.24 343.008 139.368 340.965C138.497 338.923 138.05 336.733 138.055 334.523C138.051 332.311 138.497 330.121 139.368 328.076C140.239 326.031 141.519 324.173 143.133 322.607C144.747 321.042 146.664 319.8 148.775 318.952C150.886 318.105 153.149 317.668 155.434 317.668C160.053 317.668 164.483 319.444 167.749 322.605C171.015 325.766 172.849 330.053 172.849 334.523Z" fill="white"/>
<path fill-rule="evenodd" clip-rule="evenodd" d="M155.45 361.318C151.121 361.327 146.972 362.999 143.91 365.968C140.849 368.937 139.125 372.961 139.116 377.159C139.116 381.361 140.837 385.39 143.9 388.361C146.963 391.331 151.118 393 155.45 393C159.782 393 163.937 391.331 167 388.361C170.064 385.39 171.785 381.361 171.785 377.159C171.785 372.958 170.064 368.929 167 365.958C163.937 362.987 159.782 361.318 155.45 361.318ZM155.45 395.119C150.541 395.11 145.836 393.215 142.365 389.849C138.894 386.483 136.94 381.92 136.931 377.159C136.94 372.399 138.894 367.836 142.365 364.47C145.836 361.103 150.541 359.208 155.45 359.199C160.359 359.208 165.064 361.103 168.535 364.47C172.006 367.836 173.96 372.399 173.97 377.159C173.96 381.92 172.006 386.483 168.535 389.849C165.064 393.215 160.359 395.11 155.45 395.119Z" fill="white"/>
<path fill-rule="evenodd" clip-rule="evenodd" d="M172.849 419.254C172.849 423.869 171.015 428.294 167.749 431.557C164.483 434.82 160.053 436.653 155.434 436.653C153.149 436.653 150.886 436.203 148.775 435.328C146.664 434.453 144.747 433.171 143.133 431.555C141.519 429.939 140.239 428.021 139.368 425.91C138.497 423.799 138.051 421.538 138.055 419.254C138.051 416.971 138.497 414.71 139.368 412.599C140.239 410.488 141.519 408.57 143.133 406.954C144.747 405.338 146.664 404.056 148.775 403.181C150.886 402.306 153.149 401.856 155.434 401.856C160.053 401.856 164.483 403.689 167.749 406.952C171.015 410.215 172.849 414.64 172.849 419.254Z" fill="white"/>
<path fill-rule="evenodd" clip-rule="evenodd" d="M110.555 318.665C106.223 318.665 102.068 320.334 99.0046 323.305C95.9413 326.276 94.2203 330.305 94.2203 334.506C94.2298 338.705 95.9537 342.729 99.0149 345.698C102.076 348.666 106.225 350.338 110.555 350.347C114.887 350.347 119.042 348.678 122.105 345.708C125.168 342.737 126.889 338.708 126.889 334.506C126.889 330.305 125.168 326.276 122.105 323.305C119.042 320.334 114.887 318.665 110.555 318.665ZM110.555 352.466C105.646 352.457 100.941 350.562 97.4699 347.196C93.9988 343.83 92.0446 339.267 92.0352 334.506C92.0446 329.746 93.9988 325.183 97.4699 321.817C100.941 318.451 105.646 316.556 110.555 316.546C115.463 316.556 120.168 318.451 123.64 321.817C127.111 325.183 129.065 329.746 129.074 334.506C129.065 339.267 127.111 343.83 123.64 347.196C120.168 350.562 115.463 352.457 110.555 352.466Z" fill="white"/>
<path fill-rule="evenodd" clip-rule="evenodd" d="M127.953 377.146C127.953 381.616 126.12 385.903 122.857 389.064C119.595 392.225 115.17 394 110.556 394C105.942 394 101.517 392.225 98.2542 389.064C94.9916 385.903 93.1587 381.616 93.1587 377.146C93.1587 374.934 93.6089 372.744 94.4836 370.701C95.3583 368.658 96.6404 366.802 98.2564 365.24C99.8723 363.677 101.79 362.439 103.901 361.596C106.011 360.753 108.273 360.321 110.556 360.325C112.839 360.321 115.1 360.753 117.211 361.596C119.321 362.439 121.239 363.677 122.855 365.24C124.471 366.802 125.753 368.658 126.628 370.701C127.503 372.744 127.953 374.934 127.953 377.146Z" fill="white"/>
<path fill-rule="evenodd" clip-rule="evenodd" d="M110.555 402.853C106.225 402.862 102.076 404.534 99.0149 407.502C95.9537 410.471 94.2298 414.495 94.2203 418.694C94.2203 422.895 95.9413 426.924 99.0046 429.895C102.068 432.866 106.223 434.535 110.555 434.535C114.887 434.535 119.042 432.866 122.105 429.895C125.168 426.924 126.889 422.895 126.889 418.694C126.889 414.492 125.168 410.463 122.105 407.492C119.042 404.522 114.887 402.853 110.555 402.853ZM110.555 436.654C105.646 436.644 100.941 434.749 97.4699 431.383C93.9988 428.017 92.0446 423.454 92.0352 418.694C92.0446 413.933 93.9988 409.37 97.4699 406.004C100.941 402.638 105.646 400.743 110.555 400.734C115.463 400.743 120.168 402.638 123.64 406.004C127.111 409.37 129.065 413.933 129.074 418.694C129.065 423.454 127.111 428.017 123.64 431.383C120.168 434.749 115.463 436.644 110.555 436.654Z" fill="white"/>
<path fill-rule="evenodd" clip-rule="evenodd" d="M391.642 0C402.048 4.70449 410.877 12.304 417.071 21.8888C423.264 31.4737 426.56 42.6378 426.564 54.0447C426.568 61.8518 425.031 69.5832 422.04 76.7964C419.049 84.0097 414.663 90.5632 409.133 96.082C403.603 101.601 397.037 105.977 389.812 108.959C382.586 111.941 374.842 113.472 367.024 113.462C351.242 113.462 336.107 107.202 324.948 96.0593C313.788 84.9164 307.519 69.8032 307.519 54.0447C307.52 42.6417 310.811 31.4803 316.998 21.8958C323.184 12.3113 332.006 4.70965 342.406 0L276.43 0C266.63 16.3256 261.475 35.0109 261.519 54.0447C261.519 81.9853 272.635 108.782 292.421 128.539C312.207 148.296 339.042 159.395 367.024 159.395C395.006 159.395 421.841 148.296 441.627 128.539C461.413 108.782 472.529 81.9853 472.529 54.0447C472.545 35.01 467.378 16.3291 457.582 0L391.642 0Z" fill="#00D4D8"/>
<path fill-rule="evenodd" clip-rule="evenodd" d="M391.715 54.4396C391.719 57.7576 391.069 61.0439 389.802 64.1103C388.534 67.1766 386.674 69.9626 384.328 72.3088C381.982 74.655 379.197 76.5152 376.131 77.7828C373.065 79.0504 369.779 79.7005 366.461 79.6958C359.763 79.6958 353.34 77.0349 348.604 72.2985C343.868 67.562 341.207 61.138 341.207 54.4396C341.216 47.7441 343.88 41.3255 348.614 36.591C353.348 31.8566 359.766 29.1927 366.461 29.1833C373.159 29.1833 379.582 31.8442 384.318 36.5807C389.054 41.3172 391.715 47.7412 391.715 54.4396Z" fill="#E73642"/>
<path d="M715.552 7.66528C710.227 19.0362 707.471 31.4374 707.477 43.9907C707.464 55.608 709.812 67.107 714.379 77.7908C718.947 88.4746 725.638 98.1208 734.048 106.144V42.9039C734.043 35.9747 732.358 29.1498 729.136 23.0131C725.915 16.8763 721.254 11.6103 715.552 7.66528Z" fill="#FF0041"/>
<g opacity="0.2">
<path opacity="0.2" d="M767.101 3.94354C760.737 1.3383 753.924 -0.00122689 747.046 8.43186e-07L734.251 8.43186e-07V202.037H799.917V168.587H767.101V3.94354Z" fill="white"/>
</g>
</g>
</svg>
