<svg width="217" height="215" viewBox="0 0 217 215" fill="none" xmlns="http://www.w3.org/2000/svg">
<g opacity="0.2">
<path fill-rule="evenodd" clip-rule="evenodd" d="M30.5713 92.7516C30.5691 95.848 31.1768 98.9145 32.3596 101.776C33.5425 104.637 35.2773 107.237 37.4649 109.428C39.6525 111.618 42.2501 113.355 45.1092 114.541C47.9683 115.726 51.0328 116.336 54.1277 116.336C57.2239 116.339 60.2903 115.73 63.1514 114.546C66.0124 113.361 68.6119 111.624 70.8013 109.433C72.9907 107.243 74.727 104.642 75.9109 101.78C77.0948 98.9173 77.703 95.8494 77.7008 92.7516C77.7008 86.4966 75.2172 80.4977 70.7964 76.0747C66.3756 71.6517 60.3796 69.1669 54.1277 69.1669C47.8786 69.1713 41.887 71.6581 37.4698 76.0806C33.0526 80.5031 30.5713 86.4995 30.5713 92.7516ZM12.3298 92.7516C12.3298 81.6607 16.7335 71.024 24.5721 63.1815C32.4107 55.339 43.0422 50.9331 54.1277 50.9331C59.6188 50.9309 65.0567 52.0108 70.1307 54.1112C75.2047 56.2116 79.8156 59.2913 83.7 63.1745C87.5844 67.0577 90.6663 71.6684 92.7697 76.7432C94.8731 81.8181 95.9569 87.2577 95.9591 92.7516C95.9546 103.844 91.5472 114.481 83.7059 122.323C75.8646 130.165 65.2315 134.57 54.1444 134.57C43.059 134.57 32.4275 130.164 24.5889 122.322C16.7503 114.479 12.3466 103.843 12.3466 92.7516" fill="#E73642"/>
<path fill-rule="evenodd" clip-rule="evenodd" d="M63.2577 93.8237C63.2577 96.5254 62.1846 99.1164 60.2744 101.027C58.3642 102.937 55.7735 104.01 53.0721 104.01C50.3707 104.01 47.7799 102.937 45.8697 101.027C43.9596 99.1164 42.8865 96.5254 42.8865 93.8237C42.8865 91.1221 43.9596 88.5311 45.8697 86.6208C47.7799 84.7104 50.3707 83.6372 53.0721 83.6372C55.7735 83.6372 58.3642 84.7104 60.2744 86.6208C62.1846 88.5311 63.2577 91.1221 63.2577 93.8237Z" fill="#FFB800"/>
<path fill-rule="evenodd" clip-rule="evenodd" d="M225.691 154.943H167.794V96.5044L225.691 154.943Z" fill="#E73642"/>
<path fill-rule="evenodd" clip-rule="evenodd" d="M167.794 154.943H108.96L108.824 97.0405L167.794 154.943Z" fill="#E73642"/>
<path fill-rule="evenodd" clip-rule="evenodd" d="M225.691 214.453H167.794V154.942L225.691 214.453Z" fill="#00D4D8"/>
<path fill-rule="evenodd" clip-rule="evenodd" d="M167.794 214.453H108.824L108.824 154.942L167.794 214.453Z" fill="#00D4D8"/>
<path fill-rule="evenodd" clip-rule="evenodd" d="M78.2678 0L108.758 38.0656L108.825 0L78.2678 0Z" fill="#FFB800"/>
<path fill-rule="evenodd" clip-rule="evenodd" d="M23.5881 0L54.145 38.0656L54.145 0L23.5881 0Z" fill="#D6D6D6"/>
<path opacity="0.2" fill-rule="evenodd" clip-rule="evenodd" d="M225.894 0V80.9104L124.748 80.9104L124.748 0L108.986 0V37.922L0 37.922L0 146.942L109.137 146.942L109.019 96.9679L225.894 96.9679V214.454H241.774L241.774 0L225.894 0ZM96.0893 134.654L12.0196 134.654L12.0196 50.7142L96.0893 50.7142V134.654Z" fill="white"/>
<path fill-rule="evenodd" clip-rule="evenodd" d="M95.6914 152.203C93.6222 152.203 91.6378 153 90.1747 154.419C88.7116 155.837 87.8896 157.762 87.8896 159.769C87.8941 161.774 88.7176 163.696 90.1797 165.114C91.6418 166.532 93.6236 167.33 95.6914 167.335C97.7605 167.335 99.7449 166.538 101.208 165.119C102.671 163.7 103.493 161.775 103.493 159.769C103.493 157.762 102.671 155.837 101.208 154.419C99.7449 153 97.7605 152.203 95.6914 152.203ZM95.6914 168.347C93.3468 168.342 91.0996 167.437 89.4417 165.829C87.7839 164.222 86.8505 162.042 86.8459 159.769C86.8505 157.495 87.7839 155.315 89.4417 153.708C91.0996 152.1 93.3468 151.195 95.6914 151.19C98.0359 151.195 100.283 152.1 101.941 153.708C103.599 155.315 104.532 157.495 104.537 159.769C104.532 162.042 103.599 164.222 101.941 165.829C100.283 167.437 98.0359 168.342 95.6914 168.347Z" fill="white"/>
<path fill-rule="evenodd" clip-rule="evenodd" d="M104 180.134C104 182.269 103.124 184.317 101.564 185.827C100.004 187.336 97.8882 188.185 95.6821 188.185C93.4791 188.18 91.3678 187.33 89.8115 185.821C88.2553 184.312 87.3813 182.267 87.3813 180.134C87.3813 179.079 87.5961 178.035 88.0132 177.06C88.4304 176.085 89.0418 175.2 89.8126 174.454C90.5834 173.708 91.4984 173.116 92.5055 172.712C93.5126 172.308 94.5921 172.101 95.6821 172.101C96.7736 172.098 97.8549 172.305 98.864 172.707C99.873 173.11 100.79 173.702 101.563 174.448C102.335 175.194 102.948 176.08 103.366 177.056C103.785 178.032 104 179.078 104 180.134Z" fill="white"/>
<path fill-rule="evenodd" clip-rule="evenodd" d="M95.6914 192.412C93.6236 192.417 91.6418 193.215 90.1797 194.633C88.7176 196.051 87.8941 197.973 87.8896 199.979C87.8896 201.985 88.7116 203.91 90.1747 205.328C91.6378 206.747 93.6222 207.545 95.6914 207.545C97.7605 207.545 99.7449 206.747 101.208 205.328C102.671 203.91 103.493 201.985 103.493 199.979C103.493 197.972 102.671 196.047 101.208 194.629C99.7449 193.21 97.7605 192.412 95.6914 192.412ZM95.6914 208.557C93.3468 208.552 91.0996 207.647 89.4417 206.039C87.7839 204.432 86.8505 202.252 86.8459 199.979C86.8505 197.705 87.7839 195.525 89.4417 193.918C91.0996 192.31 93.3468 191.405 95.6914 191.4C98.0359 191.405 100.283 192.31 101.941 193.918C103.599 195.525 104.532 197.705 104.537 199.979C104.532 202.252 103.599 204.432 101.941 206.039C100.283 207.647 98.0359 208.552 95.6914 208.557Z" fill="white"/>
<path fill-rule="evenodd" clip-rule="evenodd" d="M82.5574 159.777C82.5574 160.833 82.3421 161.879 81.9238 162.855C81.5056 163.831 80.8927 164.717 80.1201 165.463C79.3475 166.21 78.4303 166.801 77.4213 167.204C76.4122 167.607 75.331 167.813 74.2395 167.811C73.1488 167.813 72.0684 167.606 71.0603 167.204C70.0522 166.801 69.1362 166.209 68.365 165.462C67.5937 164.716 66.9823 163.829 66.566 162.854C66.1496 161.878 65.9365 160.832 65.9387 159.777C65.9365 158.72 66.1495 157.674 66.5657 156.697C66.9818 155.721 67.5929 154.833 68.3639 154.085C69.1349 153.338 70.0508 152.744 71.059 152.34C72.0672 151.935 73.148 151.727 74.2395 151.727C76.4455 151.727 78.5612 152.575 80.1211 154.084C81.681 155.594 82.5574 157.642 82.5574 159.777Z" fill="white"/>
<path fill-rule="evenodd" clip-rule="evenodd" d="M74.247 172.575C72.1793 172.579 70.1975 173.378 68.7353 174.795C67.2732 176.213 66.4498 178.135 66.4453 180.141C66.4453 182.147 67.2673 184.072 68.7304 185.491C70.1935 186.91 72.1779 187.707 74.247 187.707C76.3162 187.707 78.3005 186.91 79.7636 185.491C81.2267 184.072 82.0487 182.147 82.0487 180.141C82.0487 178.134 81.2267 176.21 79.7636 174.791C78.3005 173.372 76.3162 172.575 74.247 172.575ZM74.247 188.719C71.9025 188.714 69.6552 187.809 67.9974 186.202C66.3395 184.594 65.4061 182.414 65.4016 180.141C65.4061 177.867 66.3395 175.688 67.9974 174.08C69.6552 172.472 71.9025 171.567 74.247 171.562C76.5916 171.567 78.8388 172.472 80.4967 174.08C82.1545 175.688 83.0879 177.867 83.0924 180.141C83.0879 182.414 82.1545 184.594 80.4967 186.202C78.8388 187.809 76.5916 188.714 74.247 188.719Z" fill="white"/>
<path fill-rule="evenodd" clip-rule="evenodd" d="M82.5574 200.247C82.5574 202.451 81.681 204.564 80.1211 206.123C78.5612 207.681 76.4455 208.557 74.2395 208.557C73.148 208.557 72.0672 208.342 71.059 207.924C70.0508 207.506 69.1349 206.894 68.3639 206.122C67.5929 205.35 66.9818 204.434 66.5657 203.425C66.1495 202.417 65.9365 201.337 65.9387 200.247C65.9365 199.156 66.1495 198.076 66.5657 197.068C66.9818 196.06 67.5929 195.143 68.3639 194.372C69.1349 193.6 70.0508 192.987 71.059 192.569C72.0672 192.152 73.148 191.937 74.2395 191.937C76.4455 191.937 78.5612 192.812 80.1211 194.37C81.681 195.929 82.5574 198.043 82.5574 200.247Z" fill="white"/>
<path fill-rule="evenodd" clip-rule="evenodd" d="M52.8036 152.203C50.7345 152.203 48.7501 153 47.287 154.419C45.8239 155.837 45.0019 157.762 45.0019 159.769C45.0065 161.774 45.8298 163.696 47.292 165.114C48.7541 166.532 50.7359 167.33 52.8036 167.335C54.8728 167.335 56.8572 166.538 58.3203 165.119C59.7834 163.7 60.6054 161.775 60.6054 159.769C60.6054 157.762 59.7834 155.837 58.3203 154.419C56.8572 153 54.8728 152.203 52.8036 152.203ZM52.8036 168.347C50.4591 168.342 48.2119 167.437 46.554 165.829C44.8962 164.222 43.9628 162.042 43.9583 159.769C43.9628 157.495 44.8962 155.315 46.554 153.708C48.2119 152.1 50.4591 151.195 52.8036 151.19C55.1482 151.195 57.3954 152.1 59.0533 153.708C60.7111 155.315 61.6445 157.495 61.649 159.769C61.6445 162.042 60.7111 164.222 59.0533 165.829C57.3954 167.437 55.1482 168.342 52.8036 168.347Z" fill="white"/>
<path fill-rule="evenodd" clip-rule="evenodd" d="M61.1135 180.134C61.1135 182.269 60.2381 184.317 58.6798 185.827C57.1215 187.336 55.008 188.185 52.8042 188.185C50.6004 188.185 48.4869 187.336 46.9286 185.827C45.3703 184.317 44.4949 182.269 44.4949 180.134C44.4949 179.078 44.7099 178.032 45.1277 177.056C45.5455 176.08 46.1578 175.194 46.9297 174.448C47.7015 173.702 48.6176 173.11 49.6256 172.707C50.6337 172.305 51.7138 172.098 52.8042 172.101C53.8946 172.098 54.9747 172.305 55.9827 172.707C56.9908 173.11 57.9069 173.702 58.6787 174.448C59.4505 175.194 60.0629 176.08 60.4807 177.056C60.8985 178.032 61.1135 179.078 61.1135 180.134Z" fill="white"/>
<path fill-rule="evenodd" clip-rule="evenodd" d="M52.8036 192.412C50.7359 192.417 48.7541 193.215 47.292 194.633C45.8298 196.051 45.0065 197.973 45.0019 199.979C45.0019 201.985 45.8239 203.91 47.287 205.328C48.7501 206.747 50.7345 207.545 52.8036 207.545C54.8728 207.545 56.8572 206.747 58.3203 205.328C59.7834 203.91 60.6054 201.985 60.6054 199.979C60.6054 197.972 59.7834 196.047 58.3203 194.629C56.8572 193.21 54.8728 192.412 52.8036 192.412ZM52.8036 208.557C50.4591 208.552 48.2119 207.647 46.554 206.039C44.8962 204.432 43.9628 202.252 43.9583 199.979C43.9628 197.705 44.8962 195.525 46.554 193.918C48.2119 192.31 50.4591 191.405 52.8036 191.4C55.1482 191.405 57.3954 192.31 59.0533 193.918C60.7111 195.525 61.6445 197.705 61.649 199.979C61.6445 202.252 60.7111 204.432 59.0533 206.039C57.3954 207.647 55.1482 208.552 52.8036 208.557Z" fill="white"/>
<path fill-rule="evenodd" clip-rule="evenodd" d="M187.058 0C192.028 2.24698 196.245 5.87668 199.203 10.4547C202.161 15.0326 203.736 20.3649 203.738 25.8131C203.74 29.542 203.006 33.2347 201.577 36.6799C200.148 40.1252 198.054 43.2553 195.412 45.8912C192.771 48.5272 189.635 50.6171 186.184 52.0415C182.733 53.466 179.034 54.1969 175.3 54.1925C167.762 54.1925 160.533 51.2025 155.203 45.8804C149.873 40.5582 146.879 33.3398 146.879 25.8131C146.879 20.3667 148.451 15.0358 151.406 10.458C154.361 5.8802 158.574 2.24945 163.542 0L132.03 0C127.349 7.79752 124.887 16.7221 124.908 25.8131C124.908 39.1583 130.217 51.9569 139.667 61.3933C149.118 70.8298 161.935 76.1311 175.3 76.1311C188.664 76.1311 201.482 70.8298 210.932 61.3933C220.382 51.9569 225.692 39.1583 225.692 25.8131C225.699 16.7217 223.232 7.79919 218.553 0L187.058 0Z" fill="#00D4D8"/>
<path fill-rule="evenodd" clip-rule="evenodd" d="M187.093 26.002C187.095 27.5868 186.785 29.1564 186.179 30.621C185.574 32.0855 184.686 33.4162 183.565 34.5368C182.445 35.6574 181.114 36.5459 179.65 37.1513C178.185 37.7567 176.616 38.0672 175.031 38.065C171.832 38.065 168.764 36.7941 166.502 34.5318C164.24 32.2696 162.969 29.2013 162.969 26.002C162.974 22.804 164.246 19.7384 166.507 17.4771C168.768 15.2158 171.833 13.9434 175.031 13.939C178.23 13.939 181.298 15.2099 183.56 17.4721C185.822 19.7344 187.093 22.8027 187.093 26.002Z" fill="#E73642"/>
</g>
</svg>
