<svg width="112" height="112" viewBox="0 0 112 112" fill="none" xmlns="http://www.w3.org/2000/svg">
<circle cx="56" cy="56" r="52" fill="#030038" stroke="white" stroke-width="8"/>
<path fill-rule="evenodd" clip-rule="evenodd" d="M57.0821 50.6399V67.4262H52.0021V65.8486C50.8841 67.1239 49.2254 67.8962 46.956 67.8962C42.5193 67.8962 38.8616 64.036 38.8616 59.0331C38.8616 54.0308 42.5193 50.1699 46.956 50.1699C49.2254 50.1699 50.8841 50.9422 52.0021 52.2175V50.6399H57.0821ZM52.0021 59.0331C52.0021 56.5155 50.3088 54.9372 47.9722 54.9372C45.6349 54.9372 43.9423 56.5155 43.9423 59.0331C43.9423 61.5513 45.6349 63.129 47.9722 63.129C50.3088 63.129 52.0021 61.5513 52.0021 59.0331Z" fill="white"/>
<path fill-rule="evenodd" clip-rule="evenodd" d="M31.1543 64.5275C31.1543 62.663 32.6744 61.1567 34.5546 61.1567C36.4347 61.1567 37.9548 62.663 37.9548 64.5275C37.9548 66.3913 36.4347 67.8982 34.5546 67.8982C32.6744 67.8982 31.1543 66.3913 31.1543 64.5275Z" fill="#FF003F"/>
<path fill-rule="evenodd" clip-rule="evenodd" d="M86.1995 64.5275C86.1995 62.663 87.7196 61.1567 89.5997 61.1567C91.4799 61.1567 93 62.663 93 64.5275C93 66.3913 91.4799 67.8982 89.5997 67.8982C87.7196 67.8982 86.1995 66.3913 86.1995 64.5275Z" fill="#FFC700"/>
<path fill-rule="evenodd" clip-rule="evenodd" d="M59.9595 67.4261H65.0395V44H59.9595V67.4261Z" fill="white"/>
<path fill-rule="evenodd" clip-rule="evenodd" d="M86.9963 59.3656H92.0764V44H86.9963V59.3656Z" fill="#00CED2"/>
<path fill-rule="evenodd" clip-rule="evenodd" d="M76.3258 63.3978C77.7142 63.3978 78.9001 62.8605 79.5767 62.1218L83.6412 64.4381C81.9818 66.7214 79.4755 67.8964 76.2579 67.8964C70.4667 67.8964 66.877 64.0355 66.877 59.0332C66.877 54.031 70.5346 50.1694 75.8857 50.1694C80.8299 50.1694 84.4875 53.9637 84.4875 59.0332C84.4875 59.7382 84.4203 60.4095 84.2845 61.0472H72.2619C72.9045 62.7938 74.4627 63.3978 76.3258 63.3978ZM79.4415 57.2873C78.9001 55.34 77.3752 54.635 75.851 54.635C73.9213 54.635 72.6342 55.575 72.1601 57.2873H79.4415Z" fill="white"/>
<path fill-rule="evenodd" clip-rule="evenodd" d="M29.501 64.5278C29.501 63.9232 29.609 63.3441 29.806 62.8068C29.2979 63.0162 28.7274 63.1293 28.1099 63.1293C25.7727 63.1293 24.0793 61.551 24.0793 59.0334C24.0793 56.5151 25.7727 54.9375 28.1099 54.9375C30.4465 54.9375 32.1398 56.5151 32.1398 59.0334C32.1398 59.4509 32.0889 59.8407 32.0006 60.2043C32.7498 59.7687 33.6219 59.5182 34.5539 59.5182C35.5333 59.5182 36.4462 59.7936 37.2199 60.2703V44.0005H32.1398V52.2179C31.0225 50.9419 29.3624 50.1703 27.0938 50.1703C22.657 50.1703 19 54.0312 19 59.0334C19 64.0356 22.657 67.8959 27.0938 67.8959C28.3449 67.8959 29.41 67.6602 30.3018 67.2353C29.7958 66.4549 29.501 65.5264 29.501 64.5278Z" fill="white"/>
</svg>
