<?xml version="1.0" encoding="UTF-8"?>
<svg width="66px" height="67px" viewBox="0 0 66 67" version="1.1" xmlns="http://www.w3.org/2000/svg" xmlns:xlink="http://www.w3.org/1999/xlink">
    <!-- Generator: Sketch 52.5 (67469) - http://www.bohemiancoding.com/sketch -->
    <title>Security Notification Copy 3</title>
    <desc>Created with Sketch.</desc>
    <g id="zeplin" stroke="none" stroke-width="1" fill="none" fill-rule="evenodd">
        <g id="PSE_Login" transform="translate(-831.000000, -256.000000)">
            <g id="Group-2" transform="translate(808.000000, 232.000000)">
                <g id="Security-Notification-Copy-3" transform="translate(24.000000, 24.000000)">
                    <path d="" id="Stroke-9" stroke="#064765" stroke-width="3" stroke-linecap="round" stroke-linejoin="round"></path>
                    <path d="M27.3985891,65.1355778 C4.42550265,57.0342444 4.14463845,31.6040222 4.14463845,31.6040222 C4.13500882,30.7500222 4.12698413,29.3484667 4.12698413,28.4929111 L4.12698413,19.0740222 C4.12698413,18.2184667 4.84920635,17.5184667 5.7319224,17.5184667 L9.29809524,17.5184667" id="Stroke-1" stroke="#0B9CE5" stroke-width="2" stroke-linecap="round" stroke-linejoin="round"></path>
                    <path d="M9.29841623,17.518 C21.7415026,17.518 27.3379224,10 27.3379224,10" id="Stroke-3" stroke="#0B9CE5" stroke-width="2" stroke-linecap="round" stroke-linejoin="round"></path>
                    <path d="M27.3985891,65.1355778 C50.3716755,57.0342444 50.6525397,31.6040222 50.6525397,31.6040222 C50.6621693,30.7500222 50.670194,29.3484667 50.670194,28.4929111 L50.670194,19.0740222 C50.670194,18.2184667 49.9479718,17.5184667 49.0652557,17.5184667 L45.4990829,17.5184667" id="Stroke-5" stroke="#0B9CE5" stroke-width="2" stroke-linecap="round" stroke-linejoin="round"></path>
                    <path d="M45.4987619,17.518 C33.0556755,17.518 27.4592557,10 27.4592557,10" id="Stroke-7" stroke="#0B9CE5" stroke-width="2" stroke-linecap="round" stroke-linejoin="round"></path>
                    <path d="M36.4457932,5.85482244 L39.4736999,5.8976386 C39.891551,5.90354723 40.2256798,5.5501014 40.219523,5.10869701 C40.2133662,4.66729263 39.8692439,4.30425598 39.4513928,4.29834735 L36.4234861,4.2555312 C36.0056349,4.24962257 35.6715062,4.6030684 35.6776629,5.04447278 C35.6838197,5.48587716 36.027942,5.84891381 36.4457932,5.85482244 Z" id="Shape" fill="#BE207A" fill-rule="nonzero" transform="translate(37.948593, 5.076585) scale(1, -1) rotate(-238.000000) translate(-37.948593, -5.076585) "></path>
                    <path d="M49.4532938,5.18865618 C49.653942,5.19149344 49.8534578,5.11314842 50.00327,4.95459072 L52.188697,2.6432667 C52.4898657,2.3245167 52.4825402,1.79931694 52.1723589,1.47192214 C51.8621777,1.14452733 51.3652599,1.13750066 51.0640911,1.45625066 L48.8786641,3.76757468 C48.5774954,4.08632468 48.5848209,4.61152444 48.8950022,4.93891925 C49.0524326,5.10182151 49.2542131,5.18584107 49.4532938,5.18865618 Z" id="Shape" fill="#BE207A" fill-rule="nonzero" transform="translate(50.533681, 3.205219) scale(1, -1) rotate(-238.000000) translate(-50.533681, -3.205219) "></path>
                    <path d="M59.8673035,11.9153514 C60.2851546,11.92126 60.6192834,11.5678142 60.6131266,11.1264098 L60.5685124,7.92782734 C60.5623557,7.48642296 60.2182333,7.12338631 59.8003822,7.11747768 C59.3825311,7.11156905 59.0484023,7.46501488 59.0545591,7.90641926 L59.0991733,11.1050018 C59.10533,11.5464061 59.4494524,11.9094428 59.8673035,11.9153514 Z" id="Shape" fill="#BE207A" fill-rule="nonzero" transform="translate(59.833843, 9.516415) scale(1, -1) rotate(-238.000000) translate(-59.833843, -9.516415) "></path>
                    <path d="M62.5990991,22.7861343 C62.7549619,22.9490144 62.9567425,23.0330339 63.1573907,23.0358712 C63.3580389,23.0387085 63.5575547,22.9603634 63.7073669,22.8018057 C64.0085356,22.4830557 64.00121,21.957856 63.6910288,21.6304612 L61.4402496,19.2564069 C61.1300683,18.9290121 60.6331505,18.9219854 60.3319818,19.2407355 C60.0308131,19.5594855 60.0381386,20.0846852 60.3483199,20.41208 L62.5990991,22.7861343 Z" id="Shape" fill="#BE207A" fill-rule="nonzero" transform="translate(62.019674, 21.021069) scale(1, -1) rotate(-238.000000) translate(-62.019674, -21.021069) "></path>
                    <ellipse id="Oval-7" stroke="#F5C400" stroke-width="2" transform="translate(9.285714, 57.000000) scale(-1, -1) translate(-9.285714, -57.000000) " cx="9.28571429" cy="57" rx="9.28571429" ry="9"></ellipse>
                    <g id="Page-1" transform="translate(17.539683, 24.000000)" stroke="#BE207A" stroke-linecap="round" stroke-width="2">
                        <path d="M19.5488722,20.9684211 C19.5488722,22.08 18.6105263,22.9894737 17.4636591,22.9894737 L2.86716792,22.9894737 C1.72030075,22.9894737 0.781954887,22.08 0.781954887,20.9684211 L0.781954887,10.8631579 C0.781954887,9.75157895 1.72030075,8.84210526 2.86716792,8.84210526 L17.4636591,8.84210526 C18.6105263,8.84210526 19.5488722,9.75157895 19.5488722,10.8631579 L19.5488722,20.9684211 Z" id="Stroke-1" stroke-linejoin="round"></path>
                        <path d="M11.2080201,13.8947368 C11.2080201,14.4535579 10.7419749,14.9052632 10.1654135,14.9052632 C9.58885213,14.9052632 9.12280702,14.4535579 9.12280702,13.8947368 C9.12280702,13.3369263 9.58885213,12.8842105 10.1654135,12.8842105 C10.7419749,12.8842105 11.2080201,13.3369263 11.2080201,13.8947368 Z" id="Stroke-3"></path>
                        <path d="M10.1798942,14.9052632 L10.1798942,17.9368421" id="Stroke-5"></path>
                        <path d="M15.4074074,5.81052632 L15.4074074,8.43183158" id="Stroke-7" stroke-linejoin="round"></path>
                        <path d="M4.95238095,8.69800421 L4.95238095,5.81093053" id="Stroke-9" stroke-linejoin="round"></path>
                        <path d="M4.95238095,5.81052632 C4.95238095,3.02248421 7.28573434,0.757894737 10.1654135,0.757894737 C13.0471779,0.757894737 15.3784461,3.02248421 15.3784461,5.81052632" id="Stroke-11" stroke-linejoin="round"></path>
                    </g>
                </g>
            </g>
        </g>
    </g>
</svg>