<svg height="49.507" width="269.965" xmlns="http://www.w3.org/2000/svg"><g transform="translate(-8.546 -4.251)"><g fill="#ee252a" transform="translate(8.546 4.251)"><path d="m24.722 0a24.814 24.814 0 0 0 -22.088 13.586c2.024 2.2 8.592 7.333 15.97 5.353a13.391 13.391 0 0 0 4.9-2.519c4.724-3.6 7.648-9 20.379-7.378a24.8 24.8 0 0 0 -19.161-9.042"/><path d="m31.515 39.003c-6.208 2.789-12.236 6.748-27.082-.045a24.773 24.773 0 0 0 41.208-.949c-6.253-2.069-10.212-.765-14.126.99"/><path d="m37.183 15.97c5.848-1.3 7.108-4.364 6.883-5.848a37.167 37.167 0 0 0 -4.5-.27c-8.457 0-14.306 6.613-14.441 6.748 1.26.045 7.513.4 12.056-.63"/><path d="m5.198 38.013a33.575 33.575 0 0 0 14.081 3.6 25.489 25.489 0 0 0 11.067-3.059 29.871 29.871 0 0 0 -11.562-2.429c-6.883.09-11.2.675-13.586 1.889"/><path d="m30.031 24.382a9.844 9.844 0 0 1 -4.049 1.892c11.607.81 20.289-4.769 21.369-11.112-.585-.315-3.014-2.789-17.32 9.222"/><path d="m47.98 16.195c-1.44 8.1-13.091 12.371-26.272 10.527a47 47 0 0 1 -20.874-8.327 24.615 24.615 0 0 0 .675 14.85c.315.135 6.793 4.319 29.511-.54a35.009 35.009 0 0 1 17 .72 25.466 25.466 0 0 0 -.04-17.23"/></g><g fill="#343434"><path d="m83.474 36.061a3.964 3.964 0 0 1 -1.19 1.622 6.37 6.37 0 0 1 -2.109 1.028 12.443 12.443 0 0 1 -3.137.379h-6.597v-18.874h6.381a14.926 14.926 0 0 1 3.083.324 4.93 4.93 0 0 1 2 .973 3.246 3.246 0 0 1 1.082 1.46 5.57 5.57 0 0 1 .325 1.893 5.117 5.117 0 0 1 -.27 1.785 4.085 4.085 0 0 1 -.7 1.244 3.782 3.782 0 0 1 -1.082.811 10.832 10.832 0 0 1 -1.406.541v.162a12.372 12.372 0 0 1 1.514.433 5.266 5.266 0 0 1 1.3.811 3.236 3.236 0 0 1 .865 1.352 4.918 4.918 0 0 1 .324 1.947 5.417 5.417 0 0 1 -.379 2.109m-3.519-12.545a2.23 2.23 0 0 0 -1.136-.757 4.637 4.637 0 0 0 -1.46-.27c-.487 0-.973-.054-1.352-.054h-2.812v5.895h2.758a7.722 7.722 0 0 0 1.568-.162 5.156 5.156 0 0 0 1.46-.487 2.554 2.554 0 0 0 1.028-.973 2.957 2.957 0 0 0 .379-1.676 1.8 1.8 0 0 0 -.433-1.514m.595 8.653a2.671 2.671 0 0 0 -1.082-.973 3.831 3.831 0 0 0 -1.514-.487 9.958 9.958 0 0 0 -1.785-.162h-2.92v6.327h3.083c.595 0 1.19-.054 1.839-.108a4.182 4.182 0 0 0 1.46-.433 2.122 2.122 0 0 0 .973-.973 2.836 2.836 0 0 0 .324-1.622 2.706 2.706 0 0 0 -.379-1.568"/><path d="m95.426 39.305c-.973.054-1.947.054-2.92.054a18.605 18.605 0 0 1 -2.488-.162 4.961 4.961 0 0 1 -1.947-.7 3.628 3.628 0 0 1 -1.3-1.406 4.831 4.831 0 0 1 -.433-2.325 3.919 3.919 0 0 1 .757-2.542 4.4 4.4 0 0 1 1.839-1.3 9.26 9.26 0 0 1 2.434-.487c.865-.054 1.676-.054 2.434-.054a6.9 6.9 0 0 1 1.028.054c.379 0 .811.054 1.244.054 0-.595 0-1.244-.054-1.839a2.153 2.153 0 0 0 -.487-1.136 2.086 2.086 0 0 0 -1.19-.595 16.238 16.238 0 0 0 -2.325-.162 16.807 16.807 0 0 0 -2.325.162c-.811.108-1.568.27-2.325.379v-2.108a25.443 25.443 0 0 1 4.975-.487 21.782 21.782 0 0 1 2.65.162 4.377 4.377 0 0 1 2 .649 3.266 3.266 0 0 1 1.3 1.406 5.631 5.631 0 0 1 .433 2.488v9.734c-1.244.054-2.325.108-3.3.162m.595-6.922c-.595 0-1.082-.054-1.46-.054h-.919c-.649 0-1.3.054-1.893.108a4.857 4.857 0 0 0 -1.46.379 2.113 2.113 0 0 0 -.919.757 2.512 2.512 0 0 0 -.324 1.244 2.62 2.62 0 0 0 .379 1.406 2.269 2.269 0 0 0 .973.757 5.925 5.925 0 0 0 1.406.324c.541.054 1.082.054 1.568.054a7.248 7.248 0 0 0 1.077-.054c.379 0 .865-.054 1.568-.108z"/><path d="m112.515 39.036v-9.031a7.983 7.983 0 0 0 -.054-1.136 2.425 2.425 0 0 0 -.27-1.028 1.758 1.758 0 0 0 -.7-.7 2.53 2.53 0 0 0 -1.406-.27 4.117 4.117 0 0 0 -1.136.162c-.433.108-.811.216-1.244.324a7.719 7.719 0 0 0 -1.19.433 9.84 9.84 0 0 0 -1.028.433v10.813h-2.652v-14.115h2.488v1.3c.7-.324 1.3-.541 1.785-.757.433-.162.919-.324 1.352-.487a4.6 4.6 0 0 1 1.19-.216 10.418 10.418 0 0 1 1.3-.054 4.666 4.666 0 0 1 1.514.216 4.154 4.154 0 0 1 1.352.757 3.473 3.473 0 0 1 .973 1.352 5.065 5.065 0 0 1 .379 2v10z"/><path d="m128.033 39.307c-.595.054-1.19.054-1.731.054a10.272 10.272 0 0 1 -3.137-.487 6.121 6.121 0 0 1 -2.434-1.406 5.911 5.911 0 0 1 -1.568-2.38 8.907 8.907 0 0 1 -.541-3.353 7.382 7.382 0 0 1 .595-3.028 6.047 6.047 0 0 1 1.622-2.217 6.718 6.718 0 0 1 2.434-1.352 9.266 9.266 0 0 1 2.974-.487h1.027a4.371 4.371 0 0 1 .865.054 5.391 5.391 0 0 1 .865.108c.27.054.595.108.919.162v2.109c-.595-.108-1.082-.162-1.46-.216a10.5 10.5 0 0 0 -1.3-.108 9.953 9.953 0 0 0 -2.217.27 4.568 4.568 0 0 0 -1.785.865 3.8 3.8 0 0 0 -1.19 1.568 5.732 5.732 0 0 0 -.433 2.325 5.12 5.12 0 0 0 1.514 4.11 5.871 5.871 0 0 0 4.173 1.353c.379 0 .811-.054 1.244-.054.433-.054.973-.108 1.622-.216v2.055c-.757.108-1.406.216-2.055.27"/><path d="m145.449 34.926a7.254 7.254 0 0 1 -1.46 2.379 7.416 7.416 0 0 1 -2.271 1.568 7.5 7.5 0 0 1 -2.866.541 8.326 8.326 0 0 1 -3.029-.541 5.927 5.927 0 0 1 -2.271-1.568 7.1 7.1 0 0 1 -1.406-2.379 9.666 9.666 0 0 1 0-6.057 6.11 6.11 0 0 1 1.406-2.325 6.589 6.589 0 0 1 2.217-1.46 7.279 7.279 0 0 1 3.028-.487 9.6 9.6 0 0 1 3.028.487 5.676 5.676 0 0 1 2.217 1.46 6.391 6.391 0 0 1 1.406 2.325 9.6 9.6 0 0 1 .487 3.028 8.275 8.275 0 0 1 -.487 3.028m-3.406-6.92a4.3 4.3 0 0 0 -6.111-.27l-.27.27a6.292 6.292 0 0 0 -1.082 3.894 6.981 6.981 0 0 0 1.082 4 4.182 4.182 0 0 0 6.381 0 6.981 6.981 0 0 0 1.082-4 6.534 6.534 0 0 0 -1.082-3.894"/><path d="m161.201 22.216v6.219h7.084v2.325h-7.084v8h-2.866v-18.815h12.006v2.271z"/><path d="m172.18 18.593h2.7v2.6h-2.7zm0 6.057h2.7v14.115h-2.7z"/><path d="m188.782 38.765v-9.031a7.985 7.985 0 0 0 -.054-1.136 2.237 2.237 0 0 0 -.27-1.028 1.758 1.758 0 0 0 -.7-.7 2.53 2.53 0 0 0 -1.406-.27 8.067 8.067 0 0 0 -1.136.108c-.433.108-.811.216-1.244.324a7.718 7.718 0 0 0 -1.19.433 9.826 9.826 0 0 0 -1.027.433v10.87h-2.653v-14.172h2.488v1.3c.7-.324 1.3-.541 1.785-.757.433-.162.919-.324 1.352-.487a4.6 4.6 0 0 1 1.19-.216 10.42 10.42 0 0 1 1.3-.054 4.666 4.666 0 0 1 1.514.216 4.153 4.153 0 0 1 1.352.757 3.473 3.473 0 0 1 .973 1.352 5.065 5.065 0 0 1 .379 2v10.112z"/><path d="m203.6 38.98c-.973.054-1.947.054-2.92.054a20.05 20.05 0 0 1 -2.542-.162 4.961 4.961 0 0 1 -1.947-.7 3.628 3.628 0 0 1 -1.3-1.406 4.83 4.83 0 0 1 -.433-2.325 3.919 3.919 0 0 1 .757-2.542 4.4 4.4 0 0 1 1.839-1.3 9.258 9.258 0 0 1 2.434-.487c.865-.054 1.676-.054 2.434-.054a6.9 6.9 0 0 1 1.027.054 9.168 9.168 0 0 0 1.244.054 10.493 10.493 0 0 0 -.108-1.839 2.153 2.153 0 0 0 -.487-1.136 2.087 2.087 0 0 0 -1.19-.595 16.042 16.042 0 0 0 -2.271-.162 16.809 16.809 0 0 0 -2.325.162c-.811.108-1.568.27-2.325.379v-2.108a25.444 25.444 0 0 1 4.976-.487 21.784 21.784 0 0 1 2.65.162 4.377 4.377 0 0 1 2 .649 3.266 3.266 0 0 1 1.3 1.406 5.632 5.632 0 0 1 .433 2.488v9.734c-1.19.054-2.271.162-3.245.162m.595-6.868c-.595 0-1.082-.054-1.514-.054s-.7-.054-.919-.054c-.649 0-1.3.054-1.893.108a4.856 4.856 0 0 0 -1.46.379 2.112 2.112 0 0 0 -.919.757 2.512 2.512 0 0 0 -.324 1.244 2.62 2.62 0 0 0 .379 1.406 2.269 2.269 0 0 0 .973.757 5.925 5.925 0 0 0 1.406.324c.541.054 1.082.108 1.568.108a7.246 7.246 0 0 0 1.082-.054c.379 0 .865-.054 1.568-.108z"/><path d="m220.689 38.765v-9.031a7.987 7.987 0 0 0 -.054-1.136 2.426 2.426 0 0 0 -.27-1.028 1.758 1.758 0 0 0 -.7-.7 2.53 2.53 0 0 0 -1.406-.27 8.066 8.066 0 0 0 -1.136.108c-.433.108-.811.216-1.244.324a7.718 7.718 0 0 0 -1.19.433 9.832 9.832 0 0 0 -1.028.433v10.87h-2.652v-14.172h2.488v1.3c.7-.324 1.3-.541 1.785-.757.433-.162.919-.324 1.352-.487a4.6 4.6 0 0 1 1.19-.216 10.421 10.421 0 0 1 1.3-.054 4.666 4.666 0 0 1 1.514.216 4.153 4.153 0 0 1 1.352.757 3.473 3.473 0 0 1 .973 1.352 5.065 5.065 0 0 1 .379 2v10.112z"/><path d="m239.671 21.676v16.872c-.379.054-.757.108-1.19.162l-1.3.162c-.433.054-.919.054-1.352.108-.433 0-.865.054-1.3.054a9.932 9.932 0 0 1 -3.083-.487 6.528 6.528 0 0 1 -4.11-3.677 7.714 7.714 0 0 1 -.595-3.137 9.93 9.93 0 0 1 .487-3.083 6.308 6.308 0 0 1 1.406-2.38 6.442 6.442 0 0 1 2.271-1.514 7.423 7.423 0 0 1 3.083-.541h1.19a11.182 11.182 0 0 1 1.893.162v-5.784h2.7zm-2.7 4.867a8.506 8.506 0 0 0 -1.46-.162 7.264 7.264 0 0 0 -1.028-.054 4.918 4.918 0 0 0 -3.677 1.3 5.833 5.833 0 0 0 -1.244 4.11 7.228 7.228 0 0 0 .324 2.163 5.236 5.236 0 0 0 .973 1.676 3.9 3.9 0 0 0 1.568 1.082 6.74 6.74 0 0 0 3.082.324c.379 0 .865-.054 1.406-.108z"/><path d="m243.835 18.593h2.7v2.6h-2.7zm0 6.057h2.7v14.115h-2.7z"/><path d="m260.438 38.765v-9.031a7.982 7.982 0 0 0 -.054-1.136 2.237 2.237 0 0 0 -.27-1.028 1.758 1.758 0 0 0 -.7-.7 2.53 2.53 0 0 0 -1.406-.27 8.067 8.067 0 0 0 -1.136.108c-.433.108-.811.216-1.244.324a7.715 7.715 0 0 0 -1.19.433c-.379.162-.7.27-1.028.433v10.87h-2.652v-14.172h2.488v1.3c.7-.324 1.3-.541 1.785-.757.433-.162.919-.324 1.352-.487a4.6 4.6 0 0 1 1.19-.216 10.42 10.42 0 0 1 1.3-.054 4.665 4.665 0 0 1 1.514.216 4.154 4.154 0 0 1 1.352.757 3.474 3.474 0 0 1 .973 1.352 5.066 5.066 0 0 1 .379 2v10.112z"/><path d="m275.256 38.98c-.973.054-1.947.054-2.92.054a18.6 18.6 0 0 1 -2.488-.162 4.962 4.962 0 0 1 -1.947-.7 3.627 3.627 0 0 1 -1.3-1.406 4.83 4.83 0 0 1 -.433-2.325 3.919 3.919 0 0 1 .757-2.542 4.406 4.406 0 0 1 1.839-1.3 9.26 9.26 0 0 1 2.434-.487c.865-.054 1.677-.054 2.434-.054a6.9 6.9 0 0 1 1.027.054 9.169 9.169 0 0 0 1.244.054 10.482 10.482 0 0 0 -.108-1.839 2.152 2.152 0 0 0 -.487-1.136 2.086 2.086 0 0 0 -1.19-.595 16.239 16.239 0 0 0 -2.325-.162 16.809 16.809 0 0 0 -2.325.162c-.811.108-1.568.27-2.326.379v-2.108a25.445 25.445 0 0 1 4.977-.487 21.784 21.784 0 0 1 2.65.162 4.377 4.377 0 0 1 2 .649 3.266 3.266 0 0 1 1.3 1.406 5.634 5.634 0 0 1 .433 2.488v9.734c-1.19.054-2.271.162-3.245.162m.649-6.868c-.595 0-1.082-.054-1.46-.054-.433 0-.7-.054-.919-.054-.649 0-1.3.054-1.893.108a4.857 4.857 0 0 0 -1.46.379 2.113 2.113 0 0 0 -.919.757 2.512 2.512 0 0 0 -.324 1.244 2.619 2.619 0 0 0 .379 1.406 2.269 2.269 0 0 0 .973.757 5.923 5.923 0 0 0 1.406.324c.541.054 1.082.108 1.622.108a7.247 7.247 0 0 0 1.082-.054c.379 0 .865-.054 1.568-.108z"/></g></g></svg>