<svg height="72" width="72" xmlns="http://www.w3.org/2000/svg"><g fill="#fff"><path d="M42.725 31.068l-2.067.005h-1.479c-.277 0-.477 0-.623-.01a3.84 3.84 0 0 0-2.153 2.094c-.067.3-.586 3.129-1.152 6.232a3.053 3.053 0 0 0 2.152 1.724l3.84-.11a3.2 3.2 0 0 0 1.875-2l1.057-6.449c.104-.72-.996-1.49-1.45-1.486zm21.695.055h-4.4c-1.409 0-2.157 1.76-2.244 1.978-.043.2-.3 1.367-.549 2.7l8.162-.068a24.894 24.894 0 0 0 .341-3.211c0-.896-1.067-1.317-1.31-1.399z"/><path d="M36 0a36 36 0 1 0 36 36A36 36 0 0 0 36 0zm-8.648 27.631a1.065 1.065 0 1 1-1.065 1.065 1.065 1.065 0 0 1 1.065-1.065zm-2.412-3.616a1.065 1.065 0 1 1-1.064 1.065 1.065 1.065 0 0 1 1.064-1.065zm-2.421 3.616a1.065 1.065 0 1 1-1.065 1.065 1.065 1.065 0 0 1 1.065-1.065zm-2.376-3.416a.88.88 0 1 1-.88.881.881.881 0 0 1 .88-.881zm-2.312 3.6a.881.881 0 1 1-.88.881.881.881 0 0 1 .88-.881zm-2.444-3.337a.682.682 0 1 1-.682.682.682.682 0 0 1 .682-.682zm-2.345 3.535a.682.682 0 1 1-.682.682.682.682 0 0 1 .682-.682zm-3.551.365a.352.352 0 1 1-.352.352.352.352 0 0 1 .352-.352zm-3.633 7.97a.352.352 0 1 1 .352-.352.352.352 0 0 1-.352.352zm1.255-4.271a.352.352 0 1 1-.352.352.352.352 0 0 1 .353-.352zm.1 8.069a.352.352 0 1 1 .352-.352.352.352 0 0 1-.353.353zm2.2 3.4a.352.352 0 1 1 .352-.352.352.352 0 0 1-.356.351zm.1-6.8a.682.682 0 1 1 .682-.682.682.682 0 0 1-.687.678zm1.189 3.735a.682.682 0 1 1 .682-.682.682.682 0 0 1-.687.678zm.033-7.371a.682.682 0 1 1 .682-.682.682.682 0 0 1-.687.678zm2.378 10.77a.682.682 0 1 1 .682-.682.682.682 0 0 1-.687.678zm-.165-6.927a.881.881 0 1 1 .881-.881.88.88 0 0 1-.886.877zm2.444-5.406a.88.88 0 1 1-.881.881.88.88 0 0 1 .876-.885zm.066 16.059a.682.682 0 1 1 .682-.682.682.682 0 0 1-.687.678zm-.033-6.927a.88.88 0 1 1 .88-.881.881.881 0 0 1-.885.877zm2.477 3.2a.682.682 0 1 1 .682-.682.682.682 0 0 1-.687.679zm2.279 3.925a.881.881 0 1 1 .881-.881.88.88 0 0 1-.886.878zm.062-7.125a.88.88 0 1 1 .88-.881.881.881 0 0 1-.885.877zm2.349 3.4a.88.88 0 1 1 .881-.88.88.88 0 0 1-.886.871zm2.348 3.911A1.065 1.065 0 1 1 26 46.92a1.065 1.065 0 0 1-1.064 1.065zm2.293-3.726a1.065 1.065 0 1 1 1.065-1.065 1.065 1.065 0 0 1-1.069 1.059zm1.116-4.137h-2.4a1.065 1.065 0 1 1 0-.653h2.135l1.852-3.123H18.793a1.063 1.063 0 1 1-.031-.653h8.853l-1.9-2.942h-4.562a1.065 1.065 0 1 1 0-.653h4.9l2.327 3.595h5.688v.653h-3.48zm15.508-.93a3.919 3.919 0 0 1-2.447 2.553.371.371 0 0 1-.1.016l-3.921.112a.234.234 0 0 1-.046 0 3.6 3.6 0 0 1-2.3-1.394c-.422 2.32-.844 4.647-1.1 6.068a.381.381 0 0 1-.375.314.368.368 0 0 1-.068-.006.382.382 0 0 1-.308-.443s.608-3.361 1.22-6.722c.306-1.681.613-3.362.846-4.622.117-.631.214-1.157.284-1.525a5.957 5.957 0 0 1 .139-.636h-.007a4.457 4.457 0 0 1 2.763-2.6.406.406 0 0 1 .1 0c.252.009 2.672 0 4.269 0 .37-.008 2.348.741 2.118 2.306v.041l-1.064 6.5a.157.157 0 0 1-.007.032zm11.385-8.227h-6.005a2.7 2.7 0 0 0-2.13 2.574v.028a1.75 1.75 0 0 0 1.371 1.871h4.257c.021 0 2.127.161 2.017 3.071a3.4 3.4 0 0 1-2.76 3.3.365.365 0 0 1-.064.006h-6.721a.382.382 0 0 1 0-.763h6.683a2.642 2.642 0 0 0 2.1-2.571c.078-2.054-1.1-2.26-1.291-2.28h-4.314a2.456 2.456 0 0 1-2.041-2.67 3.448 3.448 0 0 1 2.767-3.32.394.394 0 0 1 .081-.009h6.05a.382.382 0 1 1 0 .763zm10.474 5.52l-8.63.072a20.167 20.167 0 0 0-.384 3.091c.027 1.182 1.515 1.415 1.708 1.44h6.178a.382.382 0 0 1 0 .763h-6.241c-.817-.086-2.377-.658-2.407-2.186a49.671 49.671 0 0 1 1.1-6.763.376.376 0 0 1 .015-.05c.038-.1.949-2.5 2.969-2.5h4.46a.382.382 0 0 1 .106.015c.078.023 1.908.569 1.908 2.144a27.936 27.936 0 0 1-.4 3.655.381.381 0 0 1-.382.319z"/></g><path d="M41.251 27.014a.6.6 0 0 1 .373-.146h.837a.414.414 0 0 1 .431.453c-.033.194-.292 1.762-.3 1.8a.148.148 0 0 1-.135.124.116.116 0 0 1-.113-.128c.007-.051.26-1.536.289-1.715s-.1-.271-.263-.271h-.79a.472.472 0 0 0-.413.333c-.018.117-.26 1.587-.271 1.649a.144.144 0 0 1-.143.132.106.106 0 0 1-.11-.132l.53-3.148a.131.131 0 0 1 .146-.113.1.1 0 0 1 .1.128 57.595 57.595 0 0 1-.168 1.034zm-4.205 2.239a.6.6 0 0 1-.545-.75.73.73 0 0 1 .72-.669h1.126s.064-.37.084-.5a.15.15 0 0 0-.161-.193h-1.215s-.15 0-.15-.133.15-.133.15-.133h1.149a.412.412 0 0 1 .383.183.545.545 0 0 1 .064.407c-.014.109-.288 1.7-.293 1.729a.073.073 0 0 1-.067.056c-.037.005-1.078.003-1.245.003zm1.1-.265l.155-.886H37.27a.476.476 0 0 0-.527.384.372.372 0 0 0 .393.5zm1.109.264a.568.568 0 0 1-.457-.208.664.664 0 0 1-.128-.475c.022-.132.168-.98.19-1.1a.65.65 0 0 1 .234-.4.718.718 0 0 1 .446-.19h1.166c.062 0 .154.022.135.139a.164.164 0 0 1-.172.128h-1.108a.469.469 0 0 0-.279.109.482.482 0 0 0-.171.271c-.018.1-.153.879-.183 1.064a.329.329 0 0 0 .069.311.38.38 0 0 0 .311.091h1.038a.121.121 0 0 1 .124.135.149.149 0 0 1-.157.132z" fill="#ed2529"/></svg>