<svg fill="none" xmlns="http://www.w3.org/2000/svg" viewBox="0 0 120 40">
    <path d="M19.626 32C13.922 32 8.008 27.204 8 20.647c-.002-1.671 1.18-3.688 3.412-3.688 2.231 0 3.319 1.31 3.497 3.688.285 3.795 1.764 6.707 2.053 7.263l.044.086c.886 1.809 2.645 2.92 4.813 2.92 1.394 0 2.589-.515 3.627-1.39C23.63 31.27 21.713 32 19.624 32h.002Zm13.44-18.64c5.703 0 11.616 4.796 11.625 11.353.002 1.672-1.18 3.688-3.411 3.688-2.232 0-3.32-1.31-3.498-3.688-.307-4.103-2.006-7.175-2.097-7.348a5.431 5.431 0 0 0-4.814-2.921c-1.394 0-2.588.515-3.627 1.391 1.817-1.746 3.733-2.474 5.823-2.474h-.001Z" fill="#022A9A"/>
    <path d="M35.68 17.358a5.43 5.43 0 0 0-4.808-2.913c-1.395 0-2.59.515-3.628 1.391l-.014.013C23.195 19.46 20.892 26.3 16.963 27.91l.044.086c.886 1.809 2.645 2.92 4.813 2.92 1.394 0 2.588-.515 3.627-1.39 4.186-3.72 6.025-10.237 10.234-12.168Z" fill="#FF5874"/>
    <path d="M102.937 14.23v-2.96c1.868-.093 3.145-1.433 3.238-3.27h2.99c-.063 3.458-2.772 6.105-6.229 6.23l.001-.002ZM85.952 28.381v3.257h-.965c-2.171 0-3.528-.905-3.95-2.593C79.801 30.854 77.843 32 75.49 32c-4.34 0-7.567-3.467-7.567-8.05s3.226-8.05 7.567-8.05c2.261 0 4.161 1.055 5.397 2.744v-2.382h3.377v10.704c0 .874.513 1.417 1.417 1.417h.271l.001-.002Zm-5.065-4.432c0-2.713-2.02-4.794-4.734-4.794-2.713 0-4.764 2.08-4.764 4.794 0 2.714 2.02 4.793 4.764 4.793s4.734-2.08 4.734-4.793ZM88.689 8h3.587v23.638h-3.587V8Zm24.061 20.381v3.257h-.965c-2.171 0-3.528-.905-3.949-2.593-1.237 1.809-3.196 2.955-5.547 2.955-4.343 0-7.568-3.467-7.568-8.05s3.226-8.05 7.568-8.05c2.261 0 4.161 1.055 5.396 2.744v-2.382h3.377v10.704c0 .874.513 1.417 1.417 1.417h.271v-.002Zm-5.065-4.432c0-2.713-2.021-4.794-4.734-4.794s-4.764 2.08-4.764 4.794c0 2.714 2.02 4.793 4.764 4.793s4.734-2.08 4.734-4.793Zm-49.169 8.05c-4.277 0-6.908-2.318-6.908-5.9v-9.785h3.352v8.699c0 2.678 1.406 3.765 3.56 3.765 2.274 0 3.8-1.206 3.8-3.765v-8.7h3.352v9.812c0 3.9-2.86 5.874-7.155 5.874h-.002Z" fill="#022A9A"/>
</svg>
