<svg xmlns="http://www.w3.org/2000/svg" xmlns:xlink="http://www.w3.org/1999/xlink" width="243.964" height="74.844" viewBox="0 0 243.964 74.844">
  <defs>
    <radialGradient id="radial-gradient" cx="0.511" cy="0.518" r="0.678" gradientTransform="translate(-0.002)" gradientUnits="objectBoundingBox">
      <stop offset="0.172" stop-color="#009ddf"/>
      <stop offset="0.785" stop-color="#004692"/>
    </radialGradient>
    <radialGradient id="radial-gradient-2" cx="0.5" cy="0.5" r="3.982" gradientTransform="translate(0.438 0.688) scale(0.124 0.112)" gradientUnits="objectBoundingBox">
      <stop offset="0" stop-color="#48494d" stop-opacity="0.502"/>
      <stop offset="0.314" stop-color="#68696c" stop-opacity="0.412"/>
      <stop offset="0.762" stop-color="#c1c2c3" stop-opacity="0.169"/>
      <stop offset="1" stop-color="#fff" stop-opacity="0"/>
    </radialGradient>
  </defs>
  <g id="Grupo_8454" data-name="Grupo 8454" transform="translate(-138.351 -607.629)">
    <path id="Trazado_5186" data-name="Trazado 5186" d="M478.369,750.744V730.305a2.293,2.293,0,0,1,.7-1.691,2.573,2.573,0,0,1,1.691-.764h4.577l4.516,17.45,4.506-17.45h6.971v22.893h-4.381V732.3L492.3,750.744H487.46L482.744,732.3v18.448Z" transform="translate(-267.418 -94.551)" fill="#004c8a"/>
    <path id="Trazado_5187" data-name="Trazado 5187" d="M606.549,752.413v10.351q0,4.711-2.457,6.167a10.3,10.3,0,0,1-5.373,1.459,10.67,10.67,0,0,1-5.209-1.589q-2.36-1.459-2.358-6.036V752.413H595.8v11.279a2.762,2.762,0,0,0,.928,2.318,3.32,3.32,0,0,0,2.12.729,3.473,3.473,0,0,0,2.16-.729,2.723,2.723,0,0,0,.958-2.318v-9.024a2.237,2.237,0,0,1,.631-1.594,2.151,2.151,0,0,1,1.627-.661Z" transform="translate(-356.119 -113.869)" fill="#004c8a"/>
    <path id="Trazado_5188" data-name="Trazado 5188" d="M682.065,768.586h-2.324a2.169,2.169,0,0,1-2.255-2.258v-9.022a2.723,2.723,0,0,0-.962-2.323,3.486,3.486,0,0,0-2.156-.731,3.359,3.359,0,0,0-2.124.731,2.779,2.779,0,0,0-.927,2.323v11.28h-4.646V758.234q0-4.509,2.36-6.036a10.254,10.254,0,0,1,5.206-1.662,10.017,10.017,0,0,1,5.376,1.527q2.448,1.528,2.453,6.17Z" transform="translate(-415.513 -112.393)" fill="#004c8a"/>
    <path id="Trazado_5189" data-name="Trazado 5189" d="M752.4,727.851h2.26a2.107,2.107,0,0,1,1.587.7,2.213,2.213,0,0,1,.668,1.561v12.937q0,4.71-2.723,6.37a11.117,11.117,0,0,1-5.9,1.657,10.5,10.5,0,0,1-3.381-.561,5.551,5.551,0,0,1-2.656-1.825,10.568,10.568,0,0,1-1.925-6.7,10.749,10.749,0,0,1,1.925-6.7,6.458,6.458,0,0,1,8.03-1.923,6.326,6.326,0,0,1,2.117,2.054Zm-7.559,13.934a6.959,6.959,0,0,0,.991,4.05,3.3,3.3,0,0,0,2.854,1.39,3.226,3.226,0,0,0,2.786-1.39,7.308,7.308,0,0,0,.928-4.05A6.368,6.368,0,0,0,751.4,738a3.461,3.461,0,0,0-2.852-1.329,3.177,3.177,0,0,0-2.721,1.391A6.113,6.113,0,0,0,744.836,741.784Z" transform="translate(-473.44 -94.551)" fill="#004c8a"/>
    <path id="Trazado_5190" data-name="Trazado 5190" d="M822.444,766.939a6.582,6.582,0,0,1-1.99-3.216,14.782,14.782,0,0,1-.6-4.215,13.537,13.537,0,0,1,.5-3.581,7.433,7.433,0,0,1,1.563-2.982,6.862,6.862,0,0,1,4.443-2.358,10.243,10.243,0,0,1,4.914.43,6.777,6.777,0,0,1,3.715,3.45,11.055,11.055,0,0,1,1.126,5.109,12.645,12.645,0,0,1-.461,3.647,9.45,9.45,0,0,1-1.2,2.591,6.645,6.645,0,0,1-4.047,2.722,9.036,9.036,0,0,1-4.412.094A7.654,7.654,0,0,1,822.444,766.939Zm3.189-11.674a6.1,6.1,0,0,0-1.265,4.542,7.2,7.2,0,0,0,1.133,4.215,2.9,2.9,0,0,0,1.39.893,3.125,3.125,0,0,0,2.02.068,3.387,3.387,0,0,0,1.828-1.493,7.489,7.489,0,0,0,.862-3.846,6.735,6.735,0,0,0-.763-3.58,3.436,3.436,0,0,0-1.762-1.529,3.2,3.2,0,0,0-1.987-.033A3.408,3.408,0,0,0,825.633,755.265Z" transform="translate(-535.99 -112.343)" fill="#004c8a"/>
    <path id="Trazado_5191" data-name="Trazado 5191" d="M1068.25,752.413v10.351q0,4.711-2.461,6.167a10.288,10.288,0,0,1-5.372,1.459,10.673,10.673,0,0,1-5.209-1.589q-2.353-1.459-2.354-6.036V752.413h4.646v11.279a2.764,2.764,0,0,0,.926,2.318,3.334,3.334,0,0,0,2.127.729,3.47,3.47,0,0,0,2.155-.729,2.722,2.722,0,0,0,.965-2.318v-9.024a2.228,2.228,0,0,1,.626-1.594,2.16,2.16,0,0,1,1.627-.661Z" transform="translate(-719.239 -113.869)" fill="#004c8a"/>
    <path id="Trazado_5192" data-name="Trazado 5192" d="M1121.219,758.352V754.5h.861a.855.855,0,0,0,.8-.328,1.062,1.062,0,0,0,.265-.864V733.344h2.387a2.257,2.257,0,0,1,2.258,2.255v18.442a4.006,4.006,0,0,1-1.326,3.32,7.458,7.458,0,0,1-4.381.99Zm1.922-30.184h2.387a2.259,2.259,0,0,1,2.258,2.257v1.391h-4.645Z" transform="translate(-773.006 -94.801)" fill="#004c8a"/>
    <path id="Trazado_5193" data-name="Trazado 5193" d="M1167.446,763.142h3.317a7.24,7.24,0,0,1-2.785,4.245,8.444,8.444,0,0,1-5.176,1.526,7.383,7.383,0,0,1-5.9-2.456q-2.123-2.384-2.123-6.832a9.831,9.831,0,0,1,2.054-6.631,7.391,7.391,0,0,1,5.906-2.458,7.948,7.948,0,0,1,6.172,2.391,10.114,10.114,0,0,1,2.124,6.833v.73a1.144,1.144,0,0,1-.068.464h-11.479a4.561,4.561,0,0,0,.994,3.048,3.131,3.131,0,0,0,2.586,1.063,3.771,3.771,0,0,0,1.928-.464.915.915,0,0,0,.364-.232c.111-.11.228-.232.366-.367a1.4,1.4,0,0,1,.5-.526A1.959,1.959,0,0,1,1167.446,763.142Zm-7.961-5.174h6.768a4.278,4.278,0,0,0-.93-2.653,3.189,3.189,0,0,0-2.455-.928,3.25,3.25,0,0,0-2.39.928A3.808,3.808,0,0,0,1159.484,757.968Z" transform="translate(-799.397 -112.393)" fill="#004c8a"/>
    <path id="Trazado_5194" data-name="Trazado 5194" d="M1234.333,770.062V761.5a10.964,10.964,0,0,1,.758-4.349,7.21,7.21,0,0,1,2.093-2.818,8.2,8.2,0,0,1,2.955-1.46,13.145,13.145,0,0,1,3.48-.462h.666v4.711h-1.528a3.887,3.887,0,0,0-2.853.927,4,4,0,0,0-.925,2.92v9.091Z" transform="translate(-861.969 -113.869)" fill="#004c8a"/>
    <path id="Trazado_5195" data-name="Trazado 5195" d="M939.181,750.744V730.305a2.3,2.3,0,0,1,.695-1.691,2.567,2.567,0,0,1,1.692-.764h4.576l4.514,17.45,4.51-17.45h6.969v22.893h-4.381V732.3l-4.641,18.448h-4.843L943.558,732.3v18.448Z" transform="translate(-629.837 -94.551)" fill="#004c8a"/>
    <path id="Trazado_5196" data-name="Trazado 5196" d="M210.959,663.965a9.011,9.011,0,1,1,1.511-.13A8.63,8.63,0,0,1,210.959,663.965Zm.02-16.81a7.653,7.653,0,0,0-1.313.114,7.818,7.818,0,0,0,1.293,15.527,7.575,7.575,0,0,0,1.31-.113,7.818,7.818,0,0,0-1.291-15.528Z" transform="translate(-50.045 -30.166)" fill="#fff"/>
    <path id="Trazado_5197" data-name="Trazado 5197" d="M226.335,671.231a.586.586,0,0,1-.5-.885c1.753-2.926,2.1-17.355-2.461-23.729-1.6-2.24-4.635-3.376-9.019-3.376a37.362,37.362,0,0,0-9.464,1.41.584.584,0,0,1-.6-.954,15.6,15.6,0,0,1,6.742-4.336,19.994,19.994,0,0,1,9.923-.737,3.206,3.206,0,0,0,.661.074c1.957,0,2.535-2.3,2.7-3.673h0a29.718,29.718,0,0,0-.425-7.929c-.217-1.523-.441-3.1-.528-4.67a20.166,20.166,0,0,1,3.015-10.972,8.859,8.859,0,0,1,2.93-3.167,3.569,3.569,0,0,1,.664-.267,4.556,4.556,0,0,0,.572-.217.585.585,0,0,1,.878.771c-6.357,8.088.616,29.536.688,29.752,5.61,18.522-5.208,32.542-5.318,32.681A.585.585,0,0,1,226.335,671.231Zm-11.981-29.16c4.783,0,8.137,1.3,9.97,3.865,3.766,5.258,4.355,15.342,3.556,21.167A36.85,36.85,0,0,0,231,638.68c-.275-.833-6.359-19.56-1.639-29a8.209,8.209,0,0,0-1.962,2.357,19.016,19.016,0,0,0-2.863,10.326c.084,1.522.3,3.071.517,4.569a31.031,31.031,0,0,1,.429,8.238c-.421,3.4-2.222,5.138-4.767,4.6a18.866,18.866,0,0,0-9.32.7,14.507,14.507,0,0,0-4.628,2.5A36.236,36.236,0,0,1,214.355,642.072Zm16.154-34.222h0Z" transform="translate(-51.738 0)" fill="#fff"/>
    <path id="Trazado_5198" data-name="Trazado 5198" d="M379.649,752.6a6.415,6.415,0,0,1-5.065-10.347h0a6.418,6.418,0,1,1,5.065,10.347Zm.01-11.665a5.22,5.22,0,0,0-4.151,2.035h0a5.248,5.248,0,1,0,7.363-.937A5.2,5.2,0,0,0,379.659,740.937Zm-4.612,1.677h0Z" transform="translate(-184.736 -103.924)" fill="#fff"/>
    <path id="Trazado_5199" data-name="Trazado 5199" d="M167.563,854.63a20.6,20.6,0,0,1-15.01-6.378c-.084-.092-7.5-8.2-12.833-8.2a3.926,3.926,0,0,0-.681.048h-.009a.584.584,0,0,1-.3-1.125c.056-.041.12-.1.184-.162a2.035,2.035,0,0,1,.36-.284,5.1,5.1,0,0,1,2.394-.566h.1a11.115,11.115,0,0,1,5.988,1.542c.725.465,1.408.993,2.068,1.5a15.824,15.824,0,0,0,3.546,2.274,3.3,3.3,0,0,0,1.208.279.941.941,0,0,0,1.008-.737,10.943,10.943,0,0,1,3.057-4.572,8.635,8.635,0,0,1,3.946-2.074.584.584,0,0,1,.534.993c-.056.054-5.561,5.359-3.932,8.88,1.739,3.752,8.306,7.3,10.148,7.3h.088a.585.585,0,0,1,.086,1.163A14.735,14.735,0,0,1,167.563,854.63ZM141.6,839.137c5.465,1.38,11.528,8.006,11.813,8.32a19.268,19.268,0,0,0,12.434,5.928c-2.9-1.446-6.433-4.085-7.711-6.841h0c-1.3-2.8.795-6.215,2.462-8.3a7.709,7.709,0,0,0-1.16.877,9.748,9.748,0,0,0-2.731,4.061,2.091,2.091,0,0,1-2.123,1.555,4.548,4.548,0,0,1-1.653-.367,16.948,16.948,0,0,1-3.815-2.429c-.641-.5-1.3-1.007-1.984-1.444a10.15,10.15,0,0,0-5.358-1.357H141.6Z" transform="translate(0 -179.739)" fill="#fff"/>
    <path id="Trazado_5200" data-name="Trazado 5200" d="M164.218,801.545a6.116,6.116,0,0,1-2.706-.634h0a6.11,6.11,0,1,1,2.708.635Zm-2.191-1.684a4.948,4.948,0,1,0-2.492-2.848A4.95,4.95,0,0,0,162.027,799.861Z" transform="translate(-15.534 -142.888)" fill="#fff"/>
    <path id="Trazado_5201" data-name="Trazado 5201" d="M349.994,806.484a.585.585,0,0,1-.206-1.132c1.622-.611,6.393-7.227,6.313-11.649-.079-4.119-7.767-6.61-7.845-6.635a.585.585,0,0,1,.048-1.128,9.261,9.261,0,0,1,4.684.149,11.525,11.525,0,0,1,4.988,2.918,1.06,1.06,0,0,0,.774.387,2.435,2.435,0,0,0,1.587-.982,16.631,16.631,0,0,0,2.32-3.791c.392-.787.8-1.6,1.27-2.374a11.884,11.884,0,0,1,5.049-4.253,5.468,5.468,0,0,1,2.3-.57c.068,0,.145,0,.218,0a2.212,2.212,0,0,1,.447.1,2.593,2.593,0,0,0,.262.07.585.585,0,0,1,.25,1.138c-5.45,1.7-9.063,13.848-9.1,13.97a21.564,21.564,0,0,1-13.187,13.752A.613.613,0,0,1,349.994,806.484Zm.984-19.583c2.545,1.189,6.229,3.476,6.292,6.78.057,3.178-2.126,7.4-4.232,10.124a20.511,20.511,0,0,0,9.2-11.44c.129-.441,2.881-9.7,7.517-13.437-.1.041-.189.082-.272.121a10.739,10.739,0,0,0-4.557,3.808c-.446.729-.839,1.521-1.22,2.286a17.8,17.8,0,0,1-2.492,4.045,3.622,3.622,0,0,1-2.462,1.376,2.193,2.193,0,0,1-1.622-.752,10.329,10.329,0,0,0-4.474-2.6A7.889,7.889,0,0,0,350.979,786.9Z" transform="translate(-164.767 -133.54)" fill="#fff"/>
    <path id="Trazado_5202" data-name="Trazado 5202" d="M219.395,743.591a24.614,24.614,0,0,1-5.094-.525.585.585,0,0,1-.461-.629c-2.039-.021-8.875-3.668-10.732-7.69-1.662-3.586,2.8-8.365,3.852-9.423a7.967,7.967,0,0,0-3.347,1.839,10.318,10.318,0,0,0-2.869,4.283,1.591,1.591,0,0,1-1.541,1.2.6.6,0,0,1-.517-.264,24.78,24.78,0,0,1-2.958-6.329.585.585,0,0,1,.261-.674,5.452,5.452,0,0,0-.37-9.574c-.069-.033-.147-.063-.227-.1l-.075-.03a.586.586,0,0,1-.356-.632,24.845,24.845,0,0,1,7.333-14.038.581.581,0,0,1,.585-.134,8.307,8.307,0,0,0,10.575-5.7.585.585,0,0,1,.434-.413,25.036,25.036,0,0,1,2.754-.467.585.585,0,0,1,.644.5l.06.439a30.555,30.555,0,0,1,.416,8.038c-.33,2.7-1.557,4.253-3.367,4.253a3.589,3.589,0,0,1-.806-.092,19.456,19.456,0,0,0-9.573.725,14.945,14.945,0,0,0-6.258,3.937,37.856,37.856,0,0,1,9.376-1.361c4.613,0,7.831,1.229,9.563,3.651,4.469,6.243,4.387,19.431,2.845,23.7a36.282,36.282,0,0,0,4.2-8.461,36.84,36.84,0,0,0,.516-22.931,81.4,81.4,0,0,1-2.733-11.723.585.585,0,0,1,.643-.67,24.871,24.871,0,0,1,16.826,9.5.584.584,0,0,1-.38.935,5.746,5.746,0,1,0,4.319,10.24.585.585,0,0,1,.936.376c.093.627.16,1.278.2,1.986a.585.585,0,0,1-.075.326c-.32.564-.645,1.178-.992,1.876a17.392,17.392,0,0,1-2.412,3.935c-1.193,1.333-2.466,1.559-3.353.611a10.875,10.875,0,0,0-4.7-2.738,8.582,8.582,0,0,0-4.048-.2c1.435.5,7.946,3.02,8.019,7.162.084,4.439-4.575,11.3-6.642,12.245a.565.565,0,0,1,.075.43.575.575,0,0,1-.334.4A24.518,24.518,0,0,1,219.395,743.591Zm-4.417-1.581a23.639,23.639,0,0,0,13.677-1.484,1.091,1.091,0,0,1,.707-1.028c1.3-.493,6.068-6.818,5.986-11.171-.054-3.116-5.426-5.508-7.491-6.166a1.107,1.107,0,0,1-.757-1.084,1.083,1.083,0,0,1,.848-1.011,9.755,9.755,0,0,1,4.93.156,12.071,12.071,0,0,1,5.214,3.056.553.553,0,0,0,.409.229,2.065,2.065,0,0,0,1.22-.815,16.514,16.514,0,0,0,2.238-3.677c.326-.657.634-1.241.937-1.782-.019-.272-.041-.534-.067-.79a6.916,6.916,0,1,1-5.344-12.662,23.718,23.718,0,0,0-14.68-8.228,81.5,81.5,0,0,0,2.567,10.771A38.022,38.022,0,0,1,224.846,730a35.332,35.332,0,0,1-4.881,9.478,1.115,1.115,0,0,1-1.457.228,1.1,1.1,0,0,1-.325-1.459c1.657-2.778,1.923-17.094-2.439-23.188-1.5-2.1-4.4-3.163-8.612-3.163a37.086,37.086,0,0,0-9.316,1.383,1.062,1.062,0,0,1-1.208-.409q-.25.945-.42,1.909a6.622,6.622,0,0,1,.789,11.35,23.618,23.618,0,0,0,2.467,5.267.54.54,0,0,0,.182-.306,11.521,11.521,0,0,1,3.2-4.794,9.176,9.176,0,0,1,4.159-2.192,1.238,1.238,0,0,1,.215-.026,1.085,1.085,0,0,1,.763,1.9c-.04.039-5.259,5.113-3.792,8.278,1.627,3.525,7.981,7.013,9.689,7.013h.074A1.1,1.1,0,0,1,214.978,742.009Zm14.588-1.964h0ZM228.206,721.2h0Zm-25.348-19.113a23.76,23.76,0,0,0-5.668,8.9,16.116,16.116,0,0,1,6.461-3.955,20.551,20.551,0,0,1,10.186-.755,2.515,2.515,0,0,0,.556.065c1.577,0,2.059-2.022,2.206-3.227a29.184,29.184,0,0,0-.395-7.6c-.578.078-1.155.179-1.727.3a9.474,9.474,0,0,1-11.619,6.267Z" transform="translate(-44.517 -68.155)" fill="#fff"/>
    <path id="Trazado_5203" data-name="Trazado 5203" d="M201.686,647.986a5.833,5.833,0,1,1-1.04-8.185A5.839,5.839,0,0,1,201.686,647.986Zm-1.506,13.168s3.669-12.555,9.486-14.364a.24.24,0,0,1-.059.008c-.191,0-.6-.162-.76-.173-.062,0-.127,0-.185,0a4.855,4.855,0,0,0-2.048.514,11.178,11.178,0,0,0-4.8,4.03c-1.262,2.063-2.024,4.42-3.65,6.247a3,3,0,0,1-2.025,1.18,1.625,1.625,0,0,1-1.2-.569,10.93,10.93,0,0,0-4.732-2.761,8.524,8.524,0,0,0-2.456-.357,8.689,8.689,0,0,0-1.93.218s8.164,2.6,8.251,7.181-4.768,11.482-6.691,12.207A21.163,21.163,0,0,0,200.18,661.154ZM153.292,649.73a5.535,5.535,0,1,0,2.506,7.413A5.521,5.521,0,0,0,153.292,649.73Zm-12.2,12.211a4.6,4.6,0,0,1,.784-.056c5.657,0,13.256,8.378,13.256,8.378a20.1,20.1,0,0,0,14.587,6.2,14.022,14.022,0,0,0,1.867-.1h-.088c-2.168,0-8.875-3.751-10.678-7.642-1.826-3.947,4.06-9.549,4.06-9.549a8.124,8.124,0,0,0-3.683,1.937,10.363,10.363,0,0,0-2.893,4.316,1.514,1.514,0,0,1-1.566,1.145,3.89,3.89,0,0,1-1.431-.323c-2.149-.889-3.775-2.585-5.705-3.823a10.583,10.583,0,0,0-5.673-1.451h-.1a4.51,4.51,0,0,0-2.115.495C141.566,661.54,141.232,661.917,141.089,661.941Zm30.275-36.386a8.413,8.413,0,0,0-8.277-7,8.286,8.286,0,0,0-1.412.122,8.4,8.4,0,0,0,1.393,16.688,8.114,8.114,0,0,0,1.413-.122A8.406,8.406,0,0,0,171.364,625.554Zm10.608,15.109s-7.216-21.87-.592-30.3c-.169.211-1.085.414-1.348.573A8.23,8.23,0,0,0,177.3,613.9a19.663,19.663,0,0,0-2.938,10.648c.233,4.251,1.48,8.426.95,12.7-.254,2.045-1.144,4.186-3.285,4.186a3.775,3.775,0,0,1-.781-.086,15.718,15.718,0,0,0-3.227-.319,21.085,21.085,0,0,0-6.395,1.039,15.124,15.124,0,0,0-6.493,4.175,37.723,37.723,0,0,1,9.634-1.435c3.685,0,7.484.806,9.494,3.619,4.7,6.568,4.316,21.318,2.487,24.369A37.264,37.264,0,0,0,181.973,640.664Z" transform="translate(-2.154 -2.152)" fill="#ca8a00"/>
    <path id="Trazado_5204" data-name="Trazado 5204" d="M231.425,742.829a.5.5,0,0,1,.294-.631c1.635-.614,6.451-7.28,6.367-11.73-.073-4.171-7.821-6.688-7.9-6.714a.512.512,0,0,1-.349-.5.5.5,0,0,1,.389-.464,9.126,9.126,0,0,1,4.638.146,11.47,11.47,0,0,1,4.957,2.9,1.122,1.122,0,0,0,.832.41,2.546,2.546,0,0,0,1.655-1.009,16.786,16.786,0,0,0,2.326-3.808c.315-.633.651-1.276,1.007-1.9-.04-.652-.1-1.3-.2-1.936a6.329,6.329,0,1,1-4.76-11.281,24.149,24.149,0,0,0-16.428-9.279,81.729,81.729,0,0,0,2.715,11.643,37.418,37.418,0,0,1-.524,23.294,34.517,34.517,0,0,1-4.788,9.309.5.5,0,0,1-.392.188.519.519,0,0,1-.283-.086.506.506,0,0,1-.144-.672c1.757-2.945,2.111-17.432-2.466-23.826-1.617-2.262-4.673-3.407-9.087-3.407a37.687,37.687,0,0,0-9.491,1.41.473.473,0,0,1-.143.025.5.5,0,0,1-.372-.841,15.531,15.531,0,0,1,6.708-4.311,21.484,21.484,0,0,1,6.552-1.067,16.388,16.388,0,0,1,3.333.328,3.038,3.038,0,0,0,.675.077c2.024,0,2.616-2.344,2.786-3.741a30.426,30.426,0,0,0-.426-7.965c-.016-.116-.032-.235-.049-.358a24.591,24.591,0,0,0-2.689.456,8.913,8.913,0,0,1-7.086,6.412,8.869,8.869,0,0,1-4.232-.308,24.108,24.108,0,0,0-7.16,13.705c.117.048.229.092.341.144a6.037,6.037,0,0,1,.408,10.6,24.188,24.188,0,0,0,2.889,6.179,1,1,0,0,0,1.011-.792,10.917,10.917,0,0,1,3.032-4.537,8.616,8.616,0,0,1,3.9-2.055.568.568,0,0,1,.082-.01h.052a.494.494,0,0,1,.492.5.51.51,0,0,1-.169.376c-.291.276-5.555,5.46-3.934,8.959,1.745,3.779,8.365,7.351,10.219,7.351h.092a.5.5,0,0,1,.5.5.418.418,0,0,1-.028.138A24.218,24.218,0,0,0,231.527,743,.469.469,0,0,1,231.425,742.829Z" transform="translate(-46.67 -70.307)" fill="url(#radial-gradient)"/>
    <path id="Trazado_5205" data-name="Trazado 5205" d="M478.358,854.9h4.866v1.3h-3.213v2.03h2.941v1.3h-2.941v2.315h3.236v1.3h-4.889Z" transform="translate(-267.409 -194.474)" fill="#ca8a00"/>
    <path id="Trazado_5206" data-name="Trazado 5206" d="M507.238,852.026h1.582v8.857h-1.582Z" transform="translate(-290.122 -192.213)" fill="#ca8a00"/>
    <path id="Trazado_5207" data-name="Trazado 5207" d="M535.733,854.9h2.882c1.062,0,2.657.306,2.657,2.113a1.84,1.84,0,0,1-1.641,1.843v.023a1.914,1.914,0,0,1,1.89,1.878c0,2.079-1.866,2.386-2.905,2.386h-2.882Zm1.653,3.33h.674c.7,0,1.558-.153,1.558-1,0-.956-.838-1.027-1.594-1.027h-.638Zm0,3.615h.78c.767,0,1.7-.189,1.7-1.147,0-1.073-.874-1.239-1.7-1.239h-.78Z" transform="translate(-312.533 -194.474)" fill="#ca8a00"/>
    <path id="Trazado_5208" data-name="Trazado 5208" d="M566.328,864.819a5.435,5.435,0,0,1,2.114-.461c1.854,0,2.621.768,2.621,2.562v.78c0,.614.012,1.074.024,1.524s.035.885.071,1.357h-1.394a7.383,7.383,0,0,1-.071-.909h-.024a2.172,2.172,0,0,1-1.877,1.051,1.94,1.94,0,0,1-2.126-1.808,1.787,1.787,0,0,1,1.039-1.735,4.816,4.816,0,0,1,2.043-.354h.874c0-.981-.437-1.312-1.37-1.312a3.19,3.19,0,0,0-1.878.661Zm1.853,4.747a1.345,1.345,0,0,0,1.111-.543,2.019,2.019,0,0,0,.331-1.252h-.685c-.709,0-1.76.118-1.76,1.051C567.177,869.341,567.614,869.567,568.181,869.567Z" transform="translate(-336.075 -201.912)" fill="#ca8a00"/>
    <path id="Trazado_5209" data-name="Trazado 5209" d="M596.872,864.5h1.5v.827h.024a2.272,2.272,0,0,1,2-.968c1.441,0,2.067,1.016,2.067,2.386v3.838h-1.582v-3.247c0-.745-.012-1.748-1.028-1.748-1.146,0-1.393,1.24-1.393,2.019v2.976h-1.582Z" transform="translate(-360.618 -201.912)" fill="#ca8a00"/>
    <path id="Trazado_5210" data-name="Trazado 5210" d="M631.8,865.811a2.394,2.394,0,0,0-1.075-.224c-.98,0-1.606.779-1.606,1.925,0,1.121.532,1.984,1.642,1.984a3.324,3.324,0,0,0,1.216-.284l.071,1.31a5.137,5.137,0,0,1-1.583.2c-2,0-3-1.358-3-3.213a2.878,2.878,0,0,1,2.941-3.153,5.16,5.16,0,0,1,1.535.2Z" transform="translate(-384.681 -201.912)" fill="#ca8a00"/>
    <path id="Trazado_5211" data-name="Trazado 5211" d="M653.827,864.358a3.047,3.047,0,0,1,3.189,3.223,3.183,3.183,0,0,1-6.366,0A3.044,3.044,0,0,1,653.827,864.358Zm0,5.137c1.216,0,1.535-1.086,1.535-2.1a1.551,1.551,0,1,0-3.059,0C652.3,868.4,652.623,869.5,653.827,869.5Z" transform="translate(-402.914 -201.912)" fill="#ca8a00"/>
    <path id="Trazado_5212" data-name="Trazado 5212" d="M701.509,860.2h-.024a2.256,2.256,0,0,1-1.866.827c-1.866,0-2.551-1.535-2.551-3.2s.685-3.165,2.551-3.165a2.167,2.167,0,0,1,1.819.85h.023v-3.483h1.583v8.857h-1.535Zm-1.453-.4c1.052,0,1.394-1.109,1.394-1.973s-.4-1.936-1.418-1.936-1.31,1.123-1.31,1.936C698.722,858.663,699.017,859.8,700.056,859.8Z" transform="translate(-439.421 -192.213)" fill="#ca8a00"/>
    <path id="Trazado_5213" data-name="Trazado 5213" d="M734.758,870.239a4.181,4.181,0,0,1-2.09.485,2.891,2.891,0,0,1-3.177-3.153c0-1.76.933-3.213,2.823-3.213,2.256,0,2.893,1.547,2.893,3.673H731a1.59,1.59,0,0,0,1.735,1.536,4.1,4.1,0,0,0,2.02-.614Zm-1.063-3.295c-.047-.768-.4-1.429-1.287-1.429a1.377,1.377,0,0,0-1.4,1.429Z" transform="translate(-464.92 -201.912)" fill="#ca8a00"/>
    <path id="Trazado_5214" data-name="Trazado 5214" d="M774.86,852.026h1.582v8.857H774.86Z" transform="translate(-500.602 -192.213)" fill="#ca8a00"/>
    <path id="Trazado_5215" data-name="Trazado 5215" d="M787.53,864.819a5.432,5.432,0,0,1,2.113-.461c1.854,0,2.622.768,2.622,2.562v.78c0,.614.012,1.074.023,1.524s.036.885.071,1.357h-1.393a7.407,7.407,0,0,1-.071-.909h-.024a2.173,2.173,0,0,1-1.878,1.051,1.94,1.94,0,0,1-2.126-1.808,1.787,1.787,0,0,1,1.039-1.735,4.813,4.813,0,0,1,2.043-.354h.874c0-.981-.437-1.312-1.37-1.312a3.188,3.188,0,0,0-1.877.661Zm1.853,4.747a1.343,1.343,0,0,0,1.11-.543,2.019,2.019,0,0,0,.331-1.252h-.685c-.708,0-1.759.118-1.759,1.051C788.38,869.341,788.817,869.567,789.383,869.567Z" transform="translate(-510.046 -201.912)" fill="#ca8a00"/>
    <path id="Trazado_5216" data-name="Trazado 5216" d="M837.255,862.5a8.406,8.406,0,0,1-1.879.259c-2.667,0-4.522-1.335-4.522-4.12,0-2.823,1.725-4.406,4.522-4.406a5.475,5.475,0,0,1,1.866.342l-.118,1.394a3.407,3.407,0,0,0-1.783-.438,2.754,2.754,0,0,0-2.762,2.989,2.715,2.715,0,0,0,2.8,2.941,4.6,4.6,0,0,0,1.808-.342Z" transform="translate(-544.64 -193.951)" fill="#ca8a00"/>
    <path id="Trazado_5217" data-name="Trazado 5217" d="M865.843,864.358a3.046,3.046,0,0,1,3.188,3.223,3.183,3.183,0,0,1-6.365,0A3.043,3.043,0,0,1,865.843,864.358Zm0,5.137c1.217,0,1.536-1.086,1.536-2.1a1.551,1.551,0,1,0-3.059,0C864.32,868.4,864.638,869.5,865.843,869.5Z" transform="translate(-569.66 -201.912)" fill="#ca8a00"/>
    <path id="Trazado_5218" data-name="Trazado 5218" d="M896.806,864.5h1.475v.851h.024a2.139,2.139,0,0,1,1.807-.993,1.774,1.774,0,0,1,1.8,1.076,2.082,2.082,0,0,1,1.9-1.076c1.5,0,1.925,1.028,1.925,2.386v3.838H904.15v-3.625c0-.566,0-1.37-.91-1.37-1.05,0-1.181,1.252-1.181,2.043v2.952h-1.583v-3.625c0-.566,0-1.37-.91-1.37-1.05,0-1.181,1.252-1.181,2.043v2.952h-1.581Z" transform="translate(-596.511 -201.912)" fill="#ca8a00"/>
    <path id="Trazado_5219" data-name="Trazado 5219" d="M950.3,871.1h-1.5v-.828h-.023a2.535,2.535,0,0,1-2,.969c-1.441,0-2.066-1.016-2.066-2.386v-3.839H946.3v3.249c0,.743.013,1.747,1.028,1.747,1.146,0,1.394-1.24,1.394-2.019v-2.977H950.3Z" transform="translate(-634.193 -202.433)" fill="#ca8a00"/>
    <path id="Trazado_5220" data-name="Trazado 5220" d="M977.141,864.5h1.5v.827h.023a2.273,2.273,0,0,1,2-.968c1.441,0,2.067,1.016,2.067,2.386v3.838h-1.583v-3.247c0-.745-.012-1.748-1.028-1.748-1.146,0-1.393,1.24-1.393,2.019v2.976h-1.583Z" transform="translate(-659.692 -201.912)" fill="#ca8a00"/>
    <path id="Trazado_5221" data-name="Trazado 5221" d="M1009.728,852.743h1.582v1.511h-1.582Zm0,2.621h1.582v6.083h-1.582Z" transform="translate(-685.321 -192.777)" fill="#ca8a00"/>
    <path id="Trazado_5222" data-name="Trazado 5222" d="M1026.174,860.2h-.023a2.257,2.257,0,0,1-1.866.827c-1.865,0-2.551-1.535-2.551-3.2s.686-3.165,2.551-3.165a2.167,2.167,0,0,1,1.82.85h.023v-3.483h1.582v8.857h-1.536Zm-1.453-.4c1.052,0,1.395-1.109,1.395-1.973s-.4-1.936-1.418-1.936-1.31,1.123-1.31,1.936C1023.387,858.663,1023.682,859.8,1024.721,859.8Z" transform="translate(-694.764 -192.213)" fill="#ca8a00"/>
    <path id="Trazado_5223" data-name="Trazado 5223" d="M1054.818,864.819a5.424,5.424,0,0,1,2.113-.461c1.853,0,2.622.768,2.622,2.562v.78c0,.614.012,1.074.023,1.524s.036.885.07,1.357h-1.392a7.325,7.325,0,0,1-.071-.909h-.023a2.174,2.174,0,0,1-1.878,1.051,1.939,1.939,0,0,1-2.125-1.808,1.786,1.786,0,0,1,1.039-1.735,4.808,4.808,0,0,1,2.044-.354h.873c0-.981-.437-1.312-1.37-1.312a3.19,3.19,0,0,0-1.878.661Zm1.853,4.747a1.343,1.343,0,0,0,1.109-.543,2.015,2.015,0,0,0,.331-1.252h-.686c-.707,0-1.758.118-1.758,1.051C1055.667,869.341,1056.1,869.567,1056.671,869.567Z" transform="translate(-720.262 -201.912)" fill="#ca8a00"/>
    <path id="Trazado_5224" data-name="Trazado 5224" d="M1087.977,860.2h-.023a2.26,2.26,0,0,1-1.866.827c-1.866,0-2.551-1.535-2.551-3.2s.684-3.165,2.551-3.165a2.165,2.165,0,0,1,1.818.85h.023v-3.483h1.582v8.857h-1.535Zm-1.453-.4c1.051,0,1.393-1.109,1.393-1.973s-.4-1.936-1.418-1.936-1.31,1.123-1.31,1.936C1085.19,858.663,1085.485,859.8,1086.525,859.8Z" transform="translate(-743.371 -192.213)" fill="#ca8a00"/>
    <ellipse id="Elipse_169" data-name="Elipse 169" cx="28.423" cy="3.518" rx="28.423" ry="3.518" transform="translate(146.603 675.437)" fill="url(#radial-gradient-2)"/>
  </g>
</svg>
