<svg width="21" height="20" viewBox="0 0 21 20" fill="none" xmlns="http://www.w3.org/2000/svg">
<path d="M10.5005 0C4.97762 0 0.500488 4.47714 0.500488 10C0.500488 15.5229 4.97762 20 10.5005 20C16.0234 20 20.5005 15.5229 20.5005 10C20.5005 4.47714 16.0234 0 10.5005 0ZM14.3155 5.09258L12.9324 5.0932C11.8478 5.0932 11.6381 5.60859 11.6381 6.36481V8.03233H14.2245L14.2233 10.6441H11.6383V17.3465H8.94059V10.6441H6.68545V8.03233H8.94059V6.10619C8.94059 3.8709 10.3063 2.6535 12.3002 2.6535L14.3157 2.65657V5.09258H14.3155Z" fill="#999999"/>
</svg>
