<svg width="21" height="20" viewBox="0 0 21 20" fill="none" xmlns="http://www.w3.org/2000/svg">
<path d="M10.5005 0C4.97762 0 0.500488 4.47714 0.500488 10C0.500488 15.5229 4.97762 20 10.5005 20C16.0234 20 20.5005 15.5229 20.5005 10C20.5005 4.47714 16.0234 0 10.5005 0ZM6.75358 16.7705H3.94233V7.72542H6.75358V16.7705ZM5.34857 6.489C4.4475 6.489 3.71808 5.75857 3.71808 4.85872C3.71829 3.95969 4.4475 3.22926 5.34857 3.22926C6.24719 3.22926 6.97762 3.95969 6.97762 4.85872C6.97762 5.75877 6.24698 6.489 5.34857 6.489ZM17.2827 16.7705H14.4737V12.3718C14.4737 11.3228 14.4542 9.97361 13.0124 9.97361C11.5503 9.97361 11.3254 11.1161 11.3254 12.2959V16.7703H8.51665V7.72542H11.2129V8.96143H11.2508C11.6262 8.25023 12.5428 7.50056 13.9106 7.50056C16.7573 7.50056 17.2827 9.37391 17.2827 11.8093V16.7705Z" fill="#999999"/>
</svg>
