<svg width="158" height="64" viewBox="0 0 158 64" fill="none" xmlns="http://www.w3.org/2000/svg">
<path d="M84.8968 33.3356H78.2095V60.5261H84.8968V33.3356Z" fill="white"/>
<path d="M109.656 60.5261L101.471 51.1921H99.5261V60.5261H92.8388V33.3356H106.577C112.452 33.3356 116.343 36.9069 116.343 42.223C116.399 44.2812 115.708 46.29 114.399 47.8787C113.089 49.4675 111.249 50.5289 109.218 50.8671L117.734 60.5261H109.656ZM105.847 45.5927C108.238 45.5927 109.778 44.2945 109.778 42.3047C109.778 40.3565 108.238 39.0583 105.847 39.0583H99.5244V45.5927H105.847Z" fill="white"/>
<path d="M129.473 33.3356H122.786V60.5261H129.473V33.3356Z" fill="white"/>
<path d="M157.678 40.5998L151.113 41.9397C150.918 40.8371 150.33 39.8424 149.459 39.1396C148.587 38.4367 147.491 38.0732 146.372 38.1163C144.142 38.1163 142.722 39.3329 142.722 40.8761C142.722 41.9709 143.209 42.7877 144.91 43.1492L150.543 44.4074C155.244 45.4623 158 48.0187 158 52.3216C158 58.1243 152.852 61.1273 146.815 61.1273C140.696 61.1273 135.67 58.206 134.94 52.8899L141.829 51.55C142.06 52.7659 142.736 53.8519 143.725 54.5951C144.715 55.3384 145.946 55.6854 147.178 55.568C149.691 55.568 151.191 54.4314 151.191 52.7682C151.191 51.5517 150.624 50.7801 148.678 50.3735L143.004 49.157C139.113 48.2637 135.705 46.2356 135.705 41.2845C135.705 36.0083 140.081 32.722 146.445 32.722C152.354 32.722 156.656 35.6434 157.67 40.5945" fill="white"/>
<path d="M31.2333 6.38564L5.35482 32.3006C1.93498 35.7358 0.0166698 40.3868 0.0203911 45.2341C0.0241125 50.0813 1.94956 54.7293 5.37468 58.1593C8.79979 61.5892 13.4451 63.5212 18.2924 63.5318C23.1396 63.5423 27.7933 61.6306 31.2333 58.2156L57.11 32.3006C58.836 30.6069 60.2094 28.5882 61.151 26.3609C62.0926 24.1336 62.5837 21.7418 62.596 19.3237C62.6083 16.9056 62.1416 14.509 61.2227 12.2722C60.3038 10.0355 58.951 8.00283 57.2424 6.29167C55.5338 4.58052 53.5031 3.22473 51.2677 2.30255C49.0323 1.38038 46.6364 0.910084 44.2183 0.918821C41.8001 0.927557 39.4077 1.41515 37.179 2.35345C34.9503 3.29176 32.9295 4.66219 31.2333 6.38564Z" fill="url(#paint0_linear)"/>
<path d="M31.2318 32.2997C28.6682 29.7398 26.9216 26.477 26.213 22.9241C25.5043 19.3713 25.8654 15.688 27.2506 12.3405C28.6358 8.99291 30.9829 6.13145 33.9948 4.11818C37.0068 2.1049 40.5482 1.03027 44.171 1.03027C47.7939 1.03027 51.3353 2.1049 54.3472 4.11818C57.3592 6.13145 59.7062 8.99291 61.0915 12.3405C62.4767 15.688 62.8378 19.3713 62.1291 22.9241C61.4204 26.477 59.6738 29.7398 57.1103 32.2997C53.6729 35.7206 49.0206 37.641 44.171 37.641C39.3215 37.641 34.6692 35.7206 31.2318 32.2997Z" fill="white"/>
<defs>
<linearGradient id="paint0_linear" x1="44.5118" y1="19.2017" x2="4.56593" y2="57.0589" gradientUnits="userSpaceOnUse">
<stop stop-color="#2DFEEB"/>
<stop offset="1" stop-color="#47F274"/>
</linearGradient>
</defs>
</svg>
