<svg width="48" height="48" viewBox="0 0 48 48" fill="none" xmlns="http://www.w3.org/2000/svg">
<path d="M24.0001 47.9756C37.228 47.9756 47.9514 37.2522 47.9514 24.0243C47.9514 10.7964 37.228 0.0730591 24.0001 0.0730591C10.7722 0.0730591 0.0488281 10.7964 0.0488281 24.0243C0.0488281 37.2522 10.7722 47.9756 24.0001 47.9756Z" fill="url(#paint0_radial)"/>
<path d="M24.0001 47.9756C37.228 47.9756 47.9514 37.2522 47.9514 24.0243C47.9514 10.7964 37.228 0.0730591 24.0001 0.0730591C10.7722 0.0730591 0.0488281 10.7964 0.0488281 24.0243C0.0488281 37.2522 10.7722 47.9756 24.0001 47.9756Z" fill="url(#paint1_radial)"/>
<path d="M24.0001 47.9756C37.228 47.9756 47.9514 37.2522 47.9514 24.0243C47.9514 10.7964 37.228 0.0730591 24.0001 0.0730591C10.7722 0.0730591 0.0488281 10.7964 0.0488281 24.0243C0.0488281 37.2522 10.7722 47.9756 24.0001 47.9756Z" fill="url(#paint2_radial)"/>
<mask id="mask0" mask-type="alpha" maskUnits="userSpaceOnUse" x="0" y="0" width="48" height="48">
<path d="M24.0001 47.9756C37.228 47.9756 47.9514 37.2522 47.9514 24.0243C47.9514 10.7964 37.228 0.0730591 24.0001 0.0730591C10.7722 0.0730591 0.0488281 10.7964 0.0488281 24.0243C0.0488281 37.2522 10.7722 47.9756 24.0001 47.9756Z" fill="url(#paint3_radial)"/>
</mask>
<g mask="url(#mask0)">
<path d="M16.593 29.3848H13.9616C13.1819 29.3848 12.4753 29.0924 12.0123 28.6294L11.1595 33.5513C11.0864 33.868 10.7941 34.136 10.4773 34.136C10.1605 34.136 9.94126 33.868 10.0144 33.5513L12.1342 21.5391C12.4509 19.7604 14.1321 18.3228 15.9108 18.3228H18.5666C19.4194 18.3228 20.1748 18.664 20.6621 19.2731C21.1494 19.8822 21.3443 20.6863 21.1981 21.5635L20.3697 26.1685C20.0529 27.9472 18.3717 29.3848 16.593 29.3848ZM20.0286 21.5635C20.2235 20.4183 19.4438 19.4924 18.323 19.4924H15.6915C14.5463 19.4924 13.4743 20.4183 13.255 21.5635L12.4265 26.1685C12.2316 27.3137 12.9869 28.2396 14.1321 28.2396H16.7636C17.8844 28.2396 18.9809 27.3137 19.2001 26.1685L20.0286 21.5635Z" fill="url(#paint4_radial)"/>
<path d="M21.32 29.3848C21.0032 29.3848 20.8083 29.1411 20.857 28.8244C20.9301 28.5076 21.1982 28.264 21.5149 28.264H26.7048C27.8256 28.264 28.8733 27.3868 29.0682 26.266C29.2631 25.1695 28.5078 24.268 27.4114 24.268H24.5362C22.9037 24.268 21.7829 22.9279 22.0753 21.2954C22.3677 19.6629 23.9515 18.3228 25.5839 18.3228H30.4083C30.7251 18.3228 30.8956 18.5421 30.8713 18.8589C30.7982 19.1756 30.5545 19.4193 30.2378 19.4193H25.4134C24.3657 19.4193 23.3667 20.2721 23.1718 21.3198C22.9768 22.3432 23.7078 23.2203 24.7555 23.2203H27.6306C28.4591 23.2203 29.1657 23.5371 29.653 24.1218C30.1403 24.7066 30.3109 25.4863 30.1647 26.2904C29.8479 27.9959 28.2398 29.3848 26.5342 29.3848H21.32Z" fill="url(#paint5_radial)"/>
<path d="M33.6732 29.3847C31.8945 29.3847 30.6763 27.9228 30.993 26.1441L31.8214 21.5634C32.1382 19.7847 33.8438 18.3471 35.6225 18.3471H38.3027C40.0813 18.3471 41.2996 19.7847 40.9829 21.5634L40.5443 23.9268C40.4956 24.2436 40.2275 24.4872 39.9108 24.4872H32.3819L32.0651 26.1441C31.8702 27.3136 32.6499 28.2883 33.8438 28.2883H39.0336C39.326 28.2883 39.5209 28.5319 39.4722 28.8487C39.4235 29.1654 39.1555 29.3847 38.8631 29.3847H33.6732ZM35.4275 19.4192C34.2336 19.4192 33.1128 20.3938 32.8935 21.5634L32.5768 23.3664H39.5697L39.8864 21.5634C40.0813 20.3938 39.3017 19.4192 38.1077 19.4192H35.4275Z" fill="url(#paint6_radial)"/>
<path d="M-0.950072 20.8567H2.87531L4.77582 23.2933H-3.45972V24.0242H7.1149L5.7748 26.7044H3.11896V27.4354H6.18901L7.94333 24.0242H10.8672L11.0134 23.2933H5.87226L3.26516 20.1258H-1.04753L-0.950072 20.8567Z" fill="#FDB913"/>
<path d="M0.341272 18.201C0.960279 18.201 1.46208 17.6992 1.46208 17.0802C1.46208 16.4612 0.960279 15.9594 0.341272 15.9594C-0.277736 15.9594 -0.779541 16.4612 -0.779541 17.0802C-0.779541 17.6992 -0.277736 18.201 0.341272 18.201Z" fill="#FDB913"/>
<path d="M0.341269 31.2608C0.82571 31.2608 1.21843 30.8681 1.21843 30.3836C1.21843 29.8992 0.82571 29.5065 0.341269 29.5065C-0.143171 29.5065 -0.535889 29.8992 -0.535889 30.3836C-0.535889 30.8681 -0.143171 31.2608 0.341269 31.2608Z" fill="#FDB913"/>
<path d="M2.53414 14.9116C3.15315 14.9116 3.65495 14.4098 3.65495 13.7908C3.65495 13.1718 3.15315 12.67 2.53414 12.67C1.91513 12.67 1.41333 13.1718 1.41333 13.7908C1.41333 14.4098 1.91513 14.9116 2.53414 14.9116Z" fill="#FDB913"/>
<path d="M2.53414 28.3614C3.15315 28.3614 3.65495 27.8596 3.65495 27.2406C3.65495 26.6216 3.15315 26.1198 2.53414 26.1198C1.91513 26.1198 1.41333 26.6216 1.41333 27.2406C1.41333 27.8596 1.91513 28.3614 2.53414 28.3614Z" fill="#FDB913"/>
<path d="M2.53414 34.9401C3.15315 34.9401 3.65495 34.4383 3.65495 33.8193C3.65495 33.2003 3.15315 32.6985 2.53414 32.6985C1.91513 32.6985 1.41333 33.2003 1.41333 33.8193C1.41333 34.4383 1.91513 34.9401 2.53414 34.9401Z" fill="#FDB913"/>
<path d="M4.72701 18.201C5.34602 18.201 5.84782 17.6992 5.84782 17.0802C5.84782 16.4612 5.34602 15.9594 4.72701 15.9594C4.10801 15.9594 3.6062 16.4612 3.6062 17.0802C3.6062 17.6992 4.10801 18.201 4.72701 18.201Z" fill="#FDB913"/>
<path d="M4.72701 31.5044C5.34602 31.5044 5.84782 31.0026 5.84782 30.3836C5.84782 29.7646 5.34602 29.2628 4.72701 29.2628C4.10801 29.2628 3.6062 29.7646 3.6062 30.3836C3.6062 31.0026 4.10801 31.5044 4.72701 31.5044Z" fill="#FDB913"/>
<path d="M13.6936 17.1289C13.3525 17.1289 13.1088 16.8365 13.1576 16.4954C13.2307 16.1543 13.5474 15.8619 13.9129 15.8619H14.8144L14.8632 15.5939C14.9119 15.3746 14.7413 15.1797 14.522 15.1797H13.6449C13.5962 15.1797 13.5474 15.1309 13.5718 15.0822C13.5718 15.0335 13.6449 14.9847 13.6936 14.9847H14.5708C14.9119 14.9847 15.1555 15.2528 15.0825 15.6182L14.8388 17.0314C14.8388 17.0802 14.7901 17.1289 14.717 17.1289H13.6936ZM13.8642 16.0812C13.6205 16.0812 13.4012 16.2761 13.3769 16.4954C13.3281 16.7147 13.4987 16.9096 13.718 16.9096H14.6195L14.7657 16.0812H13.8642Z" fill="url(#paint7_radial)"/>
<path d="M16.7149 17.0315C16.7149 17.0802 16.6418 17.129 16.5931 17.129H15.6184C15.4479 17.129 15.3017 17.0559 15.2042 16.9341C15.1068 16.8122 15.058 16.666 15.1068 16.4955L15.2773 15.594C15.3017 15.4234 15.3992 15.2772 15.5453 15.1554C15.6915 15.0335 15.8621 14.9604 16.0083 14.9604H16.9829C17.0316 14.9604 17.0804 15.0092 17.0804 15.0579C17.0804 15.1066 17.0073 15.1554 16.9585 15.1554H16.0083C15.7646 15.1554 15.5453 15.3503 15.521 15.5696L15.3504 16.4711C15.3017 16.6904 15.4722 16.8853 15.6915 16.8853H16.6418C16.6905 16.9097 16.7149 16.9584 16.7149 17.0315Z" fill="url(#paint8_radial)"/>
<path d="M18.9079 15.6183L18.6642 17.0315C18.6642 17.0802 18.5911 17.1533 18.5424 17.1533C18.4937 17.1533 18.4449 17.1046 18.4449 17.0315L18.6886 15.6183C18.7373 15.399 18.5668 15.2041 18.3475 15.2041H17.8358C17.6165 15.2041 17.3972 15.3746 17.3729 15.6183L17.1292 17.0315C17.1292 17.0802 17.0561 17.1533 17.0074 17.1533C16.9586 17.1533 16.9099 17.1046 16.9099 17.0315L17.4216 14.1807C17.4216 14.132 17.4947 14.0589 17.5434 14.0589C17.5921 14.0589 17.6409 14.1076 17.6409 14.1807L17.4703 15.131C17.5921 15.0335 17.7383 14.9848 17.9089 14.9848H18.4206C18.7373 14.9848 18.9566 15.2528 18.9079 15.6183Z" fill="url(#paint9_radial)"/>
</g>
<defs>
<radialGradient id="paint0_radial" cx="0" cy="0" r="1" gradientUnits="userSpaceOnUse" gradientTransform="translate(24.4158 18.9438) scale(32.094)">
<stop stop-color="white"/>
<stop offset="0.448" stop-color="#FCFCFC"/>
<stop offset="0.6093" stop-color="#F5F5F5"/>
<stop offset="0.7243" stop-color="#EBEBEC"/>
<stop offset="0.8173" stop-color="#DCDEDF"/>
<stop offset="0.897" stop-color="#CACCCE"/>
<stop offset="0.9662" stop-color="#B4B6B8"/>
<stop offset="1" stop-color="#A7A9AC"/>
</radialGradient>
<radialGradient id="paint1_radial" cx="0" cy="0" r="1" gradientUnits="userSpaceOnUse" gradientTransform="translate(24.4158 18.9438) scale(32.094)">
<stop stop-color="white"/>
<stop offset="0.448" stop-color="#FCFCFC"/>
<stop offset="0.6093" stop-color="#F5F5F5"/>
<stop offset="0.7243" stop-color="#EBEBEC"/>
<stop offset="0.8173" stop-color="#DCDEDF"/>
<stop offset="0.897" stop-color="#CACCCE"/>
<stop offset="0.9662" stop-color="#B4B6B8"/>
<stop offset="1" stop-color="#A7A9AC"/>
</radialGradient>
<radialGradient id="paint2_radial" cx="0" cy="0" r="1" gradientUnits="userSpaceOnUse" gradientTransform="translate(24.4158 18.9438) scale(32.094)">
<stop stop-color="white"/>
<stop offset="0.448" stop-color="#FCFCFC"/>
<stop offset="0.6093" stop-color="#F5F5F5"/>
<stop offset="0.7243" stop-color="#EBEBEC"/>
<stop offset="0.8173" stop-color="#DCDEDF"/>
<stop offset="0.897" stop-color="#CACCCE"/>
<stop offset="0.9662" stop-color="#B4B6B8"/>
<stop offset="1" stop-color="#A7A9AC"/>
</radialGradient>
<radialGradient id="paint3_radial" cx="0" cy="0" r="1" gradientUnits="userSpaceOnUse" gradientTransform="translate(24.4158 18.9438) scale(32.094)">
<stop stop-color="white"/>
<stop offset="0.448" stop-color="#FCFCFC"/>
<stop offset="0.6093" stop-color="#F5F5F5"/>
<stop offset="0.7243" stop-color="#EBEBEC"/>
<stop offset="0.8173" stop-color="#DCDEDF"/>
<stop offset="0.897" stop-color="#CACCCE"/>
<stop offset="0.9662" stop-color="#B4B6B8"/>
<stop offset="1" stop-color="#A7A9AC"/>
</radialGradient>
<radialGradient id="paint4_radial" cx="0" cy="0" r="1" gradientUnits="userSpaceOnUse" gradientTransform="translate(15.6144 26.2279) scale(6.85518)">
<stop offset="0.00369665" stop-color="#2B5CAA"/>
<stop offset="1" stop-color="#2B5BA9"/>
</radialGradient>
<radialGradient id="paint5_radial" cx="0" cy="0" r="1" gradientUnits="userSpaceOnUse" gradientTransform="translate(25.8401 23.8545) scale(5.27469)">
<stop offset="0.00369665" stop-color="#2B5CAA"/>
<stop offset="1" stop-color="#2B5BA9"/>
</radialGradient>
<radialGradient id="paint6_radial" cx="0" cy="0" r="1" gradientUnits="userSpaceOnUse" gradientTransform="translate(35.9809 23.8545) scale(5.28997)">
<stop offset="0.00369665" stop-color="#2B5CAA"/>
<stop offset="1" stop-color="#2B5BA9"/>
</radialGradient>
<radialGradient id="paint7_radial" cx="0" cy="0" r="1" gradientUnits="userSpaceOnUse" gradientTransform="translate(14.1085 16.0557) scale(1.01948)">
<stop offset="0.00369665" stop-color="#2B5CAA"/>
<stop offset="1" stop-color="#2B5BA9"/>
</radialGradient>
<radialGradient id="paint8_radial" cx="0" cy="0" r="1" gradientUnits="userSpaceOnUse" gradientTransform="translate(16.0709 16.0597) scale(1.02978)">
<stop offset="0.00369665" stop-color="#2B5CAA"/>
<stop offset="1" stop-color="#2B5BA9"/>
</radialGradient>
<radialGradient id="paint9_radial" cx="0" cy="0" r="1" gradientUnits="userSpaceOnUse" gradientTransform="translate(17.9001 15.5936) scale(1.30246)">
<stop offset="0.00369665" stop-color="#2B5CAA"/>
<stop offset="1" stop-color="#2B5BA9"/>
</radialGradient>
</defs>
</svg>
