<svg width="266" height="32" viewBox="0 0 266 32" fill="none" xmlns="http://www.w3.org/2000/svg">
<path d="M160.697 10.5V1.372H163.833C164.337 1.372 164.808 1.42333 165.247 1.526C165.686 1.61933 166.068 1.78267 166.395 2.016C166.722 2.24 166.978 2.54333 167.165 2.926C167.361 3.29933 167.459 3.76133 167.459 4.312C167.459 4.844 167.361 5.306 167.165 5.698C166.978 6.09 166.722 6.412 166.395 6.664C166.068 6.916 165.69 7.10267 165.261 7.224C164.832 7.34533 164.374 7.406 163.889 7.406H162.755V10.5H160.697ZM162.755 5.768H163.763C164.883 5.768 165.443 5.28267 165.443 4.312C165.443 3.836 165.294 3.5 164.995 3.304C164.696 3.108 164.267 3.01 163.707 3.01H162.755V5.768ZM170.14 10.668C169.823 10.668 169.534 10.612 169.272 10.5C169.02 10.3973 168.806 10.2527 168.628 10.066C168.451 9.87 168.311 9.646 168.208 9.394C168.115 9.142 168.068 8.86667 168.068 8.568C168.068 7.84 168.376 7.27067 168.992 6.86C169.608 6.44933 170.602 6.174 171.974 6.034C171.956 5.726 171.862 5.48333 171.694 5.306C171.536 5.11933 171.265 5.026 170.882 5.026C170.584 5.026 170.285 5.082 169.986 5.194C169.697 5.306 169.384 5.46 169.048 5.656L168.306 4.298C168.754 4.02733 169.221 3.808 169.706 3.64C170.201 3.472 170.724 3.388 171.274 3.388C172.17 3.388 172.852 3.64467 173.318 4.158C173.794 4.662 174.032 5.45067 174.032 6.524V10.5H172.352L172.212 9.786H172.156C171.858 10.0473 171.545 10.262 171.218 10.43C170.892 10.5887 170.532 10.668 170.14 10.668ZM170.84 9.072C171.074 9.072 171.274 9.02067 171.442 8.918C171.61 8.81533 171.788 8.67067 171.974 8.484V7.266C171.246 7.36867 170.742 7.518 170.462 7.714C170.182 7.91 170.042 8.14333 170.042 8.414C170.042 8.638 170.112 8.806 170.252 8.918C170.402 9.02067 170.598 9.072 170.84 9.072ZM178.251 13.454C177.841 13.454 177.458 13.4167 177.103 13.342C176.758 13.2767 176.45 13.174 176.179 13.034C175.918 12.894 175.713 12.712 175.563 12.488C175.414 12.264 175.339 11.998 175.339 11.69C175.339 11.13 175.671 10.6633 176.333 10.29V10.234C176.147 10.1127 175.993 9.95867 175.871 9.772C175.75 9.58533 175.689 9.34733 175.689 9.058C175.689 8.806 175.764 8.568 175.913 8.344C176.063 8.11067 176.249 7.91467 176.473 7.756V7.7C176.231 7.532 176.011 7.294 175.815 6.986C175.629 6.66867 175.535 6.30467 175.535 5.894C175.535 5.474 175.615 5.11 175.773 4.802C175.932 4.48467 176.142 4.22333 176.403 4.018C176.674 3.80333 176.982 3.64467 177.327 3.542C177.673 3.43933 178.032 3.388 178.405 3.388C178.816 3.388 179.175 3.444 179.483 3.556H182.017V5.054H180.911C180.977 5.15667 181.028 5.28733 181.065 5.446C181.112 5.60467 181.135 5.77733 181.135 5.964C181.135 6.36533 181.065 6.71533 180.925 7.014C180.785 7.30333 180.589 7.546 180.337 7.742C180.095 7.92867 179.805 8.06867 179.469 8.162C179.143 8.25533 178.788 8.302 178.405 8.302C178.135 8.302 177.855 8.25533 177.565 8.162C177.472 8.23667 177.407 8.31133 177.369 8.386C177.332 8.46067 177.313 8.55867 177.313 8.68C177.313 8.85733 177.388 8.988 177.537 9.072C177.696 9.156 177.971 9.198 178.363 9.198H179.483C180.342 9.198 180.995 9.338 181.443 9.618C181.901 9.88867 182.129 10.3367 182.129 10.962C182.129 11.326 182.036 11.6573 181.849 11.956C181.672 12.264 181.415 12.5253 181.079 12.74C180.743 12.964 180.337 13.1367 179.861 13.258C179.385 13.3887 178.849 13.454 178.251 13.454ZM178.405 7.056C178.676 7.056 178.9 6.96267 179.077 6.776C179.264 6.58 179.357 6.286 179.357 5.894C179.357 5.53 179.264 5.25467 179.077 5.068C178.9 4.872 178.676 4.774 178.405 4.774C178.135 4.774 177.906 4.86733 177.719 5.054C177.542 5.24067 177.453 5.52067 177.453 5.894C177.453 6.286 177.542 6.58 177.719 6.776C177.906 6.96267 178.135 7.056 178.405 7.056ZM178.573 12.166C179.04 12.166 179.423 12.082 179.721 11.914C180.02 11.7553 180.169 11.5547 180.169 11.312C180.169 11.0973 180.076 10.9527 179.889 10.878C179.712 10.8033 179.451 10.766 179.105 10.766H178.391C178.149 10.766 177.953 10.7567 177.803 10.738C177.654 10.7287 177.523 10.71 177.411 10.682C177.159 10.906 177.033 11.1347 177.033 11.368C177.033 11.6293 177.173 11.8253 177.453 11.956C177.733 12.096 178.107 12.166 178.573 12.166ZM185.988 10.668C185.549 10.668 185.124 10.5887 184.714 10.43C184.303 10.262 183.939 10.024 183.622 9.716C183.314 9.408 183.066 9.03 182.88 8.582C182.693 8.12467 182.6 7.60667 182.6 7.028C182.6 6.44933 182.693 5.936 182.88 5.488C183.066 5.03067 183.314 4.648 183.622 4.34C183.939 4.032 184.303 3.79867 184.714 3.64C185.124 3.472 185.549 3.388 185.988 3.388C186.426 3.388 186.846 3.472 187.248 3.64C187.658 3.79867 188.018 4.032 188.326 4.34C188.643 4.648 188.895 5.03067 189.082 5.488C189.268 5.936 189.362 6.44933 189.362 7.028C189.362 7.60667 189.268 8.12467 189.082 8.582C188.895 9.03 188.643 9.408 188.326 9.716C188.018 10.024 187.658 10.262 187.248 10.43C186.846 10.5887 186.426 10.668 185.988 10.668ZM185.988 9.002C186.408 9.002 186.725 8.82467 186.94 8.47C187.154 8.11533 187.262 7.63467 187.262 7.028C187.262 6.42133 187.154 5.94067 186.94 5.586C186.725 5.23133 186.408 5.054 185.988 5.054C185.558 5.054 185.236 5.23133 185.022 5.586C184.816 5.94067 184.714 6.42133 184.714 7.028C184.714 7.63467 184.816 8.11533 185.022 8.47C185.236 8.82467 185.558 9.002 185.988 9.002ZM192.747 10.668C192.29 10.668 191.818 10.5793 191.333 10.402C190.857 10.2247 190.442 9.99133 190.087 9.702L191.011 8.414C191.328 8.65667 191.632 8.83867 191.921 8.96C192.21 9.08133 192.504 9.142 192.803 9.142C193.111 9.142 193.335 9.09067 193.475 8.988C193.615 8.88533 193.685 8.74067 193.685 8.554C193.685 8.442 193.643 8.344 193.559 8.26C193.484 8.16667 193.377 8.08267 193.237 8.008C193.106 7.93333 192.957 7.868 192.789 7.812C192.621 7.74667 192.448 7.67667 192.271 7.602C192.056 7.518 191.842 7.42 191.627 7.308C191.412 7.196 191.216 7.06067 191.039 6.902C190.862 6.734 190.717 6.54267 190.605 6.328C190.493 6.104 190.437 5.84733 190.437 5.558C190.437 5.24067 190.498 4.94667 190.619 4.676C190.75 4.40533 190.932 4.17667 191.165 3.99C191.398 3.80333 191.678 3.65867 192.005 3.556C192.332 3.444 192.696 3.388 193.097 3.388C193.629 3.388 194.096 3.48133 194.497 3.668C194.898 3.84533 195.248 4.046 195.547 4.27L194.623 5.502C194.371 5.31533 194.124 5.17067 193.881 5.068C193.638 4.96533 193.396 4.914 193.153 4.914C192.63 4.914 192.369 5.096 192.369 5.46C192.369 5.572 192.406 5.67 192.481 5.754C192.556 5.82867 192.654 5.89867 192.775 5.964C192.906 6.02933 193.05 6.09467 193.209 6.16C193.377 6.216 193.55 6.27667 193.727 6.342C193.951 6.426 194.17 6.524 194.385 6.636C194.609 6.73867 194.81 6.86933 194.987 7.028C195.174 7.18667 195.323 7.38267 195.435 7.616C195.547 7.84 195.603 8.11067 195.603 8.428C195.603 8.74533 195.542 9.03933 195.421 9.31C195.3 9.58067 195.118 9.81867 194.875 10.024C194.632 10.22 194.334 10.3787 193.979 10.5C193.624 10.612 193.214 10.668 192.747 10.668ZM199.881 10.5V1.372H203.017C203.521 1.372 203.992 1.42333 204.431 1.526C204.869 1.61933 205.252 1.78267 205.579 2.016C205.905 2.24 206.162 2.54333 206.349 2.926C206.545 3.29933 206.643 3.76133 206.643 4.312C206.643 4.844 206.545 5.306 206.349 5.698C206.162 6.09 205.905 6.412 205.579 6.664C205.252 6.916 204.874 7.10267 204.445 7.224C204.015 7.34533 203.558 7.406 203.073 7.406H201.939V10.5H199.881ZM201.939 5.768H202.947C204.067 5.768 204.627 5.28267 204.627 4.312C204.627 3.836 204.477 3.5 204.179 3.304C203.88 3.108 203.451 3.01 202.891 3.01H201.939V5.768ZM210.87 10.668C210.273 10.668 209.675 10.5607 209.078 10.346C208.49 10.122 207.963 9.79067 207.496 9.352L208.672 7.938C208.999 8.218 209.358 8.44667 209.75 8.624C210.151 8.80133 210.543 8.89 210.926 8.89C211.355 8.89 211.673 8.81067 211.878 8.652C212.093 8.49333 212.2 8.27867 212.2 8.008C212.2 7.868 212.167 7.74667 212.102 7.644C212.046 7.54133 211.957 7.45267 211.836 7.378C211.724 7.294 211.584 7.21933 211.416 7.154C211.257 7.07933 211.08 7 210.884 6.916L209.694 6.412C209.461 6.31867 209.232 6.19733 209.008 6.048C208.793 5.89867 208.597 5.726 208.42 5.53C208.252 5.32467 208.117 5.09133 208.014 4.83C207.911 4.55933 207.86 4.256 207.86 3.92C207.86 3.54667 207.939 3.19667 208.098 2.87C208.257 2.534 208.481 2.24467 208.77 2.002C209.059 1.75 209.4 1.554 209.792 1.414C210.193 1.274 210.632 1.204 211.108 1.204C211.64 1.204 212.163 1.30667 212.676 1.512C213.199 1.71733 213.656 2.016 214.048 2.408L212.998 3.71C212.699 3.47667 212.401 3.29933 212.102 3.178C211.803 3.04733 211.472 2.982 211.108 2.982C210.753 2.982 210.469 3.05667 210.254 3.206C210.049 3.346 209.946 3.54667 209.946 3.808C209.946 3.948 209.979 4.06933 210.044 4.172C210.119 4.26533 210.217 4.354 210.338 4.438C210.469 4.51267 210.618 4.58733 210.786 4.662C210.954 4.72733 211.136 4.802 211.332 4.886L212.508 5.362C213.068 5.586 213.507 5.894 213.824 6.286C214.151 6.678 214.314 7.196 214.314 7.84C214.314 8.22267 214.235 8.58667 214.076 8.932C213.927 9.268 213.703 9.56667 213.404 9.828C213.115 10.08 212.755 10.2853 212.326 10.444C211.897 10.5933 211.411 10.668 210.87 10.668ZM215.863 10.5V1.372H221.575V3.108H217.921V4.942H221.029V6.664H217.921V8.764H221.715V10.5H215.863ZM228.646 10.668C228.216 10.668 227.824 10.584 227.47 10.416C227.124 10.248 226.826 10.01 226.574 9.702C226.331 9.38467 226.14 9.002 226 8.554C225.869 8.106 225.804 7.59733 225.804 7.028C225.804 6.45867 225.883 5.95 226.042 5.502C226.21 5.054 226.424 4.676 226.686 4.368C226.956 4.05067 227.264 3.808 227.61 3.64C227.964 3.472 228.324 3.388 228.688 3.388C229.08 3.388 229.402 3.45333 229.654 3.584C229.906 3.71467 230.153 3.892 230.396 4.116L230.312 3.052V0.686H232.37V10.5H230.69L230.55 9.814H230.494C230.251 10.0567 229.966 10.262 229.64 10.43C229.313 10.5887 228.982 10.668 228.646 10.668ZM229.178 8.988C229.402 8.988 229.602 8.94133 229.78 8.848C229.966 8.75467 230.144 8.59133 230.312 8.358V5.516C230.125 5.348 229.934 5.23133 229.738 5.166C229.542 5.10067 229.35 5.068 229.164 5.068C228.837 5.068 228.548 5.22667 228.296 5.544C228.044 5.852 227.918 6.33733 227.918 7C227.918 7.69067 228.025 8.19467 228.24 8.512C228.464 8.82933 228.776 8.988 229.178 8.988ZM237.301 10.668C236.807 10.668 236.345 10.5887 235.915 10.43C235.486 10.262 235.113 10.024 234.795 9.716C234.478 9.39867 234.231 9.016 234.053 8.568C233.876 8.12 233.787 7.60667 233.787 7.028C233.787 6.468 233.881 5.964 234.067 5.516C234.254 5.05867 234.497 4.676 234.795 4.368C235.103 4.05067 235.453 3.808 235.845 3.64C236.237 3.472 236.643 3.388 237.063 3.388C237.558 3.388 237.987 3.472 238.351 3.64C238.725 3.808 239.033 4.04133 239.275 4.34C239.527 4.63867 239.714 4.99333 239.835 5.404C239.957 5.80533 240.017 6.244 240.017 6.72C240.017 6.90667 240.008 7.084 239.989 7.252C239.971 7.42 239.952 7.546 239.933 7.63H235.775C235.869 8.134 236.074 8.50733 236.391 8.75C236.718 8.98333 237.115 9.1 237.581 9.1C238.076 9.1 238.575 8.946 239.079 8.638L239.765 9.884C239.411 10.1267 239.014 10.318 238.575 10.458C238.146 10.598 237.721 10.668 237.301 10.668ZM235.761 6.272H238.267C238.267 5.88 238.179 5.56267 238.001 5.32C237.824 5.07733 237.525 4.956 237.105 4.956C236.779 4.956 236.489 5.06333 236.237 5.278C235.995 5.49267 235.836 5.824 235.761 6.272ZM244.41 10.5V1.372H246.468V10.5H244.41ZM248.453 10.5V3.556H250.133L250.273 4.774H250.329C250.581 4.298 250.884 3.948 251.239 3.724C251.594 3.5 251.948 3.388 252.303 3.388C252.499 3.388 252.658 3.402 252.779 3.43C252.91 3.44867 253.026 3.48133 253.129 3.528L252.793 5.306C252.662 5.26867 252.541 5.24067 252.429 5.222C252.317 5.20333 252.186 5.194 252.037 5.194C251.776 5.194 251.5 5.28733 251.211 5.474C250.931 5.66067 250.698 5.992 250.511 6.468V10.5H248.453ZM254.031 10.5V3.556H256.089V10.5H254.031ZM255.053 2.534C254.708 2.534 254.423 2.436 254.199 2.24C253.975 2.03467 253.863 1.77333 253.863 1.456C253.863 1.13867 253.975 0.882 254.199 0.686C254.423 0.489999 254.708 0.391999 255.053 0.391999C255.408 0.391999 255.692 0.489999 255.907 0.686C256.131 0.882 256.243 1.13867 256.243 1.456C256.243 1.77333 256.131 2.03467 255.907 2.24C255.692 2.436 255.408 2.534 255.053 2.534ZM259.944 10.668C259.487 10.668 259.016 10.5793 258.53 10.402C258.054 10.2247 257.639 9.99133 257.284 9.702L258.208 8.414C258.526 8.65667 258.829 8.83867 259.118 8.96C259.408 9.08133 259.702 9.142 260 9.142C260.308 9.142 260.532 9.09067 260.672 8.988C260.812 8.88533 260.882 8.74067 260.882 8.554C260.882 8.442 260.84 8.344 260.756 8.26C260.682 8.16667 260.574 8.08267 260.434 8.008C260.304 7.93333 260.154 7.868 259.986 7.812C259.818 7.74667 259.646 7.67667 259.468 7.602C259.254 7.518 259.039 7.42 258.824 7.308C258.61 7.196 258.414 7.06067 258.236 6.902C258.059 6.734 257.914 6.54267 257.802 6.328C257.69 6.104 257.634 5.84733 257.634 5.558C257.634 5.24067 257.695 4.94667 257.816 4.676C257.947 4.40533 258.129 4.17667 258.362 3.99C258.596 3.80333 258.876 3.65867 259.202 3.556C259.529 3.444 259.893 3.388 260.294 3.388C260.826 3.388 261.293 3.48133 261.694 3.668C262.096 3.84533 262.446 4.046 262.744 4.27L261.82 5.502C261.568 5.31533 261.321 5.17067 261.078 5.068C260.836 4.96533 260.593 4.914 260.35 4.914C259.828 4.914 259.566 5.096 259.566 5.46C259.566 5.572 259.604 5.67 259.678 5.754C259.753 5.82867 259.851 5.89867 259.972 5.964C260.103 6.02933 260.248 6.09467 260.406 6.16C260.574 6.216 260.747 6.27667 260.924 6.342C261.148 6.426 261.368 6.524 261.582 6.636C261.806 6.73867 262.007 6.86933 262.184 7.028C262.371 7.18667 262.52 7.38267 262.632 7.616C262.744 7.84 262.8 8.11067 262.8 8.428C262.8 8.74533 262.74 9.03933 262.618 9.31C262.497 9.58067 262.315 9.81867 262.072 10.024C261.83 10.22 261.531 10.3787 261.176 10.5C260.822 10.612 260.411 10.668 259.944 10.668ZM0.574109 28.5V19.344H3.50011C3.97611 19.344 4.41011 19.386 4.80211 19.47C5.20344 19.5447 5.54878 19.6707 5.83811 19.848C6.13678 20.016 6.36544 20.2447 6.52411 20.534C6.69211 20.8233 6.77611 21.178 6.77611 21.598C6.77611 22.0367 6.66411 22.4427 6.44011 22.816C6.21611 23.1893 5.90344 23.446 5.50211 23.586V23.642C6.00611 23.754 6.42144 23.992 6.74811 24.356C7.08411 24.7107 7.25211 25.196 7.25211 25.812C7.25211 26.2693 7.16344 26.666 6.98611 27.002C6.80878 27.338 6.56144 27.618 6.24411 27.842C5.93611 28.066 5.56744 28.234 5.13811 28.346C4.70878 28.4487 4.24211 28.5 3.73811 28.5H0.574109ZM2.19811 23.124H3.36011C4.00411 23.124 4.46611 23.0073 4.74611 22.774C5.03544 22.5407 5.18011 22.228 5.18011 21.836C5.18011 21.388 5.03078 21.0707 4.73211 20.884C4.43344 20.6973 3.98544 20.604 3.38811 20.604H2.19811V23.124ZM2.19811 27.24H3.57011C4.24211 27.24 4.76011 27.1187 5.12411 26.876C5.48811 26.624 5.67011 26.2413 5.67011 25.728C5.67011 25.2427 5.49278 24.8927 5.13811 24.678C4.78344 24.454 4.26078 24.342 3.57011 24.342H2.19811V27.24ZM9.03088 31.328C8.84421 31.328 8.68088 31.314 8.54088 31.286C8.40088 31.2673 8.26554 31.2347 8.13488 31.188L8.42888 29.928C8.49421 29.9467 8.56888 29.9653 8.65288 29.984C8.74621 30.012 8.83488 30.026 8.91888 30.026C9.28288 30.026 9.57221 29.914 9.78688 29.69C10.0109 29.4753 10.1789 29.1953 10.2909 28.85L10.4169 28.416L7.71488 21.626H9.35288L10.5429 25C10.6455 25.2987 10.7435 25.616 10.8369 25.952C10.9395 26.2787 11.0422 26.6053 11.1449 26.932H11.2009C11.2849 26.6147 11.3689 26.2927 11.4529 25.966C11.5462 25.63 11.6349 25.308 11.7189 25L12.7549 21.626H14.3089L11.8169 28.808C11.6769 29.2 11.5229 29.55 11.3549 29.858C11.1869 30.166 10.9909 30.4273 10.7669 30.642C10.5522 30.866 10.3002 31.034 10.0109 31.146C9.73088 31.2673 9.40421 31.328 9.03088 31.328ZM18.4433 28.5V19.344H20.0673V28.5H18.4433ZM22.2544 28.5V21.626H23.5844L23.6964 22.844H23.7524C23.9951 22.396 24.2891 22.0553 24.6344 21.822C24.9798 21.5793 25.3344 21.458 25.6984 21.458C26.0251 21.458 26.2864 21.5047 26.4824 21.598L26.2024 22.998C26.0811 22.9607 25.9691 22.9327 25.8664 22.914C25.7638 22.8953 25.6378 22.886 25.4884 22.886C25.2178 22.886 24.9331 22.9933 24.6344 23.208C24.3358 23.4133 24.0791 23.7773 23.8644 24.3V28.5H22.2544ZM27.4771 28.5V21.626H29.0871V28.5H27.4771ZM28.2891 20.422C27.9997 20.422 27.7617 20.338 27.5751 20.17C27.3884 20.002 27.2951 19.7827 27.2951 19.512C27.2951 19.2413 27.3884 19.022 27.5751 18.854C27.7617 18.6767 27.9997 18.588 28.2891 18.588C28.5784 18.588 28.8164 18.6767 29.0031 18.854C29.1897 19.022 29.2831 19.2413 29.2831 19.512C29.2831 19.7827 29.1897 20.002 29.0031 20.17C28.8164 20.338 28.5784 20.422 28.2891 20.422ZM33.0591 28.668C32.5831 28.668 32.1118 28.5793 31.6451 28.402C31.1878 28.2153 30.7911 27.9867 30.4551 27.716L31.2111 26.68C31.5191 26.9227 31.8225 27.114 32.1211 27.254C32.4291 27.3847 32.7605 27.45 33.1151 27.45C33.4885 27.45 33.7638 27.3753 33.9411 27.226C34.1185 27.0673 34.2071 26.8667 34.2071 26.624C34.2071 26.484 34.1651 26.3627 34.0811 26.26C33.9971 26.148 33.8851 26.05 33.7451 25.966C33.6051 25.882 33.4465 25.8073 33.2691 25.742C33.0918 25.6673 32.9145 25.5927 32.7371 25.518C32.5131 25.434 32.2845 25.336 32.0511 25.224C31.8178 25.112 31.6078 24.9767 31.4211 24.818C31.2438 24.6593 31.0945 24.4773 30.9731 24.272C30.8611 24.0573 30.8051 23.8053 30.8051 23.516C30.8051 22.9093 31.0291 22.4147 31.4771 22.032C31.9251 21.6493 32.5365 21.458 33.3111 21.458C33.7871 21.458 34.2165 21.542 34.5991 21.71C34.9818 21.878 35.3131 22.0693 35.5931 22.284L34.8511 23.264C34.6085 23.0867 34.3611 22.9467 34.1091 22.844C33.8665 22.732 33.6098 22.676 33.3391 22.676C32.9938 22.676 32.7371 22.7507 32.5691 22.9C32.4105 23.04 32.3311 23.2173 32.3311 23.432C32.3311 23.572 32.3685 23.6933 32.4431 23.796C32.5271 23.8893 32.6345 23.9733 32.7651 24.048C32.8958 24.1227 33.0451 24.1927 33.2131 24.258C33.3905 24.3233 33.5725 24.3887 33.7591 24.454C33.9925 24.538 34.2258 24.636 34.4591 24.748C34.6925 24.8507 34.9025 24.9813 35.0891 25.14C35.2851 25.2987 35.4391 25.4947 35.5511 25.728C35.6725 25.952 35.7331 26.2227 35.7331 26.54C35.7331 26.8387 35.6725 27.1187 35.5511 27.38C35.4391 27.632 35.2711 27.856 35.0471 28.052C34.8231 28.2387 34.5431 28.388 34.2071 28.5C33.8711 28.612 33.4885 28.668 33.0591 28.668ZM43.7672 28.668C43.1885 28.668 42.6472 28.5653 42.1432 28.36C41.6392 28.1547 41.2005 27.8513 40.8272 27.45C40.4632 27.0487 40.1738 26.554 39.9592 25.966C39.7445 25.378 39.6372 24.706 39.6372 23.95C39.6372 23.2033 39.7445 22.536 39.9592 21.948C40.1832 21.3507 40.4818 20.8467 40.8552 20.436C41.2378 20.0253 41.6812 19.7127 42.1852 19.498C42.6985 19.2833 43.2445 19.176 43.8232 19.176C44.4018 19.176 44.9152 19.2927 45.3632 19.526C45.8112 19.7593 46.1798 20.03 46.4692 20.338L45.6012 21.388C45.3585 21.1453 45.0972 20.954 44.8172 20.814C44.5372 20.6647 44.2198 20.59 43.8652 20.59C43.4918 20.59 43.1465 20.6693 42.8292 20.828C42.5212 20.9773 42.2505 21.1967 42.0172 21.486C41.7932 21.766 41.6158 22.1113 41.4852 22.522C41.3638 22.9327 41.3032 23.3947 41.3032 23.908C41.3032 24.9533 41.5272 25.7747 41.9752 26.372C42.4325 26.96 43.0485 27.254 43.8232 27.254C44.2338 27.254 44.5978 27.17 44.9152 27.002C45.2325 26.8247 45.5218 26.596 45.7832 26.316L46.6512 27.338C46.2778 27.7673 45.8485 28.0987 45.3632 28.332C44.8872 28.556 44.3552 28.668 43.7672 28.668ZM48.1796 28.5V19.344H53.7096V20.716H49.8036V23.306H53.1356V24.678H49.8036V28.5H48.1796ZM57.545 25.56V24.384H60.877V25.56H57.545ZM69.0875 28.668C68.5088 28.668 67.9675 28.5653 67.4635 28.36C66.9595 28.1547 66.5208 27.8513 66.1475 27.45C65.7835 27.0487 65.4942 26.554 65.2795 25.966C65.0648 25.378 64.9575 24.706 64.9575 23.95C64.9575 23.2033 65.0648 22.536 65.2795 21.948C65.5035 21.3507 65.8022 20.8467 66.1755 20.436C66.5582 20.0253 67.0015 19.7127 67.5055 19.498C68.0188 19.2833 68.5648 19.176 69.1435 19.176C69.7222 19.176 70.2355 19.2927 70.6835 19.526C71.1315 19.7593 71.5002 20.03 71.7895 20.338L70.9215 21.388C70.6788 21.1453 70.4175 20.954 70.1375 20.814C69.8575 20.6647 69.5402 20.59 69.1855 20.59C68.8122 20.59 68.4668 20.6693 68.1495 20.828C67.8415 20.9773 67.5708 21.1967 67.3375 21.486C67.1135 21.766 66.9362 22.1113 66.8055 22.522C66.6842 22.9327 66.6235 23.3947 66.6235 23.908C66.6235 24.9533 66.8475 25.7747 67.2955 26.372C67.7528 26.96 68.3688 27.254 69.1435 27.254C69.5542 27.254 69.9182 27.17 70.2355 27.002C70.5528 26.8247 70.8422 26.596 71.1035 26.316L71.9715 27.338C71.5982 27.7673 71.1688 28.0987 70.6835 28.332C70.2075 28.556 69.6755 28.668 69.0875 28.668ZM76.1739 28.668C75.7446 28.668 75.3339 28.5887 74.9419 28.43C74.5499 28.2713 74.1999 28.038 73.8919 27.73C73.5932 27.422 73.3552 27.044 73.1779 26.596C73.0006 26.148 72.9119 25.6393 72.9119 25.07C72.9119 24.5007 73.0006 23.992 73.1779 23.544C73.3552 23.096 73.5932 22.718 73.8919 22.41C74.1999 22.102 74.5499 21.8687 74.9419 21.71C75.3339 21.542 75.7446 21.458 76.1739 21.458C76.6032 21.458 77.0139 21.542 77.4059 21.71C77.8072 21.8687 78.1572 22.102 78.4559 22.41C78.7546 22.718 78.9926 23.096 79.1699 23.544C79.3566 23.992 79.4499 24.5007 79.4499 25.07C79.4499 25.6393 79.3566 26.148 79.1699 26.596C78.9926 27.044 78.7546 27.422 78.4559 27.73C78.1572 28.038 77.8072 28.2713 77.4059 28.43C77.0139 28.5887 76.6032 28.668 76.1739 28.668ZM76.1739 27.352C76.6779 27.352 77.0746 27.1467 77.3639 26.736C77.6532 26.316 77.7979 25.7607 77.7979 25.07C77.7979 24.37 77.6532 23.8147 77.3639 23.404C77.0746 22.984 76.6779 22.774 76.1739 22.774C75.6699 22.774 75.2732 22.984 74.9839 23.404C74.7039 23.8147 74.5639 24.37 74.5639 25.07C74.5639 25.7607 74.7039 26.316 74.9839 26.736C75.2732 27.1467 75.6699 27.352 76.1739 27.352ZM81.0435 28.5V21.626H82.3735L82.4855 22.564H82.5415C82.8308 22.256 83.1435 21.9947 83.4795 21.78C83.8248 21.5653 84.2122 21.458 84.6415 21.458C85.1455 21.458 85.5468 21.5653 85.8455 21.78C86.1535 21.9947 86.3868 22.298 86.5455 22.69C86.8722 22.3353 87.2128 22.0413 87.5675 21.808C87.9222 21.5747 88.3188 21.458 88.7575 21.458C89.4855 21.458 90.0222 21.696 90.3675 22.172C90.7128 22.6387 90.8855 23.3107 90.8855 24.188V28.5H89.2615V24.398C89.2615 23.8287 89.1728 23.4273 88.9955 23.194C88.8275 22.9607 88.5662 22.844 88.2115 22.844C87.7822 22.844 87.3015 23.1287 86.7695 23.698V28.5H85.1595V24.398C85.1595 23.8287 85.0708 23.4273 84.8935 23.194C84.7255 22.9607 84.4595 22.844 84.0955 22.844C83.6662 22.844 83.1855 23.1287 82.6535 23.698V28.5H81.0435ZM92.8423 31.216V21.626H94.1723L94.2843 22.354H94.3403C94.6296 22.1113 94.9516 21.9013 95.3063 21.724C95.661 21.5467 96.0296 21.458 96.4123 21.458C96.8416 21.458 97.2196 21.542 97.5463 21.71C97.8823 21.8687 98.167 22.102 98.4003 22.41C98.6336 22.718 98.811 23.0867 98.9323 23.516C99.0536 23.9453 99.1143 24.426 99.1143 24.958C99.1143 25.546 99.0303 26.0733 98.8623 26.54C98.7036 26.9973 98.489 27.3847 98.2183 27.702C97.9476 28.01 97.635 28.248 97.2803 28.416C96.9256 28.584 96.557 28.668 96.1743 28.668C95.8756 28.668 95.577 28.6027 95.2783 28.472C94.9796 28.3413 94.6903 28.1547 94.4103 27.912L94.4523 29.06V31.216H92.8423ZM95.8383 27.338C96.2956 27.338 96.6783 27.142 96.9863 26.75C97.2943 26.3487 97.4483 25.756 97.4483 24.972C97.4483 24.2813 97.3316 23.7447 97.0983 23.362C96.865 22.9793 96.487 22.788 95.9643 22.788C95.479 22.788 94.975 23.0447 94.4523 23.558V26.764C94.7043 26.9787 94.947 27.128 95.1803 27.212C95.4136 27.296 95.633 27.338 95.8383 27.338ZM102.247 28.668C101.64 28.668 101.15 28.486 100.777 28.122C100.403 27.7487 100.217 27.2587 100.217 26.652C100.217 26.288 100.291 25.966 100.441 25.686C100.599 25.3967 100.842 25.1493 101.169 24.944C101.505 24.7387 101.925 24.566 102.429 24.426C102.942 24.286 103.553 24.1787 104.263 24.104C104.253 23.9267 104.225 23.7587 104.179 23.6C104.141 23.432 104.071 23.2873 103.969 23.166C103.875 23.0353 103.749 22.9373 103.591 22.872C103.432 22.7973 103.236 22.76 103.003 22.76C102.667 22.76 102.335 22.8253 102.009 22.956C101.691 23.0867 101.379 23.2453 101.071 23.432L100.483 22.354C100.865 22.1113 101.295 21.9013 101.771 21.724C102.247 21.5467 102.76 21.458 103.311 21.458C104.169 21.458 104.809 21.7147 105.229 22.228C105.658 22.732 105.873 23.4647 105.873 24.426V28.5H104.543L104.431 27.744H104.375C104.067 28.0053 103.735 28.2247 103.381 28.402C103.035 28.5793 102.657 28.668 102.247 28.668ZM102.765 27.408C103.045 27.408 103.297 27.3427 103.521 27.212C103.754 27.0813 104.001 26.8947 104.263 26.652V25.112C103.796 25.168 103.404 25.2427 103.087 25.336C102.769 25.4293 102.513 25.5367 102.317 25.658C102.121 25.77 101.981 25.9007 101.897 26.05C101.813 26.1993 101.771 26.358 101.771 26.526C101.771 26.834 101.864 27.058 102.051 27.198C102.237 27.338 102.475 27.408 102.765 27.408ZM107.799 28.5V21.626H109.129L109.241 22.55H109.297C109.605 22.2513 109.937 21.9947 110.291 21.78C110.655 21.5653 111.075 21.458 111.551 21.458C112.289 21.458 112.825 21.696 113.161 22.172C113.497 22.6387 113.665 23.3107 113.665 24.188V28.5H112.055V24.398C112.055 23.8287 111.971 23.4273 111.803 23.194C111.635 22.9607 111.36 22.844 110.977 22.844C110.679 22.844 110.413 22.9187 110.179 23.068C109.955 23.208 109.699 23.418 109.409 23.698V28.5H107.799ZM111.943 20.45C111.71 20.45 111.505 20.3987 111.327 20.296C111.15 20.184 110.987 20.0627 110.837 19.932C110.697 19.8013 110.562 19.6847 110.431 19.582C110.31 19.47 110.179 19.414 110.039 19.414C109.713 19.414 109.521 19.7267 109.465 20.352L108.429 20.296C108.448 19.652 108.588 19.1573 108.849 18.812C109.111 18.4573 109.498 18.28 110.011 18.28C110.245 18.28 110.45 18.336 110.627 18.448C110.805 18.5507 110.963 18.6673 111.103 18.798C111.253 18.9287 111.393 19.05 111.523 19.162C111.654 19.2647 111.789 19.316 111.929 19.316C112.097 19.316 112.223 19.2367 112.307 19.078C112.401 18.91 112.461 18.6767 112.489 18.378L113.525 18.434C113.507 19.0687 113.367 19.5633 113.105 19.918C112.844 20.2727 112.457 20.45 111.943 20.45ZM115.633 28.5V21.626H117.243V28.5H115.633ZM116.417 20.478L115.619 19.68L117.677 17.244L118.797 18.308L116.417 20.478ZM120.963 28.668C120.357 28.668 119.867 28.486 119.493 28.122C119.12 27.7487 118.933 27.2587 118.933 26.652C118.933 26.288 119.008 25.966 119.157 25.686C119.316 25.3967 119.559 25.1493 119.885 24.944C120.221 24.7387 120.641 24.566 121.145 24.426C121.659 24.286 122.27 24.1787 122.979 24.104C122.97 23.9267 122.942 23.7587 122.895 23.6C122.858 23.432 122.788 23.2873 122.685 23.166C122.592 23.0353 122.466 22.9373 122.307 22.872C122.149 22.7973 121.953 22.76 121.719 22.76C121.383 22.76 121.052 22.8253 120.725 22.956C120.408 23.0867 120.095 23.2453 119.787 23.432L119.199 22.354C119.582 22.1113 120.011 21.9013 120.487 21.724C120.963 21.5467 121.477 21.458 122.027 21.458C122.886 21.458 123.525 21.7147 123.945 22.228C124.375 22.732 124.589 23.4647 124.589 24.426V28.5H123.259L123.147 27.744H123.091C122.783 28.0053 122.452 28.2247 122.097 28.402C121.752 28.5793 121.374 28.668 120.963 28.668ZM121.481 27.408C121.761 27.408 122.013 27.3427 122.237 27.212C122.471 27.0813 122.718 26.8947 122.979 26.652V25.112C122.513 25.168 122.121 25.2427 121.803 25.336C121.486 25.4293 121.229 25.5367 121.033 25.658C120.837 25.77 120.697 25.9007 120.613 26.05C120.529 26.1993 120.487 26.358 120.487 26.526C120.487 26.834 120.581 27.058 120.767 27.198C120.954 27.338 121.192 27.408 121.481 27.408ZM131.727 28.668C130.859 28.668 130.168 28.3553 129.655 27.73C129.151 27.0953 128.899 26.2087 128.899 25.07C128.899 24.51 128.978 24.006 129.137 23.558C129.305 23.11 129.524 22.732 129.795 22.424C130.066 22.116 130.374 21.878 130.719 21.71C131.074 21.542 131.438 21.458 131.811 21.458C132.203 21.458 132.534 21.528 132.805 21.668C133.076 21.7987 133.346 21.9807 133.617 22.214L133.561 21.108V18.616H135.171V28.5H133.841L133.729 27.758H133.673C133.421 28.01 133.127 28.2247 132.791 28.402C132.455 28.5793 132.1 28.668 131.727 28.668ZM132.119 27.338C132.632 27.338 133.113 27.0813 133.561 26.568V23.362C133.318 23.1473 133.08 22.998 132.847 22.914C132.623 22.83 132.394 22.788 132.161 22.788C131.713 22.788 131.335 22.984 131.027 23.376C130.719 23.768 130.565 24.328 130.565 25.056C130.565 25.8027 130.696 26.372 130.957 26.764C131.228 27.1467 131.615 27.338 132.119 27.338ZM140.161 28.668C139.685 28.668 139.242 28.5887 138.831 28.43C138.421 28.262 138.061 28.024 137.753 27.716C137.445 27.408 137.203 27.0347 137.025 26.596C136.857 26.148 136.773 25.6393 136.773 25.07C136.773 24.51 136.862 24.006 137.039 23.558C137.217 23.11 137.45 22.732 137.739 22.424C138.038 22.116 138.379 21.878 138.761 21.71C139.144 21.542 139.536 21.458 139.937 21.458C140.404 21.458 140.815 21.5373 141.169 21.696C141.524 21.8547 141.818 22.0787 142.051 22.368C142.294 22.6573 142.476 23.0027 142.597 23.404C142.719 23.8053 142.779 24.244 142.779 24.72C142.779 24.8787 142.77 25.028 142.751 25.168C142.742 25.308 142.728 25.42 142.709 25.504H138.341C138.416 26.12 138.631 26.596 138.985 26.932C139.349 27.2587 139.811 27.422 140.371 27.422C140.67 27.422 140.945 27.38 141.197 27.296C141.459 27.2027 141.715 27.0767 141.967 26.918L142.513 27.926C142.187 28.1407 141.823 28.318 141.421 28.458C141.02 28.598 140.6 28.668 140.161 28.668ZM138.327 24.412H141.379C141.379 23.88 141.263 23.4647 141.029 23.166C140.805 22.858 140.455 22.704 139.979 22.704C139.569 22.704 139.209 22.8487 138.901 23.138C138.593 23.4273 138.402 23.852 138.327 24.412ZM147.26 28.5V19.344H152.79V20.716H148.884V23.306H152.216V24.678H148.884V28.5H147.26ZM154.256 28.5V21.626H155.866V28.5H154.256ZM155.068 20.422C154.779 20.422 154.541 20.338 154.354 20.17C154.168 20.002 154.074 19.7827 154.074 19.512C154.074 19.2413 154.168 19.022 154.354 18.854C154.541 18.6767 154.779 18.588 155.068 18.588C155.358 18.588 155.596 18.6767 155.782 18.854C155.969 19.022 156.062 19.2413 156.062 19.512C156.062 19.7827 155.969 20.002 155.782 20.17C155.596 20.338 155.358 20.422 155.068 20.422ZM157.92 28.5V21.626H159.25L159.362 22.55H159.418C159.726 22.2513 160.058 21.9947 160.412 21.78C160.776 21.5653 161.196 21.458 161.672 21.458C162.41 21.458 162.946 21.696 163.282 22.172C163.618 22.6387 163.786 23.3107 163.786 24.188V28.5H162.176V24.398C162.176 23.8287 162.092 23.4273 161.924 23.194C161.756 22.9607 161.481 22.844 161.098 22.844C160.8 22.844 160.534 22.9187 160.3 23.068C160.076 23.208 159.82 23.418 159.53 23.698V28.5H157.92ZM167.42 28.668C166.814 28.668 166.324 28.486 165.95 28.122C165.577 27.7487 165.39 27.2587 165.39 26.652C165.39 26.288 165.465 25.966 165.614 25.686C165.773 25.3967 166.016 25.1493 166.342 24.944C166.678 24.7387 167.098 24.566 167.602 24.426C168.116 24.286 168.727 24.1787 169.436 24.104C169.427 23.9267 169.399 23.7587 169.352 23.6C169.315 23.432 169.245 23.2873 169.142 23.166C169.049 23.0353 168.923 22.9373 168.764 22.872C168.606 22.7973 168.41 22.76 168.176 22.76C167.84 22.76 167.509 22.8253 167.182 22.956C166.865 23.0867 166.552 23.2453 166.244 23.432L165.656 22.354C166.039 22.1113 166.468 21.9013 166.944 21.724C167.42 21.5467 167.934 21.458 168.484 21.458C169.343 21.458 169.982 21.7147 170.402 22.228C170.832 22.732 171.046 23.4647 171.046 24.426V28.5H169.716L169.604 27.744H169.548C169.24 28.0053 168.909 28.2247 168.554 28.402C168.209 28.5793 167.831 28.668 167.42 28.668ZM167.938 27.408C168.218 27.408 168.47 27.3427 168.694 27.212C168.928 27.0813 169.175 26.8947 169.436 26.652V25.112C168.97 25.168 168.578 25.2427 168.26 25.336C167.943 25.4293 167.686 25.5367 167.49 25.658C167.294 25.77 167.154 25.9007 167.07 26.05C166.986 26.1993 166.944 26.358 166.944 26.526C166.944 26.834 167.038 27.058 167.224 27.198C167.411 27.338 167.649 27.408 167.938 27.408ZM172.973 28.5V21.626H174.303L174.415 22.55H174.471C174.779 22.2513 175.111 21.9947 175.465 21.78C175.829 21.5653 176.249 21.458 176.725 21.458C177.463 21.458 177.999 21.696 178.335 22.172C178.671 22.6387 178.839 23.3107 178.839 24.188V28.5H177.229V24.398C177.229 23.8287 177.145 23.4273 176.977 23.194C176.809 22.9607 176.534 22.844 176.151 22.844C175.853 22.844 175.587 22.9187 175.353 23.068C175.129 23.208 174.873 23.418 174.583 23.698V28.5H172.973ZM183.677 28.668C183.21 28.668 182.772 28.5887 182.361 28.43C181.96 28.2713 181.61 28.038 181.311 27.73C181.012 27.422 180.779 27.044 180.611 26.596C180.443 26.148 180.359 25.6393 180.359 25.07C180.359 24.5007 180.452 23.992 180.639 23.544C180.826 23.096 181.078 22.718 181.395 22.41C181.712 22.102 182.076 21.8687 182.487 21.71C182.907 21.542 183.346 21.458 183.803 21.458C184.251 21.458 184.634 21.5327 184.951 21.682C185.278 21.8313 185.567 22.0133 185.819 22.228L185.035 23.278C184.848 23.1193 184.662 22.998 184.475 22.914C184.298 22.8207 184.102 22.774 183.887 22.774C183.327 22.774 182.874 22.984 182.529 23.404C182.184 23.8147 182.011 24.37 182.011 25.07C182.011 25.7607 182.179 26.316 182.515 26.736C182.86 27.1467 183.304 27.352 183.845 27.352C184.116 27.352 184.368 27.296 184.601 27.184C184.844 27.0627 185.063 26.9227 185.259 26.764L185.917 27.828C185.59 28.108 185.231 28.318 184.839 28.458C184.456 28.598 184.069 28.668 183.677 28.668ZM187.274 28.5V21.626H188.884V28.5H187.274ZM188.086 20.422C187.797 20.422 187.559 20.338 187.372 20.17C187.185 20.002 187.092 19.7827 187.092 19.512C187.092 19.2413 187.185 19.022 187.372 18.854C187.559 18.6767 187.797 18.588 188.086 18.588C188.375 18.588 188.613 18.6767 188.8 18.854C188.987 19.022 189.08 19.2413 189.08 19.512C189.08 19.7827 188.987 20.002 188.8 20.17C188.613 20.338 188.375 20.422 188.086 20.422ZM192.604 28.668C191.997 28.668 191.507 28.486 191.134 28.122C190.761 27.7487 190.574 27.2587 190.574 26.652C190.574 26.288 190.649 25.966 190.798 25.686C190.957 25.3967 191.199 25.1493 191.526 24.944C191.862 24.7387 192.282 24.566 192.786 24.426C193.299 24.286 193.911 24.1787 194.62 24.104C194.611 23.9267 194.583 23.7587 194.536 23.6C194.499 23.432 194.429 23.2873 194.326 23.166C194.233 23.0353 194.107 22.9373 193.948 22.872C193.789 22.7973 193.593 22.76 193.36 22.76C193.024 22.76 192.693 22.8253 192.366 22.956C192.049 23.0867 191.736 23.2453 191.428 23.432L190.84 22.354C191.223 22.1113 191.652 21.9013 192.128 21.724C192.604 21.5467 193.117 21.458 193.668 21.458C194.527 21.458 195.166 21.7147 195.586 22.228C196.015 22.732 196.23 23.4647 196.23 24.426V28.5H194.9L194.788 27.744H194.732C194.424 28.0053 194.093 28.2247 193.738 28.402C193.393 28.5793 193.015 28.668 192.604 28.668ZM193.122 27.408C193.402 27.408 193.654 27.3427 193.878 27.212C194.111 27.0813 194.359 26.8947 194.62 26.652V25.112C194.153 25.168 193.761 25.2427 193.444 25.336C193.127 25.4293 192.87 25.5367 192.674 25.658C192.478 25.77 192.338 25.9007 192.254 26.05C192.17 26.1993 192.128 26.358 192.128 26.526C192.128 26.834 192.221 27.058 192.408 27.198C192.595 27.338 192.833 27.408 193.122 27.408ZM198.157 28.5V21.626H199.487L199.599 22.564H199.655C199.944 22.256 200.257 21.9947 200.593 21.78C200.938 21.5653 201.325 21.458 201.755 21.458C202.259 21.458 202.66 21.5653 202.959 21.78C203.267 21.9947 203.5 22.298 203.659 22.69C203.985 22.3353 204.326 22.0413 204.681 21.808C205.035 21.5747 205.432 21.458 205.871 21.458C206.599 21.458 207.135 21.696 207.481 22.172C207.826 22.6387 207.999 23.3107 207.999 24.188V28.5H206.375V24.398C206.375 23.8287 206.286 23.4273 206.109 23.194C205.941 22.9607 205.679 22.844 205.325 22.844C204.895 22.844 204.415 23.1287 203.883 23.698V28.5H202.273V24.398C202.273 23.8287 202.184 23.4273 202.007 23.194C201.839 22.9607 201.573 22.844 201.209 22.844C200.779 22.844 200.299 23.1287 199.767 23.698V28.5H198.157ZM209.956 28.5V21.626H211.566V28.5H209.956ZM210.768 20.422C210.478 20.422 210.24 20.338 210.054 20.17C209.867 20.002 209.774 19.7827 209.774 19.512C209.774 19.2413 209.867 19.022 210.054 18.854C210.24 18.6767 210.478 18.588 210.768 18.588C211.057 18.588 211.295 18.6767 211.482 18.854C211.668 19.022 211.762 19.2413 211.762 19.512C211.762 19.7827 211.668 20.002 211.482 20.17C211.295 20.338 211.057 20.422 210.768 20.422ZM216.56 28.668C216.084 28.668 215.64 28.5887 215.23 28.43C214.819 28.262 214.46 28.024 214.152 27.716C213.844 27.408 213.601 27.0347 213.424 26.596C213.256 26.148 213.172 25.6393 213.172 25.07C213.172 24.51 213.26 24.006 213.438 23.558C213.615 23.11 213.848 22.732 214.138 22.424C214.436 22.116 214.777 21.878 215.16 21.71C215.542 21.542 215.934 21.458 216.336 21.458C216.802 21.458 217.213 21.5373 217.568 21.696C217.922 21.8547 218.216 22.0787 218.45 22.368C218.692 22.6573 218.874 23.0027 218.996 23.404C219.117 23.8053 219.178 24.244 219.178 24.72C219.178 24.8787 219.168 25.028 219.15 25.168C219.14 25.308 219.126 25.42 219.108 25.504H214.74C214.814 26.12 215.029 26.596 215.384 26.932C215.748 27.2587 216.21 27.422 216.77 27.422C217.068 27.422 217.344 27.38 217.596 27.296C217.857 27.2027 218.114 27.0767 218.366 26.918L218.912 27.926C218.585 28.1407 218.221 28.318 217.82 28.458C217.418 28.598 216.998 28.668 216.56 28.668ZM214.726 24.412H217.778C217.778 23.88 217.661 23.4647 217.428 23.166C217.204 22.858 216.854 22.704 216.378 22.704C215.967 22.704 215.608 22.8487 215.3 23.138C214.992 23.4273 214.8 23.852 214.726 24.412ZM220.715 28.5V21.626H222.045L222.157 22.55H222.213C222.521 22.2513 222.853 21.9947 223.207 21.78C223.571 21.5653 223.991 21.458 224.467 21.458C225.205 21.458 225.741 21.696 226.077 22.172C226.413 22.6387 226.581 23.3107 226.581 24.188V28.5H224.971V24.398C224.971 23.8287 224.887 23.4273 224.719 23.194C224.551 22.9607 224.276 22.844 223.893 22.844C223.595 22.844 223.329 22.9187 223.095 23.068C222.871 23.208 222.615 23.418 222.325 23.698V28.5H220.715ZM230.971 28.668C230.57 28.668 230.229 28.6073 229.949 28.486C229.679 28.3647 229.455 28.1967 229.277 27.982C229.109 27.758 228.983 27.4967 228.899 27.198C228.825 26.89 228.787 26.5493 228.787 26.176V22.9H227.807V21.696L228.871 21.626L229.067 19.75H230.411V21.626H232.161V22.9H230.411V26.176C230.411 26.9787 230.733 27.38 231.377 27.38C231.499 27.38 231.62 27.366 231.741 27.338C231.872 27.31 231.989 27.2727 232.091 27.226L232.371 28.416C232.185 28.4813 231.97 28.5373 231.727 28.584C231.494 28.64 231.242 28.668 230.971 28.668ZM236.203 28.668C235.774 28.668 235.363 28.5887 234.971 28.43C234.579 28.2713 234.229 28.038 233.921 27.73C233.623 27.422 233.385 27.044 233.207 26.596C233.03 26.148 232.941 25.6393 232.941 25.07C232.941 24.5007 233.03 23.992 233.207 23.544C233.385 23.096 233.623 22.718 233.921 22.41C234.229 22.102 234.579 21.8687 234.971 21.71C235.363 21.542 235.774 21.458 236.203 21.458C236.633 21.458 237.043 21.542 237.435 21.71C237.837 21.8687 238.187 22.102 238.485 22.41C238.784 22.718 239.022 23.096 239.199 23.544C239.386 23.992 239.479 24.5007 239.479 25.07C239.479 25.6393 239.386 26.148 239.199 26.596C239.022 27.044 238.784 27.422 238.485 27.73C238.187 28.038 237.837 28.2713 237.435 28.43C237.043 28.5887 236.633 28.668 236.203 28.668ZM236.203 27.352C236.707 27.352 237.104 27.1467 237.393 26.736C237.683 26.316 237.827 25.7607 237.827 25.07C237.827 24.37 237.683 23.8147 237.393 23.404C237.104 22.984 236.707 22.774 236.203 22.774C235.699 22.774 235.303 22.984 235.013 23.404C234.733 23.8147 234.593 24.37 234.593 25.07C234.593 25.7607 234.733 26.316 235.013 26.736C235.303 27.1467 235.699 27.352 236.203 27.352ZM246.69 28.668C246.074 28.668 245.476 28.5513 244.898 28.318C244.328 28.0847 243.824 27.7533 243.386 27.324L244.338 26.218C244.664 26.526 245.038 26.778 245.458 26.974C245.878 27.1607 246.298 27.254 246.718 27.254C247.24 27.254 247.637 27.1467 247.908 26.932C248.178 26.7173 248.314 26.4327 248.314 26.078C248.314 25.8913 248.276 25.7327 248.202 25.602C248.136 25.4713 248.038 25.3593 247.908 25.266C247.786 25.1633 247.637 25.07 247.46 24.986C247.292 24.902 247.105 24.818 246.9 24.734L245.64 24.188C245.416 24.0947 245.192 23.978 244.968 23.838C244.753 23.698 244.557 23.53 244.38 23.334C244.202 23.138 244.058 22.9093 243.946 22.648C243.843 22.3867 243.792 22.088 243.792 21.752C243.792 21.388 243.866 21.052 244.016 20.744C244.174 20.4267 244.389 20.1513 244.66 19.918C244.93 19.6847 245.252 19.5027 245.626 19.372C246.008 19.2413 246.424 19.176 246.872 19.176C247.404 19.176 247.917 19.2833 248.412 19.498C248.906 19.7033 249.331 19.9833 249.686 20.338L248.86 21.374C248.561 21.1313 248.253 20.94 247.936 20.8C247.618 20.66 247.264 20.59 246.872 20.59C246.433 20.59 246.083 20.688 245.822 20.884C245.56 21.0707 245.43 21.332 245.43 21.668C245.43 21.8453 245.467 21.9993 245.542 22.13C245.626 22.2513 245.733 22.3633 245.864 22.466C246.004 22.5593 246.162 22.648 246.34 22.732C246.517 22.8067 246.699 22.8813 246.886 22.956L248.132 23.474C248.402 23.586 248.65 23.7167 248.874 23.866C249.098 24.0153 249.289 24.188 249.448 24.384C249.616 24.58 249.746 24.8087 249.84 25.07C249.933 25.322 249.98 25.616 249.98 25.952C249.98 26.3253 249.905 26.6753 249.756 27.002C249.606 27.3287 249.387 27.618 249.098 27.87C248.818 28.1127 248.472 28.3087 248.062 28.458C247.66 28.598 247.203 28.668 246.69 28.668ZM252.414 28.668C252.116 28.668 251.864 28.5653 251.658 28.36C251.462 28.1547 251.364 27.8933 251.364 27.576C251.364 27.2587 251.462 26.9973 251.658 26.792C251.864 26.5867 252.116 26.484 252.414 26.484C252.713 26.484 252.96 26.5867 253.156 26.792C253.352 26.9973 253.45 27.2587 253.45 27.576C253.45 27.8933 253.352 28.1547 253.156 28.36C252.96 28.5653 252.713 28.668 252.414 28.668ZM257.376 23.628L257.054 24.748H259.392L259.07 23.628C258.921 23.1427 258.776 22.6433 258.636 22.13C258.505 21.6167 258.375 21.108 258.244 20.604H258.188C258.057 21.1173 257.927 21.6307 257.796 22.144C257.665 22.648 257.525 23.1427 257.376 23.628ZM254.31 28.5L257.292 19.344H259.196L262.178 28.5H260.47L259.756 26.022H256.676L255.962 28.5H254.31ZM264.077 28.668C263.778 28.668 263.526 28.5653 263.321 28.36C263.125 28.1547 263.027 27.8933 263.027 27.576C263.027 27.2587 263.125 26.9973 263.321 26.792C263.526 26.5867 263.778 26.484 264.077 26.484C264.375 26.484 264.623 26.5867 264.819 26.792C265.015 26.9973 265.113 27.2587 265.113 27.576C265.113 27.8933 265.015 28.1547 264.819 28.36C264.623 28.5653 264.375 28.668 264.077 28.668Z" fill="white"/>
</svg>
