<svg width="14" height="250" viewBox="0 0 14 250" fill="none" xmlns="http://www.w3.org/2000/svg">
<path d="M10.4966 244.999V246.555L4.15552 248.603V247.177L8.61368 245.775V245.756L4.15552 244.337V242.916L10.4966 244.999Z" fill="#999999"/>
<path d="M10.4855 239.072H4.14771V240.454H10.4855V239.072Z" fill="#999999"/>
<path d="M9.77395 231.371C10.0453 231.57 10.2656 231.829 10.4168 232.128C10.5681 232.427 10.6459 232.757 10.6442 233.091C10.6442 235.044 9.18066 236.191 7.34567 236.191C5.47066 236.191 4.00255 235.044 4.00255 233.091C3.96987 232.452 4.18239 231.823 4.59747 231.332C5.01255 230.841 5.59947 230.524 6.24049 230.444V231.768C5.93123 231.823 5.65267 231.987 5.45644 232.231C5.26022 232.474 5.15964 232.78 5.17336 233.091C5.17336 234.34 6.24049 234.799 7.34567 234.799C8.41083 234.799 9.4714 234.343 9.4714 233.091C9.49068 232.902 9.46969 232.711 9.40977 232.53C9.34986 232.349 9.25237 232.183 9.12359 232.042C8.99481 231.901 8.83761 231.788 8.66216 231.711C8.4867 231.634 8.2969 231.594 8.10501 231.594V232.984H7.0648V230.347H10.4906V231.227L9.77395 231.371Z" fill="#999999"/>
<path d="M10.4855 225.917H4.14771V227.309H10.4855V225.917Z" fill="#999999"/>
<path d="M4.15552 222.778V221.389H9.32379V218.33H10.4933V222.779L4.15552 222.778Z" fill="#999999"/>
<path d="M4.14771 213.902V212.49L10.4934 210.138V211.577L9.07773 212.045V214.394L10.4934 214.885V216.284L4.14771 213.902ZM8.03949 214.036V212.404L5.72083 213.2V213.21L8.03949 214.036Z" fill="#999999"/>
<path d="M4.15552 207.659V204.943C4.15552 203.325 5.18457 202.093 7.2952 202.093C9.12887 202.093 10.4959 203.024 10.4959 204.943V207.659H4.15552ZM9.32379 206.28V205.051C9.32379 204.242 8.82696 203.482 7.42578 203.482C6.14733 203.482 5.33158 203.918 5.33158 205.294V206.28H9.32379Z" fill="#999999"/>
<path d="M4.00708 196.389C4.00708 194.446 5.46864 193.302 7.35415 193.302C9.18454 193.302 10.6494 194.445 10.6494 196.389C10.6588 196.813 10.5788 197.235 10.4143 197.626C10.2499 198.018 10.0047 198.372 9.69442 198.664C9.38418 198.957 9.01572 199.181 8.61271 199.324C8.20971 199.467 7.78103 199.525 7.35415 199.494C5.46929 199.494 4.00708 198.341 4.00708 196.389ZM9.47593 196.389C9.47593 195.147 8.41209 194.678 7.35349 194.678C6.24371 194.678 5.1779 195.147 5.1779 196.389C5.1779 197.63 6.24305 198.098 7.35349 198.098C8.41209 198.098 9.47593 197.63 9.47593 196.389Z" fill="#999999"/>
<path d="M3.3818 188.068C4.03415 188.068 4.28682 187.573 4.28682 186.997C4.28682 186.623 4.17919 186.053 3.67582 186.053C3.14226 186.053 3.06153 186.784 2.8699 187.491C2.68154 188.216 2.39606 188.936 1.4871 188.936C0.486264 188.936 0.00390625 187.996 0.00390625 187.128C0.00390625 186.123 0.451491 185.192 1.57899 185.192V186.224C0.992272 186.247 0.841971 186.659 0.841971 187.174C0.841971 187.515 0.984394 187.907 1.39195 187.907C1.77653 187.907 1.81787 187.675 2.13486 186.462C2.22215 186.105 2.44725 185.021 3.55703 185.021C4.44564 185.021 5.11966 185.725 5.11966 187.042C5.11966 188.107 4.58478 189.109 3.3818 189.096V188.068Z" fill="#999999"/>
<path d="M3.15709 180.287C4.4736 180.287 5.11938 181.06 5.11938 182.354C5.11938 183.648 4.48345 184.415 3.15709 184.415H0.121094V183.35H3.15709C3.68737 183.35 4.21765 183.213 4.21765 182.354C4.21765 181.594 3.88229 181.352 3.15709 181.352H0.121094V180.287H3.15709Z" fill="#999999"/>
<path d="M0.117876 179.378V177.197C0.10135 176.983 0.129512 176.768 0.200613 176.566C0.271715 176.364 0.384221 176.178 0.531061 176.021C0.6779 175.864 0.855918 175.738 1.05394 175.652C1.25196 175.567 1.46572 175.522 1.68181 175.522C1.8979 175.522 2.11165 175.567 2.30968 175.652C2.5077 175.738 2.68572 175.864 2.83256 176.021C2.9794 176.178 3.0919 176.364 3.163 176.566C3.2341 176.768 3.26227 176.983 3.24574 177.197V178.321H4.99343V179.379L0.117876 179.378ZM2.41488 178.32V177.488C2.41488 176.996 2.30594 176.551 1.68443 176.551C1.06293 176.551 0.949392 176.996 0.949392 177.488V178.32H2.41488Z" fill="#999999"/>
<path d="M0.121094 174.87V171.25H1.02808V173.792H2.07355V171.457H2.90245V173.792H4.09491V171.189H4.99665V174.868L0.121094 174.87Z" fill="#999999"/>
<path d="M0.120022 170.477V167.874C0.108047 167.691 0.1341 167.508 0.19657 167.336C0.25904 167.163 0.356578 167.006 0.483135 166.872C0.609692 166.739 0.76257 166.633 0.93223 166.561C1.10189 166.488 1.28472 166.452 1.46935 166.452C1.72913 166.434 1.98814 166.498 2.20841 166.636C2.42869 166.774 2.59863 166.978 2.69332 167.218H2.70644C2.8377 166.698 3.35552 166.55 3.84773 166.518C4.2416 166.538 4.63471 166.466 4.99557 166.308V167.379C4.61654 167.477 4.22754 167.533 3.83591 167.545C3.31088 167.621 3.10088 167.824 3.10088 168.352V169.42H4.99557V170.481L0.120022 170.477ZM2.33367 169.416V168.253C2.33367 167.771 2.12891 167.519 1.63472 167.519C1.17073 167.519 0.959408 167.771 0.959408 168.253V169.416H2.33367Z" fill="#999999"/>
<path d="M4.99731 164.528H0.121094V165.589H4.99731V164.528Z" fill="#999999"/>
<path d="M0.121094 163.593V162.531L3.39334 160.523V160.503H0.121094V159.511H5.00059V160.566L1.73161 162.583V162.596H5.00059V163.592L0.121094 163.593Z" fill="#999999"/>
<path d="M1.02417 157.508V158.959H0.117188V154.999H1.02417V156.44H4.9934V157.508H1.02417Z" fill="#999999"/>
<path d="M0.121094 154.436V150.817H1.02808V153.388H2.07355V151.039H2.90245V153.388H4.09491V150.77H4.99665V154.436H0.121094Z" fill="#999999"/>
<path d="M0.121094 150.047V148.992L3.39334 146.974V146.961H0.121094V145.959H5.00059V147.027L1.73161 149.044V149.061H5.00059V150.047H0.121094Z" fill="#999999"/>
<path d="M0.121094 145.037V142.95C0.121094 141.699 0.913884 140.755 2.53885 140.755C3.95118 140.755 4.99665 141.48 4.99665 142.95V145.037H0.121094ZM4.09491 143.969V143.023C4.09491 142.407 3.72345 141.814 2.63795 141.814C1.65877 141.814 1.02742 142.158 1.02742 143.213V143.966L4.09491 143.969Z" fill="#999999"/>
<path d="M0.121094 140.025V136.401H1.02808V138.96H2.07355V136.611H2.90245V138.96H4.09491V136.352H4.99665V140.025H0.121094Z" fill="#999999"/>
<path d="M0.121094 135.624V134.583L3.39334 132.555V132.545H0.121094V131.552H5.00059V132.607L1.73161 134.625V134.638H5.00059V135.627L0.121094 135.624Z" fill="#999999"/>
<path d="M1.75756 127.394C1.51413 127.442 1.29562 127.573 1.14077 127.766C0.985914 127.958 0.904718 128.198 0.911604 128.444C0.911604 129.408 1.72409 129.765 2.58645 129.765C3.39106 129.765 4.21209 129.408 4.21209 128.444C4.21229 128.156 4.09801 127.879 3.894 127.674C3.68999 127.469 3.41265 127.351 3.12199 127.347V126.325C3.39382 126.333 3.66138 126.394 3.9092 126.505C4.15702 126.616 4.38018 126.775 4.56573 126.972C4.75129 127.169 4.89557 127.401 4.99021 127.654C5.08486 127.907 5.12799 128.175 5.11711 128.445C5.08388 129.095 4.80006 129.708 4.32431 130.156C3.84856 130.605 3.21725 130.855 2.56086 130.855C1.90446 130.855 1.27315 130.605 0.797402 130.156C0.321656 129.708 0.0378483 129.095 0.00462093 128.445C-0.0301844 127.941 0.132631 127.443 0.459104 127.055C0.785576 126.667 1.25051 126.419 1.75692 126.362L1.75756 127.394Z" fill="#999999"/>
<path d="M4.99731 124.537H0.121094V125.605H4.99731V124.537Z" fill="#999999"/>
<path d="M0.121094 122.28V121.192L4.99731 119.384V120.495L3.91902 120.855V122.664L4.99731 123.044V124.122L0.121094 122.28ZM3.11901 122.394V121.136L1.3267 121.742V121.752L3.11901 122.394Z" fill="#999999"/>
<path d="M0.121094 117.087V113.683H1.02808V116.022H2.15098V113.991H2.98645V116.022H4.99665V117.087H0.121094Z" fill="#999999"/>
<path d="M4.99731 112.004H0.121094V113.072H4.99731V112.004Z" fill="#999999"/>
<path d="M0.121094 111.064V110.016L3.39334 107.994V107.978H0.121094V106.979H5.00059V108.044L1.73161 110.061V110.071H5.00059V111.063L0.121094 111.064Z" fill="#999999"/>
<path d="M0.121094 104.736V103.645L4.99731 101.833V102.931L3.91902 103.312V105.11L4.99731 105.493V106.571L0.121094 104.736ZM3.11901 104.835V103.58L1.3267 104.192V104.202L3.11901 104.835Z" fill="#999999"/>
<path d="M0.121094 101.424V100.363L3.39334 98.3453V98.3225H0.121094V97.3333H5.00059V98.3947L1.73161 100.406V100.425H5.00059V101.421L0.121094 101.424Z" fill="#999999"/>
<path d="M1.75715 93.1832C1.51267 93.2305 1.29323 93.3627 1.13827 93.5561C0.98332 93.7495 0.903031 93.9914 0.911852 94.2382C0.911852 95.1917 1.72434 95.549 2.5867 95.549C3.39131 95.549 4.21232 95.1917 4.21232 94.2382C4.21432 94.0949 4.18762 93.9527 4.13375 93.8197C4.07988 93.6868 3.99992 93.5657 3.89852 93.4637C3.79711 93.3616 3.67627 93.2805 3.54301 93.2251C3.40976 93.1697 3.26673 93.1411 3.12224 93.1409V92.1061C3.39505 92.1143 3.66349 92.1763 3.91196 92.2883C4.16042 92.4004 4.38396 92.5602 4.56959 92.7587C4.75521 92.9571 4.89923 93.1901 4.99327 93.4443C5.0873 93.6984 5.12949 93.9685 5.11736 94.2389C5.08413 94.889 4.8003 95.5016 4.32456 95.9501C3.84881 96.3986 3.2175 96.6486 2.56111 96.6486C1.90471 96.6486 1.2734 96.3986 0.797651 95.9501C0.321905 95.5016 0.0380971 94.889 0.00486973 94.2389C-0.0308953 93.7337 0.131368 93.2342 0.45783 92.8448C0.784293 92.4553 1.24974 92.2058 1.75715 92.1484V93.1832Z" fill="#999999"/>
<path d="M4.99731 90.3224H0.121094V91.3903H4.99731V90.3224Z" fill="#999999"/>
<path d="M0.121094 89.381V85.769H1.02808V88.3306H2.07355V85.9785H2.90245V88.3306H4.09491V85.7169H4.99665V89.381H0.121094Z" fill="#999999"/>
<path d="M0.120057 84.9972V82.3939C0.108009 82.2109 0.13399 82.0275 0.196384 81.855C0.258779 81.6824 0.356251 81.5244 0.482769 81.3908C0.609287 81.2571 0.762148 81.1507 0.931864 81.078C1.10158 81.0054 1.28454 80.9681 1.46938 80.9685C1.73012 80.9497 1.99 81.0148 2.21049 81.1541C2.43098 81.2934 2.60031 81.4994 2.69335 81.7417H2.70647C2.83773 81.2276 3.35555 81.0733 3.84777 81.0343C4.24148 81.057 4.63498 80.9862 4.99561 80.8279V81.8927C4.61849 82.0007 4.22845 82.0581 3.83595 82.0632C3.31092 82.142 3.10091 82.3418 3.10091 82.8755V83.9403H4.99561V84.9946L0.120057 84.9972ZM2.33371 83.9429V82.7713C2.33371 82.2995 2.12894 82.0502 1.63476 82.0502C1.17076 82.0502 0.959443 82.2995 0.959443 82.7713V83.9429H2.33371Z" fill="#999999"/>
<path d="M0.121094 78.7891V77.7002L4.99731 75.8922V76.9928L3.91902 77.3663V79.175L4.99731 79.5518V80.6264L0.121094 78.7891ZM3.11901 78.8938V77.6449L1.3267 78.2541V78.2638L3.11901 78.8938Z" fill="#999999"/>
<path d="M8.31885 156.323V154.241C8.31885 152.989 9.10639 152.053 10.7254 152.053C12.1463 152.053 13.1918 152.769 13.1918 154.241V156.323H8.31885ZM12.2914 155.269V154.322C12.2914 153.703 11.9159 153.116 10.8259 153.116C9.84667 153.116 9.2173 153.457 9.2173 154.512V155.272L12.2914 155.269Z" fill="#999999"/>
<path d="M8.31885 151.313V147.693H9.2173V150.248H10.2615V147.905H11.0956V150.248H12.2914V147.638H13.1911V151.31L8.31885 151.313Z" fill="#999999"/>
<path d="M9.95897 141.815C9.71236 141.864 9.49104 141.997 9.33409 142.192C9.17714 142.387 9.09465 142.63 9.1012 142.88C9.1012 143.833 9.91894 144.186 10.776 144.186C11.5951 144.186 12.4128 143.832 12.4128 142.88C12.4138 142.736 12.386 142.593 12.3312 142.46C12.2764 142.326 12.1956 142.205 12.0934 142.103C11.9912 142.001 11.8696 141.919 11.7357 141.864C11.6017 141.808 11.4581 141.779 11.3129 141.779V140.744C11.5858 140.752 11.8543 140.815 12.1027 140.927C12.3512 141.04 12.5747 141.2 12.7602 141.398C12.9458 141.597 13.0898 141.83 13.1838 142.085C13.2778 142.339 13.32 142.609 13.308 142.88C13.2676 143.524 12.9809 144.13 12.5063 144.572C12.0316 145.014 11.4048 145.261 10.7534 145.261C10.1021 145.261 9.47518 145.014 9.00054 144.572C8.52589 144.13 8.23918 143.524 8.1988 142.88C8.16262 142.373 8.3256 141.872 8.65359 141.482C8.98158 141.091 9.44913 140.842 9.95831 140.786L9.95897 141.815Z" fill="#999999"/>
<path d="M8.19958 137.863C8.1653 137.356 8.28535 136.85 8.54419 136.411C8.80302 135.973 9.18871 135.621 9.65131 135.402C10.1139 135.184 10.6321 135.107 11.1388 135.184C11.6455 135.261 12.1174 135.486 12.4933 135.832C12.8692 136.177 13.1319 136.627 13.2472 137.122C13.3626 137.617 13.3253 138.135 13.1403 138.609C12.9553 139.083 12.6311 139.491 12.2096 139.781C11.7881 140.07 11.2887 140.227 10.7762 140.231C10.4464 140.261 10.1141 140.221 9.80073 140.115C9.4874 140.008 9.20001 139.838 8.95717 139.615C8.71433 139.392 8.52143 139.12 8.39093 138.819C8.26043 138.517 8.19524 138.191 8.19958 137.863ZM12.413 137.863C12.413 136.903 11.5887 136.546 10.7762 136.546C9.91905 136.546 9.09803 136.903 9.09803 137.863C9.09803 138.823 9.91905 139.17 10.7762 139.17C11.5887 139.17 12.413 138.816 12.413 137.863Z" fill="#999999"/>
<path d="M8.31885 134.756V133.698H12.2914V131.343H13.1911V134.756H8.31885Z" fill="#999999"/>
<path d="M8.19817 128.573C8.19817 127.076 9.32502 126.208 10.7748 126.208C11.0999 126.191 11.4251 126.24 11.7305 126.352C12.0359 126.464 12.3153 126.636 12.5514 126.858C12.7876 127.08 12.9756 127.348 13.1041 127.644C13.2327 127.941 13.2989 128.261 13.2989 128.583C13.2989 128.906 13.2327 129.226 13.1041 129.522C12.9756 129.819 12.7876 130.087 12.5514 130.309C12.3153 130.531 12.0359 130.703 11.7305 130.815C11.4251 130.927 11.0999 130.976 10.7748 130.959C10.4436 130.988 10.1101 130.947 9.79579 130.84C9.48149 130.733 9.19349 130.561 8.95048 130.336C8.70747 130.111 8.51489 129.838 8.38528 129.535C8.25567 129.231 8.19192 128.904 8.19817 128.574V128.573ZM12.4115 128.574C12.4115 127.624 11.5872 127.267 10.7748 127.267C9.91764 127.267 9.09662 127.624 9.09662 128.574C9.09662 129.525 9.91764 129.894 10.7748 129.894C11.5872 129.894 12.4115 129.527 12.4115 128.574Z" fill="#999999"/>
<path d="M8.31885 125.482V123.979L11.6718 122.848V122.832L8.31885 121.767V120.27H13.1911V121.266H9.73249V121.282L13.1911 122.465V123.291L9.76727 124.473V124.486H13.1911V125.482H8.31885Z" fill="#999999"/>
<path d="M8.31885 119.333V117.055C8.31885 116.144 8.60957 115.508 9.52443 115.508C9.74259 115.502 9.95732 115.563 10.1392 115.683C10.321 115.803 10.4612 115.975 10.5404 116.177C10.6074 115.906 10.7686 115.668 10.9955 115.504C11.2225 115.34 11.5005 115.26 11.7808 115.279C12.7652 115.279 13.1911 116.118 13.1911 116.993V119.332L8.31885 119.333ZM10.2877 118.268V117.197C10.2877 116.823 10.119 116.535 9.70623 116.535C9.24683 116.535 9.14774 116.892 9.14774 117.272V118.268H10.2877ZM12.3642 118.268V117.137C12.3642 116.718 12.2257 116.348 11.7164 116.348C11.221 116.348 11.0181 116.656 11.0181 117.118V118.268H12.3642Z" fill="#999999"/>
<path d="M13.1911 113.508H8.31885V114.573H13.1911V113.508Z" fill="#999999"/>
<path d="M8.31104 111.251V110.167L13.1899 108.355V109.452L12.1031 109.819V111.63L13.1899 112.007V113.092L8.31104 111.251ZM11.3037 111.353V110.101L9.51794 110.704V110.723L11.3037 111.353Z" fill="#999999"/>
<path d="M2.05236 192.09H0.144531V249.646H2.05236V192.09Z" fill="#999999"/>
<path d="M14.0005 192.09H12.0913V249.646H14.0005V192.09Z" fill="#999999"/>
<path d="M1.3396 47.873V45.2592H2.47688V46.4445H2.88836V45.4025H3.92138V46.443H5.31376V47.8714L1.3396 47.873Z" fill="#999999"/>
<path d="M1.6489 43.5355C1.82869 43.5566 1.99446 43.6431 2.11476 43.7785C2.23506 43.9139 2.3015 44.0888 2.3015 44.27C2.3015 44.4511 2.23506 44.626 2.11476 44.7614C1.99446 44.8968 1.82869 44.9833 1.6489 45.0045C1.46983 44.9824 1.30501 44.8955 1.18549 44.7602C1.06597 44.6249 1 44.4505 1 44.27C1 44.0894 1.06597 43.915 1.18549 43.7797C1.30501 43.6445 1.46983 43.5576 1.6489 43.5355ZM2.51336 44.9386V43.6028H5.31329V44.9386H2.51336Z" fill="#999999"/>
<path d="M2.96133 41.9517V41.9203C2.80893 41.8277 2.68233 41.6982 2.59324 41.5437C2.50415 41.3892 2.45545 41.2147 2.45166 41.0363C2.45166 40.353 2.97348 40.084 3.59046 40.084H5.31434V41.4193H3.94778C3.7843 41.4193 3.55249 41.4193 3.55249 41.6472C3.55249 41.8752 3.78481 41.8701 3.94778 41.8701H5.31434V43.2049H2.51442V41.8975L2.96133 41.9517Z" fill="#999999"/>
<path d="M4.94675 37.8332V37.8646C5.07877 37.9613 5.18657 38.0874 5.26166 38.2328C5.33676 38.3783 5.37709 38.5392 5.3795 38.7029C5.3795 39.4486 4.60968 39.8624 3.92893 39.8624C3.22035 39.8624 2.45255 39.443 2.45255 38.667C2.44572 38.5108 2.47837 38.3555 2.54746 38.2153C2.61656 38.0751 2.71987 37.9547 2.84784 37.8651V37.8337L2.5153 37.8752V36.5653H5.31523V37.8752L4.94675 37.8332ZM4.31409 38.1908C4.31409 37.9375 4.10861 37.8332 3.89198 37.8332C3.84344 37.83 3.79476 37.8369 3.74903 37.8535C3.7033 37.8701 3.66151 37.896 3.62633 37.9296C3.59115 37.9633 3.56336 38.0039 3.5447 38.0488C3.52604 38.0938 3.51692 38.1421 3.51795 38.1908C3.51931 38.2393 3.5305 38.2869 3.5508 38.3309C3.5711 38.3749 3.60011 38.4143 3.63608 38.4467C3.67204 38.4791 3.7142 38.504 3.76001 38.5196C3.80583 38.5353 3.85434 38.5415 3.90261 38.5378C4.1243 38.5373 4.31409 38.434 4.31409 38.1903V38.1908Z" fill="#999999"/>
<path d="M2.96284 35.0016V34.9702C2.80996 34.878 2.68292 34.7485 2.59353 34.5938C2.50414 34.4392 2.45534 34.2644 2.45166 34.0858C2.45166 33.4024 2.97348 33.1329 3.59046 33.1329H5.31434V34.4687H3.94778C3.7843 34.4687 3.55249 34.4687 3.55249 34.6962C3.55249 34.9236 3.78481 34.9191 3.94778 34.9191H5.31434V36.2548H2.51442V34.95L2.96284 35.0016Z" fill="#999999"/>
<path d="M3.72813 30.6671C3.59377 30.7975 3.51122 30.9722 3.4958 31.1589C3.49408 31.2664 3.53464 31.3702 3.60873 31.448C3.68282 31.5257 3.7845 31.5712 3.89181 31.5746C3.99911 31.578 4.10344 31.539 4.18228 31.4661C4.26112 31.3932 4.30816 31.2921 4.31322 31.1848C4.29927 30.9932 4.2232 30.8114 4.09659 30.6671L5.24652 30.7248C5.32571 30.9407 5.37029 31.1677 5.37861 31.3975C5.3993 31.5967 5.37661 31.798 5.3121 31.9876C5.24759 32.1772 5.14279 32.3505 5.00493 32.4957C4.86707 32.6409 4.69941 32.7544 4.5135 32.8285C4.3276 32.9026 4.12786 32.9354 3.92804 32.9248C3.73701 32.9328 3.54634 32.9021 3.36751 32.8344C3.18868 32.7667 3.02538 32.6635 2.88745 32.531C2.74952 32.3984 2.6398 32.2393 2.56491 32.0633C2.49002 31.8872 2.45149 31.6978 2.45166 31.5064C2.45452 31.2208 2.5027 30.9375 2.5944 30.6671H3.72813Z" fill="#999999"/>
<path d="M1.6489 28.8762C1.82869 28.8974 1.99446 28.9839 2.11476 29.1193C2.23506 29.2547 2.3015 29.4296 2.3015 29.6108C2.3015 29.7919 2.23506 29.9668 2.11476 30.1022C1.99446 30.2376 1.82869 30.3241 1.6489 30.3453C1.46983 30.3232 1.30501 30.2363 1.18549 30.101C1.06597 29.9657 1 29.7913 1 29.6108C1 29.4302 1.06597 29.2558 1.18549 29.1205C1.30501 28.9852 1.46983 28.8983 1.6489 28.8762ZM2.51336 30.2794V28.9441H5.31329V30.2794H2.51336Z" fill="#999999"/>
<path d="M4.14412 27.3084C4.37086 27.3084 4.62444 27.2724 4.62444 26.9928C4.62399 26.9276 4.60035 26.8648 4.55777 26.8155C4.5152 26.7662 4.45647 26.7337 4.39212 26.7238V25.424C4.70153 25.5408 4.96483 25.7547 5.14265 26.0338C5.32046 26.3128 5.40324 26.642 5.37857 26.972C5.37857 27.8362 4.92306 28.6279 3.96141 28.6279C3.7564 28.6317 3.55283 28.5929 3.36356 28.514C3.17428 28.4351 3.0034 28.3178 2.86169 28.1695C2.71997 28.0212 2.61052 27.8451 2.5402 27.6523C2.46988 27.4596 2.44023 27.2543 2.45313 27.0495C2.43426 26.8228 2.4652 26.5947 2.54375 26.3813C2.6223 26.1678 2.74658 25.9741 2.90786 25.8138C3.06913 25.6535 3.2635 25.5305 3.47733 25.4533C3.69116 25.3762 3.91925 25.3468 4.14563 25.3673L4.14412 27.3084ZM3.56409 26.6823C3.51883 26.6798 3.47352 26.6863 3.43076 26.7014C3.388 26.7164 3.34863 26.7398 3.31489 26.7701C3.28114 26.8003 3.25368 26.837 3.23409 26.8779C3.2145 26.9188 3.20314 26.9632 3.20068 27.0085C3.20068 27.2111 3.36872 27.3084 3.56409 27.3084V26.6823Z" fill="#999999"/>
<path d="M3.83263 22.8765C3.74122 22.9941 3.68821 23.137 3.68079 23.2858C3.67505 23.3589 3.68581 23.4324 3.71227 23.5008C3.73874 23.5693 3.78024 23.6308 3.83369 23.681C3.88715 23.7312 3.95119 23.7687 4.0211 23.7908C4.091 23.8129 4.16498 23.819 4.23754 23.8086H5.31307V25.1444H2.51314V23.8086L2.88769 23.84V23.8086C2.72779 23.7173 2.59993 23.5788 2.52158 23.4121C2.44322 23.2453 2.41818 23.0585 2.44988 22.877L3.83263 22.8765Z" fill="#999999"/>
<path d="M4.94651 20.8468V20.8772C5.07854 20.974 5.18635 21.1001 5.26143 21.2457C5.33652 21.3912 5.37685 21.5522 5.37926 21.716C5.37926 22.4612 4.60943 22.8755 3.92868 22.8755C3.2201 22.8755 2.4523 22.4566 2.4523 21.6801C2.44549 21.5238 2.47813 21.3683 2.54722 21.2279C2.6163 21.0876 2.71961 20.967 2.84759 20.8772V20.8468L2.51506 20.8883V19.5789H5.31499V20.8888L4.94651 20.8468ZM4.31384 21.2039C4.31384 20.9506 4.10836 20.8468 3.89174 20.8468C3.84324 20.8435 3.79459 20.8504 3.74889 20.867C3.70319 20.8836 3.66145 20.9095 3.62628 20.943C3.59111 20.9766 3.5633 21.0171 3.5446 21.062C3.52591 21.1069 3.51675 21.1553 3.5177 21.2039C3.51914 21.2523 3.53036 21.2999 3.55069 21.3439C3.57102 21.3878 3.60002 21.4272 3.63597 21.4596C3.67191 21.492 3.71406 21.5168 3.75984 21.5325C3.80563 21.5482 3.8541 21.5545 3.90236 21.5509C4.12405 21.5509 4.31384 21.446 4.31384 21.2039Z" fill="#999999"/>
<path d="M6.4209 47.888V46.0795C6.4209 44.4398 7.14163 43.1821 8.9384 43.1821C9.26058 43.169 9.58189 43.2242 9.88126 43.3441C10.1806 43.464 10.4513 43.6459 10.6755 43.8778C10.8998 44.1097 11.0725 44.3865 11.1824 44.6899C11.2923 44.9933 11.3368 45.3165 11.3132 45.6384V47.888H6.4209ZM9.84742 46.112V46.0015C9.84742 45.4114 9.57461 44.9575 8.93233 44.9575C8.24449 44.9575 7.95245 45.3526 7.95245 46.0015V46.112H9.84742Z" fill="#999999"/>
<path d="M10.8602 40.5842V40.6232C11.0234 40.7457 11.1563 40.904 11.2487 41.0861C11.341 41.2682 11.3902 41.4691 11.3926 41.6733C11.3926 42.6069 10.4451 43.1256 9.6085 43.1256C8.73897 43.1256 7.79147 42.6013 7.79147 41.6282C7.78269 41.4334 7.82262 41.2394 7.90764 41.0639C7.99266 40.8884 8.12009 40.7369 8.27838 40.6232V40.5842L7.86943 40.6348V38.9946H11.3147V40.6348L10.8602 40.5842ZM10.0822 41.0315C10.0822 40.7144 9.82916 40.5842 9.56294 40.5842C9.50273 40.5808 9.44247 40.5899 9.38597 40.611C9.32947 40.6321 9.27796 40.6647 9.23468 40.7068C9.1914 40.7488 9.1573 40.7994 9.13453 40.8553C9.11175 40.9111 9.10081 40.9711 9.10237 41.0315C9.10354 41.0916 9.11688 41.1509 9.1416 41.2057C9.16633 41.2605 9.20192 41.3097 9.24622 41.3504C9.29051 41.391 9.3426 41.4222 9.3993 41.4421C9.45601 41.462 9.51615 41.4702 9.5761 41.4661C9.8484 41.4656 10.0817 41.3359 10.0817 41.0305L10.0822 41.0315Z" fill="#999999"/>
<path d="M8.41991 37.0955V37.0544C8.23065 36.9371 8.07383 36.7741 7.96383 36.5803C7.85383 36.3866 7.79417 36.1684 7.79028 35.9456C7.79028 35.09 8.43306 34.7526 9.19175 34.7526H11.3135V36.4243H9.63311C9.43065 36.4243 9.1462 36.4243 9.1462 36.7095C9.1462 36.9947 9.43166 36.9886 9.63311 36.9886H11.3135V38.6602H7.86822V37.0266L8.41991 37.0955Z" fill="#999999"/>
<path d="M8.41991 32.7992V32.7597C8.23075 32.6423 8.07401 32.4794 7.96402 32.2858C7.85403 32.0922 7.7943 31.874 7.79028 31.6513C7.79028 30.7953 8.43306 30.4579 9.19175 30.4579H11.3135V32.1295H9.63311C9.43065 32.1295 9.1462 32.1295 9.1462 32.4142C9.1462 32.6989 9.43166 32.6933 9.63311 32.6933H11.3135V34.365H7.86822V32.7313L8.41991 32.7992Z" fill="#999999"/>
<path d="M6.4209 29.4272V27.2809C6.4209 26.1781 6.88806 25.245 8.121 25.245C8.41364 25.2104 8.70842 25.2891 8.94492 25.4651C9.18141 25.641 9.3417 25.9008 9.39291 26.1913H9.43188C9.51183 26.0763 9.61055 25.9756 9.72392 25.8934L11.3132 24.8297V26.8782L9.74417 27.6557V27.6887H11.3132V29.4262L6.4209 29.4272ZM8.58816 27.6897V27.5666C8.58816 27.2743 8.54311 26.983 8.17971 26.983C7.80315 26.983 7.75759 27.249 7.75759 27.5529V27.6897H8.58816Z" fill="#999999"/>
<path d="M9.87283 23.4344C10.1522 23.4344 10.4635 23.3893 10.4635 23.0388C10.4636 22.9577 10.435 22.8793 10.3827 22.8174C10.3304 22.7555 10.2579 22.7142 10.178 22.7009V21.0734C11.0086 21.2942 11.3927 22.2212 11.3927 23.0129C11.3927 24.0949 10.836 25.0873 9.64709 25.0873C9.39265 25.0894 9.14054 25.0388 8.90658 24.9387C8.67262 24.8386 8.46187 24.6911 8.28757 24.5056C8.11327 24.3201 7.9792 24.1005 7.89376 23.8606C7.80833 23.6207 7.77337 23.3658 7.79111 23.1117C7.79111 21.8874 8.58269 20.9204 9.87384 21.005L9.87283 23.4344ZM9.15918 22.6497C9.10298 22.6471 9.0468 22.6556 8.99387 22.6746C8.94093 22.6937 8.89227 22.7231 8.85067 22.761C8.80907 22.7989 8.77535 22.8446 8.75143 22.8956C8.72751 22.9466 8.71385 23.0018 8.71125 23.058C8.71125 23.3113 8.91877 23.4344 9.15918 23.4344V22.6497Z" fill="#999999"/>
<path d="M11.1116 16.8517C12.4548 16.8517 12.9999 17.9545 12.9999 19.1536C13.0011 19.6591 12.9088 20.1604 12.7276 20.6323L12.6694 20.7999L11.5053 20.4307C11.7773 20.0877 11.9259 19.6629 11.9269 19.225C11.9277 19.1248 11.9086 19.0254 11.8708 18.9325C11.8329 18.8397 11.7771 18.7553 11.7066 18.6841C11.636 18.613 11.552 18.5565 11.4596 18.518C11.3671 18.4794 11.2679 18.4596 11.1677 18.4596L10.817 18.4272V18.4722C10.9967 18.5715 11.1453 18.7188 11.2461 18.8977C11.347 19.0766 11.3961 19.2801 11.3879 19.4854C11.3879 20.4251 10.4404 20.9636 9.58406 20.9636C8.72768 20.9636 7.78679 20.4317 7.78679 19.4788C7.78333 19.2755 7.83448 19.0749 7.93491 18.8981C8.03534 18.7213 8.18135 18.5748 8.3577 18.4738V18.4287L7.86473 18.4738V16.8528L11.1116 16.8517ZM10.0801 18.8365C10.08 18.776 10.067 18.7161 10.0421 18.661C10.0171 18.6059 9.98065 18.5568 9.9352 18.5168C9.88976 18.4769 9.83633 18.4471 9.77849 18.4295C9.72065 18.4118 9.65972 18.4067 9.59975 18.4145C9.53805 18.4085 9.47576 18.4151 9.4167 18.434C9.35764 18.4528 9.30305 18.4836 9.25628 18.5243C9.20951 18.5651 9.17155 18.6149 9.14471 18.6709C9.11787 18.7268 9.10273 18.7877 9.1002 18.8497C9.10098 18.9127 9.11452 18.9749 9.14 19.0326C9.16548 19.0902 9.20238 19.1421 9.24845 19.1851C9.29452 19.2281 9.34882 19.2613 9.40807 19.2827C9.46732 19.3041 9.53029 19.3132 9.59317 19.3096C9.6571 19.3141 9.72124 19.305 9.78143 19.283C9.84161 19.2609 9.89647 19.2265 9.94242 19.1818C9.98837 19.137 10.0244 19.0831 10.0481 19.0236C10.0718 18.964 10.0827 18.9001 10.0801 18.836V18.8365Z" fill="#999999"/>
<path d="M7.05657 14.8114C7.25143 14.8355 7.43075 14.9301 7.5608 15.0773C7.69084 15.2245 7.76263 15.4143 7.76263 15.6108C7.76263 15.8073 7.69084 15.997 7.5608 16.1442C7.43075 16.2915 7.25143 16.386 7.05657 16.4101C6.86305 16.3843 6.68548 16.289 6.55689 16.1419C6.4283 15.9949 6.35742 15.8062 6.35742 15.6108C6.35742 15.4154 6.4283 15.2266 6.55689 15.0796C6.68548 14.9326 6.86305 14.8373 7.05657 14.8114ZM8.05516 16.4471V14.7755H11.3131V16.4471H8.05516Z" fill="#999999"/>
<path d="M9.6331 10.3275C10.7749 10.3275 11.3914 11.3406 11.3914 12.415C11.3914 13.4895 10.7749 14.5031 9.6331 14.5031C8.42598 14.5031 7.79028 13.5497 7.79028 12.415C7.79028 11.2804 8.42649 10.3275 9.6331 10.3275ZM9.60678 12.8821C9.73048 12.8821 9.84912 12.8329 9.93659 12.7454C10.0241 12.6578 10.0732 12.5391 10.0732 12.4153C10.0732 12.2915 10.0241 12.1728 9.93659 12.0852C9.84912 11.9977 9.73048 11.9485 9.60678 11.9485C9.54265 11.9438 9.47822 11.9523 9.41754 11.9736C9.35686 11.995 9.30122 12.0286 9.25411 12.0724C9.20699 12.1162 9.1694 12.1693 9.1437 12.2283C9.118 12.2873 9.10475 12.3509 9.10475 12.4153C9.10475 12.4797 9.118 12.5433 9.1437 12.6023C9.1694 12.6613 9.20699 12.7144 9.25411 12.7582C9.30122 12.802 9.35686 12.8356 9.41754 12.8569C9.47822 12.8783 9.54265 12.8868 9.60678 12.8821Z" fill="#999999"/>
<path d="M8.41991 8.59551V8.55702C8.23074 8.43945 8.074 8.27632 7.96402 8.08254C7.85404 7.88876 7.79431 7.67049 7.79028 7.44766C7.79028 6.59209 8.43306 6.25421 9.19175 6.25421H11.3135V7.92585H9.63311C9.43065 7.92585 9.1462 7.92585 9.1462 8.21104C9.1462 8.49624 9.43166 8.49015 9.63311 8.49015H11.3135V10.1618H7.86822V8.52663L8.41991 8.59551Z" fill="#999999"/>
<path d="M10.8602 3.57065V3.60915C11.0235 3.73164 11.1565 3.89011 11.2489 4.07229C11.3412 4.25447 11.3904 4.45548 11.3927 4.65974C11.3927 5.59281 10.4452 6.11203 9.60855 6.11203C8.73901 6.11203 7.79152 5.58623 7.79152 4.61466C7.78255 4.41973 7.82241 4.22564 7.90744 4.05004C7.99247 3.87444 8.11999 3.72288 8.27842 3.60915V3.57065L7.86948 3.62131V1.9826H11.3147V3.62283L10.8602 3.57065ZM10.0823 4.01794C10.0823 3.70033 9.82921 3.57065 9.56298 3.57065C9.50275 3.56719 9.44247 3.57629 9.38594 3.59736C9.32941 3.61843 9.27785 3.65102 9.23456 3.69307C9.19126 3.73512 9.15717 3.7857 9.13442 3.84162C9.11167 3.89754 9.10078 3.95758 9.10242 4.01794C9.10365 4.07802 9.11705 4.13723 9.1418 4.19198C9.16656 4.24673 9.20216 4.29589 9.24645 4.33647C9.29074 4.37706 9.34278 4.40823 9.39946 4.42809C9.45613 4.44796 9.51623 4.45611 9.57614 4.45205C9.84844 4.45256 10.0818 4.32288 10.0818 4.01895L10.0823 4.01794Z" fill="#999999"/>
<path d="M6.38721 1.67164V0H11.3129V1.67164H6.38721Z" fill="#999999"/>
<path d="M11.3945 55.9175L10.2871 57.9559C10.6808 57.2208 10.826 56.3779 10.7011 55.5533L11.8085 53.515C11.9343 54.3396 11.789 55.1827 11.3945 55.9175Z" fill="#999999"/>
<path d="M11.3948 55.9239L10.2874 57.9623C10.3111 57.9167 10.338 57.8711 10.3577 57.825L11.4656 55.7861C11.4429 55.8327 11.4196 55.8788 11.3943 55.9239" fill="#999999"/>
<path d="M1.39551 53.1284L2.50343 51.0895C2.88897 50.4264 3.44781 49.8811 4.11986 49.5121C4.79191 49.1431 5.55172 48.9645 6.31763 48.9954C8.99658 49.0004 11.4599 51.0287 11.8087 53.5124L10.7012 55.5507C10.352 53.0686 7.88817 51.0399 5.20921 51.0343C4.44337 51.0033 3.68356 51.1819 3.01158 51.5509C2.3396 51.9199 1.78088 52.4653 1.39551 53.1284Z" fill="#999999"/>
<path d="M3.7583 53.7685L4.29328 52.7873C4.08903 53.1672 4.01388 53.6034 4.07919 54.0299L3.54572 55.0116C3.47995 54.5851 3.55457 54.1488 3.7583 53.7685Z" fill="#999999"/>
<path d="M4.25811 52.8548L3.72363 53.8371C3.73629 53.8128 3.74741 53.789 3.75956 53.7652L4.29454 52.7839C4.28092 52.8067 4.26876 52.8304 4.25811 52.8548Z" fill="#999999"/>
<path d="M8.90084 55.28L8.36484 56.2657C8.1648 56.6096 7.87491 56.8925 7.52632 57.0838C7.17773 57.2752 6.78363 57.3678 6.38637 57.3518C5.71399 57.3521 5.06239 57.1187 4.54279 56.6916C4.02319 56.2645 3.66782 55.6701 3.53735 55.0099L4.07234 54.0247C4.2031 54.6851 4.55871 55.2796 5.07855 55.7069C5.59838 56.1341 6.25022 56.3676 6.92287 56.3676C7.32015 56.3831 7.71417 56.2901 8.06264 56.0985C8.4111 55.9069 8.70088 55.6239 8.90084 55.28Z" fill="#999999"/>
<path d="M8.89844 55.2876L8.32397 56.3427C8.52781 55.9624 8.6031 55.5263 8.53858 55.0996L9.11203 54.0434C9.17727 54.4703 9.10232 54.9069 8.89844 55.2876Z" fill="#999999"/>
<path d="M8.89282 55.2817L8.31836 56.3369C8.33253 56.3147 8.34316 56.2904 8.35582 56.266L8.92977 55.2103C8.91762 55.2346 8.90497 55.2579 8.89282 55.2817Z" fill="#999999"/>
<path d="M8.92967 55.2114L8.35571 56.267C8.41392 56.1491 8.45955 56.0253 8.49185 55.8978L9.06581 54.8426C9.03299 54.9698 8.98739 55.0934 8.92967 55.2114Z" fill="#999999"/>
<path d="M3.71582 53.8403L4.29028 52.7826C4.49022 52.4387 4.78003 52.156 5.12855 51.9647C5.47707 51.7734 5.87109 51.6809 6.26824 51.697C6.94065 51.6967 7.59231 51.9301 8.11185 52.3573C8.6314 52.7846 8.9866 53.3791 9.11676 54.0393L8.54179 55.097C8.41203 54.4366 8.05704 53.8418 7.53754 53.4143C7.01804 52.9869 6.36631 52.7534 5.69379 52.7537C5.29651 52.7375 4.90235 52.8301 4.55379 53.0216C4.20523 53.2131 3.91549 53.4961 3.71582 53.8403Z" fill="#999999"/>
<path d="M1.45648 52.9861L2.48646 51.0911C2.09297 51.8252 1.94821 52.6672 2.07397 53.4907L1.04399 55.3857C0.918489 54.5622 1.06323 53.7203 1.45648 52.9861Z" fill="#999999"/>
<path d="M2.4167 51.2265L1.38672 53.1216C1.40949 53.0755 1.43278 53.0294 1.45758 52.9843L2.48756 51.0892C2.46276 51.1338 2.43694 51.1799 2.41619 51.2265" fill="#999999"/>
<path d="M11.3888 55.9149L10.3563 57.8161C9.97073 58.4795 9.41171 59.0252 8.73938 59.3945C8.06706 59.7637 7.30687 59.9425 6.54059 59.9117C3.85809 59.9066 1.39171 57.8784 1.04248 55.3932L2.07601 53.4931C2.42474 55.9788 4.89061 58.006 7.57362 58.0111C8.3399 58.042 9.10008 57.8632 9.77236 57.4938C10.4446 57.1245 11.0035 56.5786 11.3888 55.9149Z" fill="#999999"/>
</svg>
