<svg width="20" height="440" viewBox="0 0 20 440" fill="none" xmlns="http://www.w3.org/2000/svg">
<path d="M13.9072 176.484L13.9072 178.184L6.62223 178.184L6.62223 176.484L13.9072 176.484ZM9.52223 174.086C9.24223 173.926 9.02223 173.743 8.86223 173.536C8.70223 173.326 8.62223 173.086 8.62223 172.816C8.62223 172.583 8.67723 172.393 8.78723 172.246L9.92723 172.346C10.0006 172.363 10.0506 172.391 10.0772 172.431C10.1039 172.468 10.1172 172.52 10.1172 172.586C10.1172 172.613 10.1156 172.648 10.1122 172.691C10.1089 172.735 10.1056 172.78 10.1022 172.826C10.0956 172.873 10.0906 172.921 10.0872 172.971C10.0806 173.018 10.0772 173.061 10.0772 173.101C10.0772 173.328 10.1372 173.51 10.2572 173.646C10.3772 173.78 10.5439 173.893 10.7572 173.986L13.9072 173.986L13.9072 175.536L8.72223 175.536L8.72223 174.616C8.72223 174.54 8.72889 174.476 8.74223 174.426C8.75556 174.373 8.77723 174.33 8.80723 174.296C8.83389 174.26 8.87056 174.233 8.91723 174.216C8.96389 174.196 9.02056 174.18 9.08723 174.166L9.52223 174.086ZM8.72223 170.333L13.9072 170.333L13.9072 171.883L8.72223 171.883L8.72223 170.333ZM7.30223 170.173C7.42556 170.173 7.54223 170.198 7.65223 170.248C7.75889 170.298 7.85389 170.366 7.93723 170.453C8.01723 170.54 8.08223 170.641 8.13223 170.758C8.17889 170.871 8.20223 170.993 8.20223 171.123C8.20223 171.25 8.17889 171.368 8.13223 171.478C8.08223 171.588 8.01723 171.686 7.93723 171.773C7.85389 171.856 7.75889 171.923 7.65223 171.973C7.54223 172.02 7.42556 172.043 7.30223 172.043C7.17556 172.043 7.05723 172.02 6.94723 171.973C6.83723 171.923 6.74056 171.856 6.65723 171.773C6.57389 171.686 6.50889 171.588 6.46223 171.478C6.41556 171.368 6.39223 171.25 6.39223 171.123C6.39223 170.993 6.41556 170.871 6.46223 170.758C6.50889 170.641 6.57389 170.54 6.65723 170.453C6.74056 170.366 6.83723 170.298 6.94723 170.248C7.05723 170.198 7.17556 170.173 7.30223 170.173ZM9.85723 166.157C9.92056 166.197 9.96556 166.24 9.99223 166.287C10.0189 166.33 10.0322 166.387 10.0322 166.457C10.0322 166.53 10.0172 166.604 9.98723 166.677C9.95389 166.75 9.91889 166.83 9.88223 166.917C9.84556 167 9.81223 167.095 9.78223 167.202C9.74889 167.309 9.73223 167.43 9.73223 167.567C9.73223 167.764 9.77056 167.915 9.84723 168.022C9.92056 168.125 10.0239 168.177 10.1572 168.177C10.2539 168.177 10.3339 168.144 10.3972 168.077C10.4606 168.007 10.5172 167.915 10.5672 167.802C10.6139 167.689 10.6589 167.56 10.7022 167.417C10.7456 167.274 10.7939 167.127 10.8472 166.977C10.9006 166.827 10.9639 166.68 11.0372 166.537C11.1072 166.394 11.1956 166.265 11.3022 166.152C11.4056 166.039 11.5322 165.949 11.6822 165.882C11.8322 165.812 12.0122 165.777 12.2222 165.777C12.4789 165.777 12.7156 165.824 12.9322 165.917C13.1489 166.01 13.3356 166.15 13.4922 166.337C13.6489 166.52 13.7706 166.749 13.8572 167.022C13.9439 167.292 13.9872 167.604 13.9872 167.957C13.9872 168.134 13.9706 168.31 13.9372 168.487C13.9039 168.664 13.8589 168.835 13.8022 169.002C13.7456 169.165 13.6789 169.317 13.6022 169.457C13.5222 169.597 13.4372 169.717 13.3472 169.817L12.7772 169.457C12.7106 169.417 12.6589 169.367 12.6222 169.307C12.5822 169.244 12.5622 169.164 12.5622 169.067C12.5622 168.977 12.5822 168.897 12.6222 168.827C12.6622 168.754 12.7056 168.675 12.7522 168.592C12.7989 168.509 12.8422 168.412 12.8822 168.302C12.9222 168.189 12.9422 168.047 12.9422 167.877C12.9422 167.757 12.9306 167.655 12.9072 167.572C12.8806 167.489 12.8456 167.422 12.8022 167.372C12.7589 167.322 12.7106 167.285 12.6572 167.262C12.6039 167.239 12.5489 167.227 12.4922 167.227C12.3889 167.227 12.3039 167.262 12.2372 167.332C12.1706 167.402 12.1139 167.494 12.0672 167.607C12.0172 167.72 11.9722 167.85 11.9322 167.997C11.8889 168.14 11.8406 168.287 11.7872 168.437C11.7339 168.587 11.6706 168.735 11.5972 168.882C11.5206 169.025 11.4256 169.154 11.3122 169.267C11.1956 169.38 11.0539 169.472 10.8872 169.542C10.7206 169.612 10.5189 169.647 10.2822 169.647C10.0622 169.647 9.85389 169.605 9.65723 169.522C9.45723 169.435 9.28223 169.307 9.13223 169.137C8.98223 168.967 8.86389 168.754 8.77723 168.497C8.68723 168.24 8.64223 167.94 8.64223 167.597C8.64223 167.41 8.65889 167.23 8.69223 167.057C8.72556 166.88 8.77223 166.715 8.83223 166.562C8.89223 166.409 8.96389 166.269 9.04723 166.142C9.12723 166.015 9.21556 165.904 9.31223 165.807L9.85723 166.157ZM12.0222 157.994C12.0222 157.954 12.0306 157.914 12.0472 157.874C12.0606 157.834 12.0856 157.796 12.1222 157.759L12.8272 157.089C13.2106 157.383 13.5006 157.751 13.6972 158.194C13.8906 158.634 13.9872 159.156 13.9872 159.759C13.9872 160.313 13.8939 160.809 13.7072 161.249C13.5172 161.686 13.2572 162.058 12.9272 162.364C12.5939 162.668 12.2006 162.901 11.7472 163.064C11.2906 163.228 10.7956 163.309 10.2622 163.309C9.71889 163.309 9.22056 163.221 8.76723 163.044C8.31056 162.868 7.91723 162.619 7.58723 162.299C7.25723 161.979 7.00056 161.596 6.81723 161.149C6.63389 160.703 6.54223 160.211 6.54223 159.674C6.54223 159.401 6.56723 159.144 6.61723 158.904C6.66389 158.661 6.73056 158.434 6.81723 158.224C6.90056 158.014 7.00223 157.821 7.12223 157.644C7.24223 157.468 7.37223 157.311 7.51223 157.174L8.27723 157.744C8.32389 157.781 8.36723 157.824 8.40723 157.874C8.44389 157.924 8.46223 157.994 8.46223 158.084C8.46223 158.144 8.44889 158.201 8.42223 158.254C8.39556 158.308 8.36389 158.364 8.32723 158.424C8.28723 158.484 8.24556 158.551 8.20223 158.624C8.15556 158.694 8.11389 158.779 8.07723 158.879C8.03723 158.976 8.00389 159.091 7.97723 159.224C7.95056 159.354 7.93723 159.508 7.93723 159.684C7.93723 159.964 7.98889 160.221 8.09223 160.454C8.19556 160.684 8.34723 160.884 8.54723 161.054C8.74389 161.221 8.98723 161.351 9.27723 161.444C9.56389 161.534 9.89223 161.579 10.2622 161.579C10.6356 161.579 10.9672 161.529 11.2572 161.429C11.5472 161.326 11.7922 161.188 11.9922 161.014C12.1889 160.838 12.3389 160.633 12.4422 160.399C12.5456 160.166 12.5972 159.916 12.5972 159.649C12.5972 159.496 12.5906 159.356 12.5772 159.229C12.5606 159.103 12.5356 158.984 12.5022 158.874C12.4656 158.764 12.4189 158.661 12.3622 158.564C12.3022 158.468 12.2272 158.369 12.1372 158.269C12.1039 158.229 12.0772 158.186 12.0572 158.139C12.0339 158.093 12.0222 158.044 12.0222 157.994ZM7.92223 154.852L9.76723 154.852L9.76723 152.362L11.0722 152.362L11.0722 154.852L13.9072 154.852L13.9072 156.552L6.62223 156.552L6.62223 151.862L7.92223 151.862L7.92223 154.852ZM10.2422 149.412L10.2422 146.712L11.4922 146.712L11.4922 149.412L10.2422 149.412ZM12.0222 138.662C12.0222 138.622 12.0306 138.582 12.0472 138.542C12.0606 138.502 12.0856 138.464 12.1222 138.427L12.8272 137.757C13.2106 138.051 13.5006 138.419 13.6972 138.862C13.8906 139.302 13.9872 139.824 13.9872 140.427C13.9872 140.981 13.8939 141.477 13.7072 141.917C13.5172 142.354 13.2572 142.726 12.9272 143.032C12.5939 143.336 12.2006 143.569 11.7472 143.732C11.2906 143.896 10.7956 143.977 10.2622 143.977C9.71889 143.977 9.22056 143.889 8.76723 143.712C8.31056 143.536 7.91722 143.287 7.58722 142.967C7.25722 142.647 7.00056 142.264 6.81722 141.817C6.63389 141.371 6.54222 140.879 6.54222 140.342C6.54222 140.069 6.56722 139.812 6.61722 139.572C6.66389 139.329 6.73056 139.102 6.81722 138.892C6.90056 138.682 7.00222 138.489 7.12222 138.312C7.24222 138.136 7.37222 137.979 7.51222 137.842L8.27722 138.412C8.32389 138.449 8.36722 138.492 8.40722 138.542C8.44389 138.592 8.46222 138.662 8.46222 138.752C8.46222 138.812 8.44889 138.869 8.42222 138.922C8.39556 138.976 8.36389 139.032 8.32722 139.092C8.28722 139.152 8.24556 139.219 8.20222 139.292C8.15556 139.362 8.11389 139.447 8.07722 139.547C8.03722 139.644 8.00389 139.759 7.97722 139.892C7.95056 140.022 7.93722 140.176 7.93722 140.352C7.93722 140.632 7.98889 140.889 8.09222 141.122C8.19556 141.352 8.34722 141.552 8.54722 141.722C8.74389 141.889 8.98722 142.019 9.27722 142.112C9.56389 142.202 9.89222 142.247 10.2622 142.247C10.6356 142.247 10.9672 142.197 11.2572 142.097C11.5472 141.994 11.7922 141.856 11.9922 141.682C12.1889 141.506 12.3389 141.301 12.4422 141.067C12.5456 140.834 12.5972 140.584 12.5972 140.317C12.5972 140.164 12.5906 140.024 12.5772 139.897C12.5606 139.771 12.5356 139.652 12.5022 139.542C12.4656 139.432 12.4189 139.329 12.3622 139.232C12.3022 139.136 12.2272 139.037 12.1372 138.937C12.1039 138.897 12.0772 138.854 12.0572 138.807C12.0339 138.761 12.0222 138.712 12.0222 138.662ZM8.64222 135.117C8.64222 134.724 8.70389 134.365 8.82722 134.042C8.95056 133.719 9.12722 133.442 9.35722 133.212C9.58722 132.979 9.86722 132.799 10.1972 132.672C10.5239 132.542 10.8922 132.477 11.3022 132.477C11.7156 132.477 12.0889 132.542 12.4222 132.672C12.7522 132.799 13.0339 132.979 13.2672 133.212C13.4972 133.442 13.6756 133.719 13.8022 134.042C13.9256 134.365 13.9872 134.724 13.9872 135.117C13.9872 135.514 13.9256 135.875 13.8022 136.202C13.6756 136.525 13.4972 136.805 13.2672 137.042C13.0339 137.275 12.7522 137.457 12.4222 137.587C12.0889 137.714 11.7156 137.777 11.3022 137.777C10.8922 137.777 10.5239 137.714 10.1972 137.587C9.86722 137.457 9.58722 137.275 9.35722 137.042C9.12722 136.805 8.95056 136.525 8.82722 136.202C8.70389 135.875 8.64222 135.514 8.64222 135.117ZM12.8372 135.117C12.8372 134.76 12.7122 134.499 12.4622 134.332C12.2089 134.162 11.8256 134.077 11.3122 134.077C10.7989 134.077 10.4172 134.162 10.1672 134.332C9.91722 134.499 9.79222 134.76 9.79222 135.117C9.79222 135.484 9.91722 135.752 10.1672 135.922C10.4172 136.092 10.7989 136.177 11.3122 136.177C11.8256 136.177 12.2089 136.092 12.4622 135.922C12.7122 135.752 12.8372 135.484 12.8372 135.117ZM13.9072 131.896L8.72222 131.896L8.72222 130.936C8.72222 130.743 8.80889 130.616 8.98222 130.556L9.26222 130.471C9.17222 130.385 9.09056 130.295 9.01722 130.201C8.94056 130.108 8.87556 130.008 8.82222 129.901C8.76556 129.791 8.72222 129.675 8.69222 129.551C8.65889 129.425 8.64222 129.286 8.64222 129.136C8.64222 128.823 8.72389 128.565 8.88722 128.361C9.04722 128.155 9.26222 127.998 9.53222 127.891C9.37222 127.805 9.23556 127.7 9.12222 127.576C9.00889 127.45 8.91722 127.315 8.84722 127.171C8.77722 127.025 8.72556 126.871 8.69222 126.711C8.65889 126.548 8.64222 126.386 8.64222 126.226C8.64222 125.93 8.68722 125.666 8.77722 125.436C8.86389 125.206 8.99222 125.015 9.16222 124.861C9.32889 124.705 9.53556 124.586 9.78222 124.506C10.0256 124.426 10.3022 124.386 10.6122 124.386L13.9072 124.386L13.9072 125.936L10.6122 125.936C10.0756 125.936 9.80722 126.166 9.80722 126.626C9.80722 126.836 9.87722 127.011 10.0172 127.151C10.1539 127.288 10.3522 127.356 10.6122 127.356L13.9072 127.356L13.9072 128.906L10.6122 128.906C10.3156 128.906 10.1072 128.965 9.98722 129.081C9.86722 129.198 9.80722 129.37 9.80722 129.596C9.80722 129.736 9.83889 129.87 9.90222 129.996C9.96556 130.12 10.0506 130.236 10.1572 130.346L13.9072 130.346L13.9072 131.896ZM12.4972 122.041C12.6239 121.924 12.7139 121.797 12.7672 121.661C12.8206 121.524 12.8472 121.381 12.8472 121.231C12.8472 121.087 12.8189 120.956 12.7622 120.836C12.7056 120.716 12.6156 120.612 12.4922 120.526C12.3656 120.436 12.2022 120.366 12.0022 120.316C11.8022 120.266 11.5589 120.241 11.2722 120.241C10.9989 120.241 10.7689 120.261 10.5822 120.301C10.3956 120.341 10.2456 120.397 10.1322 120.471C10.0156 120.541 9.93222 120.626 9.88222 120.726C9.83222 120.826 9.80722 120.937 9.80722 121.061C9.80722 121.287 9.84889 121.474 9.93222 121.621C10.0156 121.767 10.1372 121.907 10.2972 122.041L12.4972 122.041ZM9.36222 122.136C9.14556 121.932 8.96889 121.702 8.83222 121.446C8.69222 121.186 8.62222 120.877 8.62222 120.521C8.62222 120.251 8.68222 120.001 8.80222 119.771C8.92222 119.541 9.09556 119.342 9.32222 119.176C9.54889 119.009 9.82722 118.879 10.1572 118.786C10.4839 118.689 10.8556 118.641 11.2722 118.641C11.6622 118.641 12.0222 118.696 12.3522 118.806C12.6822 118.912 12.9689 119.064 13.2122 119.261C13.4556 119.454 13.6456 119.687 13.7822 119.961C13.9189 120.231 13.9872 120.531 13.9872 120.861C13.9872 121.131 13.9489 121.357 13.8722 121.541C13.7956 121.724 13.6922 121.891 13.5622 122.041L15.5522 122.041L15.5522 123.591L8.72222 123.591L8.72222 122.631C8.72222 122.437 8.80889 122.311 8.98222 122.251L9.36222 122.136ZM11.7972 115.364C11.8106 115.674 11.8372 115.929 11.8772 116.129C11.9172 116.329 11.9672 116.487 12.0272 116.604C12.0872 116.72 12.1556 116.802 12.2322 116.849C12.3089 116.892 12.3922 116.914 12.4822 116.914C12.6589 116.914 12.7839 116.865 12.8572 116.769C12.9272 116.672 12.9622 116.53 12.9622 116.344C12.9622 116.144 12.9272 115.969 12.8572 115.819C12.7872 115.669 12.6739 115.517 12.5172 115.364L11.7972 115.364ZM9.44222 118.154C9.16556 117.84 8.96056 117.494 8.82722 117.114C8.69056 116.73 8.62222 116.32 8.62222 115.884C8.62222 115.57 8.67389 115.289 8.77722 115.039C8.87722 114.785 9.01889 114.572 9.20222 114.399C9.38222 114.222 9.59722 114.087 9.84722 113.994C10.0972 113.9 10.3706 113.854 10.6672 113.854L13.9072 113.854L13.9072 114.564C13.9072 114.71 13.8872 114.822 13.8472 114.899C13.8072 114.972 13.7239 115.034 13.5972 115.084L13.3122 115.194C13.4222 115.324 13.5189 115.449 13.6022 115.569C13.6856 115.689 13.7572 115.814 13.8172 115.944C13.8739 116.07 13.9156 116.207 13.9422 116.354C13.9722 116.497 13.9872 116.657 13.9872 116.834C13.9872 117.07 13.9572 117.285 13.8972 117.479C13.8339 117.672 13.7422 117.837 13.6222 117.974C13.5022 118.107 13.3539 118.21 13.1772 118.284C12.9972 118.357 12.7906 118.394 12.5572 118.394C12.3706 118.394 12.1822 118.347 11.9922 118.254C11.7989 118.16 11.6239 117.999 11.4672 117.769C11.3072 117.539 11.1739 117.229 11.0672 116.839C10.9606 116.449 10.9006 115.957 10.8872 115.364L10.6672 115.364C10.3639 115.364 10.1456 115.427 10.0122 115.554C9.87556 115.677 9.80722 115.854 9.80722 116.084C9.80722 116.267 9.82722 116.417 9.86722 116.534C9.90722 116.65 9.95222 116.755 10.0022 116.849C10.0522 116.939 10.0972 117.027 10.1372 117.114C10.1772 117.2 10.1972 117.304 10.1972 117.424C10.1972 117.53 10.1706 117.62 10.1172 117.694C10.0639 117.767 10.0006 117.827 9.92722 117.874L9.44222 118.154ZM9.28222 111.633C9.18889 111.533 9.10222 111.43 9.02222 111.323C8.94222 111.216 8.87556 111.103 8.82222 110.983C8.76556 110.86 8.72222 110.728 8.69222 110.588C8.65889 110.445 8.64222 110.29 8.64222 110.123C8.64222 109.84 8.69222 109.59 8.79222 109.373C8.88889 109.153 9.02556 108.968 9.20222 108.818C9.37556 108.668 9.58389 108.555 9.82722 108.478C10.0672 108.401 10.3289 108.363 10.6122 108.363L13.9072 108.363L13.9072 109.913L10.6122 109.913C10.3589 109.913 10.1622 109.971 10.0222 110.088C9.87889 110.205 9.80722 110.376 9.80722 110.603C9.80722 110.773 9.84389 110.933 9.91722 111.083C9.98722 111.23 10.0839 111.373 10.2072 111.513L13.9072 111.513L13.9072 113.063L8.72222 113.063L8.72222 112.103C8.72222 111.91 8.80889 111.783 8.98222 111.723L9.28222 111.633ZM6.97222 110.153C6.97222 110.073 6.95222 110.008 6.91222 109.958C6.86889 109.908 6.77889 109.883 6.64222 109.883L6.64222 108.943C6.85222 108.943 7.04222 108.973 7.21222 109.033C7.37889 109.09 7.52222 109.17 7.64222 109.273C7.75889 109.376 7.84889 109.498 7.91222 109.638C7.97556 109.778 8.00722 109.93 8.00722 110.093C8.00722 110.216 7.98889 110.331 7.95222 110.438C7.91222 110.545 7.86889 110.645 7.82222 110.738C7.77556 110.828 7.73389 110.911 7.69722 110.988C7.65722 111.061 7.63722 111.126 7.63722 111.183C7.63722 111.263 7.66056 111.326 7.70722 111.373C7.75056 111.42 7.84056 111.443 7.97722 111.443L7.97722 112.393C7.76722 112.393 7.57889 112.363 7.41222 112.303C7.24222 112.243 7.09722 112.161 6.97722 112.058C6.85722 111.955 6.76556 111.833 6.70222 111.693C6.63556 111.553 6.60222 111.403 6.60222 111.243C6.60222 111.12 6.62222 111.005 6.66222 110.898C6.69889 110.788 6.74056 110.688 6.78722 110.598C6.83389 110.508 6.87722 110.426 6.91722 110.353C6.95389 110.276 6.97222 110.21 6.97222 110.153ZM8.72222 105.97L13.9072 105.97L13.9072 107.52L8.72222 107.52L8.72222 105.97ZM6.54222 104.72L7.85722 106.02C7.93389 106.096 7.98889 106.17 8.02222 106.24C8.05222 106.31 8.06722 106.403 8.06722 106.52L8.06722 107.45L6.84222 106.77C6.74556 106.713 6.67222 106.646 6.62222 106.57C6.56889 106.493 6.54222 106.376 6.54222 106.22L6.54222 104.72ZM11.7972 102.409C11.8106 102.719 11.8372 102.974 11.8772 103.174C11.9172 103.374 11.9672 103.532 12.0272 103.649C12.0872 103.766 12.1556 103.847 12.2322 103.894C12.3089 103.937 12.3922 103.959 12.4822 103.959C12.6589 103.959 12.7839 103.911 12.8572 103.814C12.9272 103.717 12.9622 103.576 12.9622 103.389C12.9622 103.189 12.9272 103.014 12.8572 102.864C12.7872 102.714 12.6739 102.562 12.5172 102.409L11.7972 102.409ZM9.44222 105.199C9.16556 104.886 8.96056 104.539 8.82722 104.159C8.69056 103.776 8.62222 103.366 8.62222 102.929C8.62222 102.616 8.67389 102.334 8.77722 102.084C8.87722 101.831 9.01889 101.617 9.20222 101.444C9.38222 101.267 9.59722 101.132 9.84722 101.039C10.0972 100.946 10.3706 100.899 10.6672 100.899L13.9072 100.899L13.9072 101.609C13.9072 101.756 13.8872 101.867 13.8472 101.944C13.8072 102.017 13.7239 102.079 13.5972 102.129L13.3122 102.239C13.4222 102.369 13.5189 102.494 13.6022 102.614C13.6856 102.734 13.7572 102.859 13.8172 102.989C13.8739 103.116 13.9156 103.252 13.9422 103.399C13.9722 103.542 13.9872 103.702 13.9872 103.879C13.9872 104.116 13.9572 104.331 13.8972 104.524C13.8339 104.717 13.7422 104.882 13.6222 105.019C13.5022 105.152 13.3539 105.256 13.1772 105.329C12.9972 105.402 12.7906 105.439 12.5572 105.439C12.3706 105.439 12.1822 105.392 11.9922 105.299C11.7989 105.206 11.6239 105.044 11.4672 104.814C11.3072 104.584 11.1739 104.274 11.0672 103.884C10.9606 103.494 10.9006 103.002 10.8872 102.409L10.6672 102.409C10.3639 102.409 10.1456 102.472 10.0122 102.599C9.87556 102.722 9.80722 102.899 9.80722 103.129C9.80722 103.312 9.82722 103.462 9.86722 103.579C9.90722 103.696 9.95222 103.801 10.0022 103.894C10.0522 103.984 10.0972 104.072 10.1372 104.159C10.1772 104.246 10.1972 104.349 10.1972 104.469C10.1972 104.576 10.1706 104.666 10.1172 104.739C10.0639 104.812 10.0006 104.872 9.92722 104.919L9.44222 105.199ZM10.1122 94.8488C9.98222 94.9654 9.89222 95.0921 9.84222 95.2288C9.78889 95.3654 9.76222 95.5088 9.76222 95.6588C9.76222 95.8021 9.79056 95.9338 9.84722 96.0538C9.90389 96.1738 9.99556 96.2788 10.1222 96.3688C10.2456 96.4554 10.4072 96.5238 10.6072 96.5738C10.8072 96.6238 11.0489 96.6488 11.3322 96.6488C11.6056 96.6488 11.8356 96.6288 12.0222 96.5888C12.2089 96.5488 12.3606 96.4938 12.4772 96.4238C12.5906 96.3504 12.6722 96.2638 12.7222 96.1638C12.7722 96.0638 12.7972 95.9521 12.7972 95.8288C12.7972 95.7154 12.7872 95.6138 12.7672 95.5238C12.7439 95.4304 12.7122 95.3454 12.6722 95.2688C12.6322 95.1921 12.5822 95.1204 12.5222 95.0538C12.4589 94.9838 12.3872 94.9154 12.3072 94.8488L10.1122 94.8488ZM6.42222 93.2988L13.9072 93.2988L13.9072 94.2588C13.9072 94.4521 13.8206 94.5788 13.6472 94.6388L13.2522 94.7588C13.3622 94.8621 13.4622 94.9704 13.5522 95.0838C13.6422 95.1971 13.7206 95.3204 13.7872 95.4538C13.8506 95.5838 13.8989 95.7254 13.9322 95.8788C13.9689 96.0288 13.9872 96.1921 13.9872 96.3688C13.9872 96.6388 13.9272 96.8888 13.8072 97.1188C13.6872 97.3488 13.5139 97.5471 13.2872 97.7138C13.0606 97.8804 12.7839 98.0121 12.4572 98.1088C12.1272 98.2021 11.7522 98.2488 11.3322 98.2488C10.9456 98.2488 10.5872 98.1954 10.2572 98.0888C9.92389 97.9821 9.63722 97.8321 9.39722 97.6388C9.15389 97.4421 8.96389 97.2071 8.82722 96.9338C8.69056 96.6604 8.62222 96.3588 8.62222 96.0288C8.62222 95.7588 8.66056 95.5321 8.73722 95.3488C8.81389 95.1654 8.91722 94.9988 9.04722 94.8488L6.42222 94.8488L6.42222 93.2988ZM10.6922 89.2266C10.5689 89.2266 10.4489 89.2432 10.3322 89.2766C10.2156 89.3066 10.1122 89.3582 10.0222 89.4316C9.92889 89.5016 9.85389 89.5949 9.79722 89.7116C9.74056 89.8282 9.71222 89.9699 9.71222 90.1366C9.71222 90.4299 9.79722 90.6599 9.96722 90.8266C10.1339 90.9932 10.3756 91.1032 10.6922 91.1566L10.6922 89.2266ZM11.5922 91.1766C12.0256 91.1266 12.3406 90.9949 12.5372 90.7816C12.7306 90.5682 12.8272 90.2932 12.8272 89.9566C12.8272 89.7766 12.8056 89.6216 12.7622 89.4916C12.7189 89.3616 12.6706 89.2466 12.6172 89.1466C12.5639 89.0432 12.5156 88.9499 12.4722 88.8666C12.4289 88.7799 12.4072 88.6899 12.4072 88.5966C12.4072 88.4732 12.4522 88.3799 12.5422 88.3166L13.0972 87.8666C13.2806 88.0266 13.4306 88.1999 13.5472 88.3866C13.6606 88.5699 13.7506 88.7599 13.8172 88.9566C13.8806 89.1499 13.9239 89.3449 13.9472 89.5416C13.9739 89.7349 13.9872 89.9199 13.9872 90.0966C13.9872 90.4599 13.9289 90.8016 13.8122 91.1216C13.6922 91.4382 13.5156 91.7166 13.2822 91.9566C13.0489 92.1932 12.7589 92.3816 12.4122 92.5216C12.0656 92.6582 11.6622 92.7266 11.2022 92.7266C10.8556 92.7266 10.5272 92.6682 10.2172 92.5516C9.90722 92.4316 9.63556 92.2616 9.40222 92.0416C9.16889 91.8182 8.98389 91.5499 8.84722 91.2366C8.71056 90.9199 8.64222 90.5632 8.64222 90.1666C8.64222 89.8232 8.69556 89.5099 8.80222 89.2266C8.90889 88.9399 9.06389 88.6949 9.26722 88.4916C9.47056 88.2849 9.72056 88.1249 10.0172 88.0116C10.3106 87.8949 10.6439 87.8366 11.0172 87.8366C11.1339 87.8366 11.2289 87.8416 11.3022 87.8516C11.3756 87.8616 11.4339 87.8799 11.4772 87.9066C11.5206 87.9332 11.5506 87.9699 11.5672 88.0166C11.5839 88.0599 11.5922 88.1166 11.5922 88.1866L11.5922 91.1766ZM7.92222 83.2665L9.76722 83.2665L9.76722 80.7765L11.0722 80.7765L11.0722 83.2665L13.9072 83.2665L13.9072 84.9665L6.62222 84.9665L6.62222 80.2765L7.92222 80.2765L7.92222 83.2665ZM8.72222 78.0974L13.9072 78.0974L13.9072 79.6474L8.72222 79.6474L8.72222 78.0974ZM7.30222 77.9374C7.42556 77.9374 7.54222 77.9624 7.65222 78.0124C7.75889 78.0624 7.85389 78.1308 7.93722 78.2174C8.01722 78.3041 8.08222 78.4058 8.13222 78.5224C8.17889 78.6358 8.20222 78.7574 8.20222 78.8874C8.20222 79.0141 8.17889 79.1324 8.13222 79.2424C8.08222 79.3524 8.01722 79.4508 7.93722 79.5374C7.85389 79.6208 7.75889 79.6874 7.65222 79.7374C7.54222 79.7841 7.42556 79.8074 7.30222 79.8074C7.17556 79.8074 7.05722 79.7841 6.94722 79.7374C6.83722 79.6874 6.74056 79.6208 6.65722 79.5374C6.57389 79.4508 6.50889 79.3524 6.46222 79.2424C6.41556 79.1324 6.39222 79.0141 6.39222 78.8874C6.39222 78.7574 6.41556 78.6358 6.46222 78.5224C6.50889 78.4058 6.57389 78.3041 6.65722 78.2174C6.74056 78.1308 6.83722 78.0624 6.94722 78.0124C7.05722 77.9624 7.17556 77.9374 7.30222 77.9374ZM9.28222 75.7864C9.18889 75.6864 9.10222 75.5831 9.02222 75.4764C8.94222 75.3697 8.87556 75.2564 8.82222 75.1364C8.76556 75.0131 8.72222 74.8814 8.69222 74.7414C8.65889 74.5981 8.64222 74.4431 8.64222 74.2764C8.64222 73.9931 8.69222 73.7431 8.79222 73.5264C8.88889 73.3064 9.02556 73.1214 9.20222 72.9714C9.37555 72.8214 9.58389 72.7081 9.82722 72.6314C10.0672 72.5547 10.3289 72.5164 10.6122 72.5164L13.9072 72.5164L13.9072 74.0664L10.6122 74.0664C10.3589 74.0664 10.1622 74.1247 10.0222 74.2414C9.87889 74.3581 9.80722 74.5297 9.80722 74.7564C9.80722 74.9264 9.84389 75.0864 9.91722 75.2364C9.98722 75.3831 10.0839 75.5264 10.2072 75.6664L13.9072 75.6664L13.9072 77.2164L8.72222 77.2164L8.72222 76.2564C8.72222 76.0631 8.80889 75.9364 8.98222 75.8764L9.28222 75.7864ZM11.7972 69.0383C11.8106 69.3483 11.8372 69.6033 11.8772 69.8033C11.9172 70.0033 11.9672 70.1616 12.0272 70.2783C12.0872 70.3949 12.1556 70.4766 12.2322 70.5233C12.3089 70.5666 12.3922 70.5883 12.4822 70.5883C12.6589 70.5883 12.7839 70.5399 12.8572 70.4433C12.9272 70.3466 12.9622 70.2049 12.9622 70.0183C12.9622 69.8183 12.9272 69.6433 12.8572 69.4933C12.7872 69.3433 12.6739 69.1916 12.5172 69.0383L11.7972 69.0383ZM9.44222 71.8283C9.16555 71.5149 8.96055 71.1683 8.82722 70.7883C8.69055 70.4049 8.62222 69.9949 8.62222 69.5583C8.62222 69.2449 8.67389 68.9633 8.77722 68.7133C8.87722 68.4599 9.01889 68.2466 9.20222 68.0733C9.38222 67.8966 9.59722 67.7616 9.84722 67.6683C10.0972 67.5749 10.3706 67.5283 10.6672 67.5283L13.9072 67.5283L13.9072 68.2383C13.9072 68.3849 13.8872 68.4966 13.8472 68.5733C13.8072 68.6466 13.7239 68.7083 13.5972 68.7583L13.3122 68.8683C13.4222 68.9983 13.5189 69.1233 13.6022 69.2433C13.6856 69.3633 13.7572 69.4883 13.8172 69.6183C13.8739 69.7449 13.9156 69.8816 13.9422 70.0283C13.9722 70.1716 13.9872 70.3316 13.9872 70.5083C13.9872 70.7449 13.9572 70.9599 13.8972 71.1533C13.8339 71.3466 13.7422 71.5116 13.6222 71.6483C13.5022 71.7816 13.3539 71.8849 13.1772 71.9583C12.9972 72.0316 12.7906 72.0683 12.5572 72.0683C12.3706 72.0683 12.1822 72.0216 11.9922 71.9283C11.7989 71.8349 11.6239 71.6733 11.4672 71.4433C11.3072 71.2133 11.1739 70.9033 11.0672 70.5133C10.9606 70.1233 10.9006 69.6316 10.8872 69.0383L10.6672 69.0383C10.3639 69.0383 10.1456 69.1016 10.0122 69.2283C9.87555 69.3516 9.80722 69.5283 9.80722 69.7583C9.80722 69.9416 9.82722 70.0916 9.86722 70.2083C9.90722 70.3249 9.95222 70.4299 10.0022 70.5233C10.0522 70.6133 10.0972 70.7016 10.1372 70.7883C10.1772 70.8749 10.1972 70.9783 10.1972 71.0983C10.1972 71.2049 10.1706 71.2949 10.1172 71.3683C10.0639 71.4416 10.0006 71.5016 9.92722 71.5483L9.44222 71.8283ZM9.28222 65.3075C9.18889 65.2075 9.10222 65.1042 9.02222 64.9975C8.94222 64.8908 8.87555 64.7775 8.82222 64.6575C8.76555 64.5342 8.72222 64.4025 8.69222 64.2625C8.65889 64.1192 8.64222 63.9642 8.64222 63.7975C8.64222 63.5142 8.69222 63.2642 8.79222 63.0475C8.88889 62.8275 9.02555 62.6425 9.20222 62.4925C9.37555 62.3425 9.58389 62.2292 9.82722 62.1525C10.0672 62.0758 10.3289 62.0375 10.6122 62.0375L13.9072 62.0375L13.9072 63.5875L10.6122 63.5875C10.3589 63.5875 10.1622 63.6458 10.0222 63.7625C9.87889 63.8792 9.80722 64.0508 9.80722 64.2775C9.80722 64.4475 9.84389 64.6075 9.91722 64.7575C9.98722 64.9042 10.0839 65.0475 10.2072 65.1875L13.9072 65.1875L13.9072 66.7375L8.72222 66.7375L8.72222 65.7775C8.72222 65.5842 8.80889 65.4575 8.98222 65.3975L9.28222 65.3075ZM9.95222 57.4244C10.0089 57.471 10.0539 57.516 10.0872 57.5594C10.1206 57.6027 10.1372 57.6644 10.1372 57.7444C10.1372 57.821 10.1189 57.891 10.0822 57.9544C10.0456 58.0144 10.0056 58.0827 9.96222 58.1594C9.91555 58.236 9.87389 58.326 9.83722 58.4294C9.80055 58.5327 9.78222 58.661 9.78222 58.8144C9.78222 59.0044 9.81722 59.1694 9.88722 59.3094C9.95722 59.446 10.0572 59.5594 10.1872 59.6494C10.3172 59.7394 10.4772 59.806 10.6672 59.8494C10.8539 59.8927 11.0656 59.9144 11.3022 59.9144C11.7989 59.9144 12.1806 59.8194 12.4472 59.6294C12.7139 59.436 12.8472 59.171 12.8472 58.8344C12.8472 58.6544 12.8256 58.5127 12.7822 58.4094C12.7356 58.3027 12.6856 58.2127 12.6322 58.1394C12.5756 58.066 12.5239 57.9994 12.4772 57.9394C12.4306 57.876 12.4072 57.7977 12.4072 57.7044C12.4072 57.581 12.4522 57.4877 12.5422 57.4244L13.0972 56.9744C13.2806 57.1344 13.4306 57.3027 13.5472 57.4794C13.6606 57.656 13.7506 57.8377 13.8172 58.0244C13.8806 58.2077 13.9239 58.3927 13.9472 58.5794C13.9739 58.766 13.9872 58.9477 13.9872 59.1244C13.9872 59.441 13.9272 59.7444 13.8072 60.0344C13.6872 60.321 13.5139 60.5744 13.2872 60.7944C13.0572 61.011 12.7756 61.1844 12.4422 61.3144C12.1089 61.441 11.7289 61.5044 11.3022 61.5044C10.9289 61.5044 10.5806 61.4494 10.2572 61.3394C9.93055 61.226 9.64889 61.061 9.41222 60.8444C9.17222 60.6244 8.98389 60.3544 8.84722 60.0344C8.71055 59.711 8.64222 59.3377 8.64222 58.9144C8.64222 58.5077 8.70722 58.151 8.83722 57.8444C8.96722 57.5377 9.15722 57.261 9.40722 57.0144L9.95222 57.4244ZM8.72222 54.9861L13.9072 54.9861L13.9072 56.5361L8.72222 56.5361L8.72222 54.9861ZM7.30222 54.8261C7.42555 54.8261 7.54222 54.8511 7.65222 54.9011C7.75889 54.9511 7.85389 55.0194 7.93722 55.1061C8.01722 55.1928 8.08222 55.2944 8.13222 55.4111C8.17889 55.5244 8.20222 55.6461 8.20222 55.7761C8.20222 55.9028 8.17889 56.0211 8.13222 56.1311C8.08222 56.2411 8.01722 56.3394 7.93722 56.4261C7.85389 56.5094 7.75889 56.5761 7.65222 56.6261C7.54222 56.6728 7.42555 56.6961 7.30222 56.6961C7.17555 56.6961 7.05722 56.6728 6.94722 56.6261C6.83722 56.5761 6.74055 56.5094 6.65722 56.4261C6.57389 56.3394 6.50889 56.2411 6.46222 56.1311C6.41555 56.0211 6.39222 55.9028 6.39222 55.7761C6.39222 55.6461 6.41555 55.5244 6.46222 55.4111C6.50889 55.2944 6.57389 55.1928 6.65722 55.1061C6.74055 55.0194 6.83722 54.9511 6.94722 54.9011C7.05722 54.8511 7.17555 54.8261 7.30222 54.8261ZM11.7972 51.4301C11.8106 51.7401 11.8372 51.9951 11.8772 52.1951C11.9172 52.3951 11.9672 52.5534 12.0272 52.6701C12.0872 52.7867 12.1556 52.8684 12.2322 52.9151C12.3089 52.9584 12.3922 52.9801 12.4822 52.9801C12.6589 52.9801 12.7839 52.9317 12.8572 52.8351C12.9272 52.7384 12.9622 52.5967 12.9622 52.4101C12.9622 52.2101 12.9272 52.0351 12.8572 51.8851C12.7872 51.7351 12.6739 51.5834 12.5172 51.4301L11.7972 51.4301ZM9.44222 54.2201C9.16555 53.9067 8.96055 53.5601 8.82722 53.1801C8.69055 52.7967 8.62222 52.3867 8.62222 51.9501C8.62222 51.6367 8.67389 51.3551 8.77722 51.1051C8.87722 50.8517 9.01889 50.6384 9.20222 50.4651C9.38222 50.2884 9.59722 50.1534 9.84722 50.0601C10.0972 49.9667 10.3706 49.9201 10.6672 49.9201L13.9072 49.9201L13.9072 50.6301C13.9072 50.7767 13.8872 50.8884 13.8472 50.9651C13.8072 51.0384 13.7239 51.1001 13.5972 51.1501L13.3122 51.2601C13.4222 51.3901 13.5189 51.5151 13.6022 51.6351C13.6856 51.7551 13.7572 51.8801 13.8172 52.0101C13.8739 52.1367 13.9156 52.2734 13.9422 52.4201C13.9722 52.5634 13.9872 52.7234 13.9872 52.9001C13.9872 53.1367 13.9572 53.3517 13.8972 53.5451C13.8339 53.7384 13.7422 53.9034 13.6222 54.0401C13.5022 54.1734 13.3539 54.2767 13.1772 54.3501C12.9972 54.4234 12.7906 54.4601 12.5572 54.4601C12.3706 54.4601 12.1822 54.4134 11.9922 54.3201C11.7989 54.2267 11.6239 54.0651 11.4672 53.8351C11.3072 53.6051 11.1739 53.2951 11.0672 52.9051C10.9606 52.5151 10.9006 52.0234 10.8872 51.4301L10.6672 51.4301C10.3639 51.4301 10.1456 51.4934 10.0122 51.6201C9.87555 51.7434 9.80722 51.9201 9.80722 52.1501C9.80722 52.3334 9.82722 52.4834 9.86722 52.6001C9.90722 52.7167 9.95222 52.8217 10.0022 52.9151C10.0522 53.0051 10.0972 53.0934 10.1372 53.1801C10.1772 53.2667 10.1972 53.3701 10.1972 53.4901C10.1972 53.5967 10.1706 53.6867 10.1172 53.7601C10.0639 53.8334 10.0006 53.8934 9.92722 53.9401L9.44222 54.2201ZM13.9072 49.1293L8.72222 49.1293L8.72222 48.1693C8.72222 47.976 8.80889 47.8493 8.98222 47.7893L9.26222 47.7043C9.17222 47.6176 9.09055 47.5276 9.01722 47.4343C8.94055 47.341 8.87555 47.241 8.82222 47.1343C8.76555 47.0243 8.72222 46.9076 8.69222 46.7843C8.65889 46.6576 8.64222 46.5193 8.64222 46.3693C8.64222 46.056 8.72389 45.7976 8.88722 45.5943C9.04722 45.3876 9.26222 45.231 9.53222 45.1243C9.37222 45.0376 9.23555 44.9326 9.12222 44.8093C9.00889 44.6826 8.91722 44.5476 8.84722 44.4043C8.77722 44.2576 8.72555 44.1043 8.69222 43.9443C8.65889 43.781 8.64222 43.6193 8.64222 43.4593C8.64222 43.1626 8.68722 42.8993 8.77722 42.6693C8.86389 42.4393 8.99222 42.2476 9.16222 42.0943C9.32889 41.9376 9.53555 41.8193 9.78222 41.7393C10.0256 41.6593 10.3022 41.6193 10.6122 41.6193L13.9072 41.6193L13.9072 43.1693L10.6122 43.1693C10.0756 43.1693 9.80722 43.3993 9.80722 43.8593C9.80722 44.0693 9.87722 44.2443 10.0172 44.3843C10.1539 44.521 10.3522 44.5893 10.6122 44.5893L13.9072 44.5893L13.9072 46.1393L10.6122 46.1393C10.3156 46.1393 10.1072 46.1976 9.98722 46.3143C9.86722 46.431 9.80722 46.6026 9.80722 46.8293C9.80722 46.9693 9.83889 47.1026 9.90222 47.2293C9.96555 47.3526 10.0506 47.4693 10.1572 47.5793L13.9072 47.5793L13.9072 49.1293ZM8.72222 39.2384L13.9072 39.2384L13.9072 40.7884L8.72222 40.7884L8.72222 39.2384ZM7.30222 39.0784C7.42555 39.0784 7.54222 39.1034 7.65222 39.1534C7.75889 39.2034 7.85389 39.2718 7.93722 39.3584C8.01722 39.4451 8.08222 39.5468 8.13222 39.6634C8.17889 39.7768 8.20222 39.8984 8.20222 40.0284C8.20222 40.1551 8.17889 40.2734 8.13222 40.3834C8.08222 40.4934 8.01722 40.5918 7.93722 40.6784C7.85389 40.7618 7.75889 40.8284 7.65222 40.8784C7.54222 40.9251 7.42555 40.9484 7.30222 40.9484C7.17555 40.9484 7.05722 40.9251 6.94722 40.8784C6.83722 40.8284 6.74055 40.7618 6.65722 40.6784C6.57389 40.5918 6.50889 40.4934 6.46222 40.3834C6.41555 40.2734 6.39222 40.1551 6.39222 40.0284C6.39222 39.8984 6.41555 39.7768 6.46222 39.6634C6.50889 39.5468 6.57389 39.4451 6.65722 39.3584C6.74055 39.2718 6.83722 39.2034 6.94722 39.1534C7.05722 39.1034 7.17555 39.0784 7.30222 39.0784ZM10.6922 35.1324C10.5689 35.1324 10.4489 35.1491 10.3322 35.1824C10.2156 35.2124 10.1122 35.2641 10.0222 35.3374C9.92889 35.4074 9.85389 35.5007 9.79722 35.6174C9.74055 35.7341 9.71222 35.8757 9.71222 36.0424C9.71222 36.3357 9.79722 36.5657 9.96722 36.7324C10.1339 36.8991 10.3756 37.0091 10.6922 37.0624L10.6922 35.1324ZM11.5922 37.0824C12.0256 37.0324 12.3406 36.9007 12.5372 36.6874C12.7306 36.4741 12.8272 36.1991 12.8272 35.8624C12.8272 35.6824 12.8056 35.5274 12.7622 35.3974C12.7189 35.2674 12.6706 35.1524 12.6172 35.0524C12.5639 34.9491 12.5156 34.8557 12.4722 34.7724C12.4289 34.6857 12.4072 34.5957 12.4072 34.5024C12.4072 34.3791 12.4522 34.2857 12.5422 34.2224L13.0972 33.7724C13.2806 33.9324 13.4306 34.1057 13.5472 34.2924C13.6606 34.4757 13.7506 34.6657 13.8172 34.8624C13.8806 35.0557 13.9239 35.2507 13.9472 35.4474C13.9739 35.6407 13.9872 35.8257 13.9872 36.0024C13.9872 36.3657 13.9289 36.7074 13.8122 37.0274C13.6922 37.3441 13.5156 37.6224 13.2822 37.8624C13.0489 38.0991 12.7589 38.2874 12.4122 38.4274C12.0656 38.5641 11.6622 38.6324 11.2022 38.6324C10.8556 38.6324 10.5272 38.5741 10.2172 38.4574C9.90722 38.3374 9.63555 38.1674 9.40222 37.9474C9.16889 37.7241 8.98389 37.4557 8.84722 37.1424C8.71055 36.8257 8.64222 36.4691 8.64222 36.0724C8.64222 35.7291 8.69555 35.4157 8.80222 35.1324C8.90889 34.8457 9.06389 34.6007 9.26722 34.3974C9.47055 34.1907 9.72055 34.0307 10.0172 33.9174C10.3106 33.8007 10.6439 33.7424 11.0172 33.7424C11.1339 33.7424 11.2289 33.7474 11.3022 33.7574C11.3756 33.7674 11.4339 33.7857 11.4772 33.8124C11.5206 33.8391 11.5506 33.8757 11.5672 33.9224C11.5839 33.9657 11.5922 34.0224 11.5922 34.0924L11.5922 37.0824ZM9.28222 31.7368C9.18889 31.6368 9.10222 31.5335 9.02222 31.4268C8.94222 31.3201 8.87555 31.2068 8.82222 31.0868C8.76555 30.9635 8.72222 30.8318 8.69222 30.6918C8.65889 30.5485 8.64222 30.3935 8.64222 30.2268C8.64222 29.9435 8.69222 29.6935 8.79222 29.4768C8.88889 29.2568 9.02555 29.0718 9.20222 28.9218C9.37555 28.7718 9.58389 28.6585 9.82722 28.5818C10.0672 28.5051 10.3289 28.4668 10.6122 28.4668L13.9072 28.4668L13.9072 30.0168L10.6122 30.0168C10.3589 30.0168 10.1622 30.0751 10.0222 30.1918C9.87889 30.3085 9.80722 30.4801 9.80722 30.7068C9.80722 30.8768 9.84389 31.0368 9.91722 31.1868C9.98722 31.3335 10.0839 31.4768 10.2072 31.6168L13.9072 31.6168L13.9072 33.1668L8.72222 33.1668L8.72222 32.2068C8.72222 32.0135 8.80889 31.8868 8.98222 31.8268L9.28222 31.7368ZM13.9872 25.877C13.9872 26.1237 13.9522 26.342 13.8822 26.532C13.8089 26.7187 13.7072 26.877 13.5772 27.007C13.4439 27.1337 13.2839 27.2304 13.0972 27.297C12.9106 27.3637 12.7022 27.397 12.4722 27.397L9.79222 27.397L9.79222 27.837C9.79222 27.917 9.76722 27.9854 9.71722 28.042C9.66389 28.0987 9.58722 28.127 9.48722 28.127L8.88222 28.127L8.72222 27.302L7.45722 26.997C7.29722 26.957 7.21722 26.8437 7.21722 26.657L7.21722 25.847L8.73222 25.847L8.73222 24.562L9.79222 24.562L9.79222 25.847L12.3672 25.847C12.4872 25.847 12.5872 25.8187 12.6672 25.762C12.7439 25.702 12.7822 25.617 12.7822 25.507C12.7822 25.4504 12.7772 25.4037 12.7672 25.367C12.7539 25.327 12.7406 25.2937 12.7272 25.267C12.7106 25.237 12.6972 25.2104 12.6872 25.187C12.6739 25.1604 12.6672 25.1304 12.6672 25.097C12.6672 25.0504 12.6789 25.0137 12.7022 24.987C12.7222 24.957 12.7556 24.927 12.8022 24.897L13.5372 24.427C13.6872 24.627 13.8006 24.852 13.8772 25.102C13.9506 25.352 13.9872 25.6104 13.9872 25.877ZM8.64222 21.753C8.64222 21.3596 8.70389 21.0013 8.82722 20.678C8.95055 20.3546 9.12722 20.078 9.35722 19.848C9.58722 19.6146 9.86722 19.4346 10.1972 19.308C10.5239 19.178 10.8922 19.113 11.3022 19.113C11.7156 19.113 12.0889 19.178 12.4222 19.308C12.7522 19.4346 13.0339 19.6146 13.2672 19.848C13.4972 20.078 13.6756 20.3546 13.8022 20.678C13.9256 21.0013 13.9872 21.3596 13.9872 21.753C13.9872 22.1496 13.9256 22.5113 13.8022 22.838C13.6756 23.1613 13.4972 23.4413 13.2672 23.678C13.0339 23.9113 12.7522 24.093 12.4222 24.223C12.0889 24.3496 11.7156 24.413 11.3022 24.413C10.8922 24.413 10.5239 24.3496 10.1972 24.223C9.86722 24.093 9.58722 23.9113 9.35722 23.678C9.12722 23.4413 8.95055 23.1613 8.82722 22.838C8.70389 22.5113 8.64222 22.1496 8.64222 21.753ZM12.8372 21.753C12.8372 21.3963 12.7122 21.1346 12.4622 20.968C12.2089 20.798 11.8256 20.713 11.3122 20.713C10.7989 20.713 10.4172 20.798 10.1672 20.968C9.91722 21.1346 9.79222 21.3963 9.79222 21.753C9.79222 22.1196 9.91722 22.388 10.1672 22.558C10.4172 22.728 10.7989 22.813 11.3122 22.813C11.8256 22.813 12.2089 22.728 12.4622 22.558C12.7122 22.388 12.8372 22.1196 12.8372 21.753ZM8.10222 12.213C8.18222 12.263 8.24222 12.3163 8.28222 12.373C8.32222 12.4263 8.34222 12.4963 8.34222 12.583C8.34222 12.6596 8.31889 12.743 8.27222 12.833C8.22222 12.9196 8.16722 13.0196 8.10722 13.133C8.04722 13.243 7.99389 13.3696 7.94722 13.513C7.89722 13.6563 7.87222 13.8196 7.87222 14.003C7.87222 14.3196 7.94055 14.5563 8.07722 14.713C8.21055 14.8663 8.39222 14.943 8.62222 14.943C8.76889 14.943 8.89055 14.8963 8.98722 14.803C9.08389 14.7096 9.16722 14.588 9.23722 14.438C9.30722 14.2846 9.37222 14.1113 9.43222 13.918C9.48889 13.7213 9.55389 13.5213 9.62722 13.318C9.69722 13.1146 9.78055 12.9163 9.87722 12.723C9.97389 12.5263 10.0972 12.353 10.2472 12.203C10.3972 12.0496 10.5806 11.9263 10.7972 11.833C11.0106 11.7396 11.2689 11.693 11.5722 11.693C11.9089 11.693 12.2239 11.7513 12.5172 11.868C12.8106 11.9846 13.0672 12.1546 13.2872 12.378C13.5039 12.598 13.6756 12.8713 13.8022 13.198C13.9256 13.5213 13.9872 13.8896 13.9872 14.303C13.9872 14.5296 13.9639 14.7613 13.9172 14.998C13.8706 15.2313 13.8056 15.458 13.7222 15.678C13.6356 15.898 13.5339 16.1046 13.4172 16.298C13.3006 16.4913 13.1706 16.6596 13.0272 16.803L12.2372 16.303C12.1806 16.263 12.1339 16.2113 12.0972 16.148C12.0572 16.0813 12.0372 16.0096 12.0372 15.933C12.0372 15.833 12.0689 15.733 12.1322 15.633C12.1956 15.5296 12.2656 15.4146 12.3422 15.288C12.4189 15.158 12.4889 15.0096 12.5522 14.843C12.6156 14.6763 12.6472 14.4796 12.6472 14.253C12.6472 13.9463 12.5806 13.708 12.4472 13.538C12.3106 13.368 12.0956 13.283 11.8022 13.283C11.6322 13.283 11.4939 13.3296 11.3872 13.423C11.2806 13.5163 11.1922 13.6396 11.1222 13.793C11.0522 13.943 10.9906 14.1146 10.9372 14.308C10.8839 14.5013 10.8256 14.6996 10.7622 14.903C10.6956 15.1063 10.6156 15.3046 10.5222 15.498C10.4256 15.6913 10.3006 15.8646 10.1472 16.018C9.99055 16.168 9.79722 16.2896 9.56722 16.383C9.33389 16.4763 9.04722 16.523 8.70722 16.523C8.43389 16.523 8.16722 16.468 7.90722 16.358C7.64722 16.248 7.41555 16.0863 7.21222 15.873C7.00889 15.6596 6.84722 15.398 6.72722 15.088C6.60389 14.778 6.54222 14.423 6.54222 14.023C6.54222 13.7996 6.56055 13.583 6.59722 13.373C6.63055 13.1596 6.68222 12.958 6.75222 12.768C6.81889 12.578 6.90055 12.4013 6.99722 12.238C7.09055 12.0713 7.19722 11.923 7.31722 11.793L8.10222 12.213ZM13.1222 11.2909C13.0022 11.2909 12.8906 11.2692 12.7872 11.2259C12.6839 11.1792 12.5939 11.1175 12.5172 11.0409C12.4406 10.9609 12.3806 10.8675 12.3372 10.7609C12.2906 10.6542 12.2672 10.5375 12.2672 10.4109C12.2672 10.2875 12.2906 10.1725 12.3372 10.0659C12.3806 9.9592 12.4406 9.86587 12.5172 9.78586C12.5939 9.70587 12.6839 9.6442 12.7872 9.60086C12.8906 9.5542 13.0022 9.53086 13.1222 9.53086C13.2422 9.53086 13.3556 9.5542 13.4622 9.60086C13.5656 9.6442 13.6556 9.70586 13.7322 9.78586C13.8089 9.86586 13.8689 9.9592 13.9122 10.0659C13.9556 10.1725 13.9772 10.2875 13.9772 10.4109C13.9772 10.5375 13.9556 10.6542 13.9122 10.7609C13.8689 10.8675 13.8089 10.9609 13.7322 11.0409C13.6556 11.1175 13.5656 11.1792 13.4622 11.2259C13.3556 11.2692 13.2422 11.2909 13.1222 11.2909ZM11.1222 4.85828L9.12722 5.53328C9.00055 5.58328 8.85222 5.63662 8.68222 5.69328C8.50889 5.74995 8.32222 5.80662 8.12222 5.86328C8.32555 5.91328 8.51389 5.96662 8.68722 6.02328C8.86055 6.07995 9.01055 6.13328 9.13722 6.18328L11.1222 6.85328L11.1222 4.85828ZM13.9072 2.17328L13.9072 3.48328C13.9072 3.62995 13.8739 3.74828 13.8072 3.83828C13.7372 3.92828 13.6489 3.99662 13.5422 4.04328L12.2722 4.47328L12.2722 7.24328L13.5422 7.67328C13.6356 7.70995 13.7206 7.77662 13.7972 7.87328C13.8706 7.96662 13.9072 8.08328 13.9072 8.22328L13.9072 9.54328L6.62222 6.72328L6.62222 4.99328L13.9072 2.17328ZM13.1222 2.18891C13.0022 2.18891 12.8906 2.16724 12.7872 2.12391C12.6839 2.07724 12.5939 2.01557 12.5172 1.93891C12.4406 1.85891 12.3806 1.76557 12.3372 1.65891C12.2906 1.55224 12.2672 1.43557 12.2672 1.30891C12.2672 1.18557 12.2906 1.07057 12.3372 0.963906C12.3806 0.857239 12.4406 0.763906 12.5172 0.683906C12.5939 0.603906 12.6839 0.542239 12.7872 0.498906C12.8906 0.452239 13.0022 0.428906 13.1222 0.428906C13.2422 0.428906 13.3556 0.452239 13.4622 0.498906C13.5656 0.542239 13.6556 0.603906 13.7322 0.683906C13.8089 0.763906 13.8689 0.857239 13.9122 0.963906C13.9556 1.07057 13.9772 1.18557 13.9772 1.30891C13.9772 1.43557 13.9556 1.55224 13.9122 1.65891C13.8689 1.76557 13.8089 1.85891 13.7322 1.93891C13.6556 2.01557 13.5656 2.07724 13.4622 2.12391C13.3556 2.16724 13.2422 2.18891 13.1222 2.18891Z" fill="white"/>
<path d="M5.69683 339.615C6.53553 339.615 6.86038 338.977 6.86038 338.234C6.86038 337.752 6.722 337.017 6.07484 337.017C5.38886 337.017 5.28508 337.959 5.0387 338.871C4.79654 339.805 4.4295 340.734 3.26089 340.734C1.97415 340.734 1.354 339.522 1.354 338.403C1.354 337.107 1.92945 335.907 3.37903 335.907V337.238C2.62471 337.267 2.43147 337.799 2.43147 338.462C2.43147 338.902 2.61458 339.407 3.13856 339.407C3.633 339.407 3.68615 339.108 4.09369 337.545C4.20591 337.084 4.49531 335.687 5.92212 335.687C7.06457 335.687 7.93113 336.594 7.93113 338.292C7.93113 339.665 7.24345 340.957 5.69683 340.94V339.615Z" fill="white"/>
<path d="M5.40814 329.584C7.10073 329.584 7.93098 330.581 7.93098 332.249C7.93098 333.916 7.11338 334.905 5.40814 334.905H1.50488V333.532H5.40814C6.0899 333.532 6.77166 333.355 6.77166 332.249C6.77166 331.269 6.3405 330.957 5.40814 330.957H1.50488V329.584H5.40814Z" fill="white"/>
<path d="M1.50054 328.413V325.6C1.47929 325.325 1.5155 325.048 1.60691 324.787C1.69832 324.526 1.84297 324.287 2.03175 324.084C2.22054 323.882 2.44941 323.72 2.704 323.61C2.95859 323.499 3.2334 323.442 3.51122 323.442C3.78904 323.442 4.06386 323.499 4.31845 323.61C4.57304 323.72 4.80191 323.882 4.99069 324.084C5.17948 324.287 5.32412 324.526 5.41553 324.787C5.50695 325.048 5.54315 325.325 5.52191 325.6V327.049H7.76884V328.413L1.50054 328.413ZM4.45371 327.048V325.975C4.45371 325.342 4.31364 324.768 3.51459 324.768C2.71555 324.768 2.56958 325.342 2.56958 325.975V327.048H4.45371Z" fill="white"/>
<path d="M1.50488 322.601V317.934H2.67095V321.211H4.01508V318.2H5.08076V321.211H6.61387V317.855H7.77319V322.598L1.50488 322.601Z" fill="white"/>
<path d="M1.50316 316.937V313.581C1.48776 313.345 1.52126 313.109 1.60157 312.887C1.68189 312.665 1.80729 312.462 1.97 312.29C2.13271 312.118 2.32925 311.981 2.54738 311.888C2.7655 311.795 3.00056 311.748 3.23793 311.749C3.57192 311.725 3.90492 311.807 4.18812 311.985C4.47132 312.163 4.6898 312.426 4.81154 312.736H4.82841C4.99716 312.065 5.6629 311.875 6.29572 311.833C6.8021 311.858 7.30751 311.766 7.77146 311.562V312.943C7.28415 313.069 6.78403 313.142 6.28053 313.157C5.60552 313.255 5.33552 313.516 5.33552 314.197V315.573H7.77146V316.942L1.50316 316.937ZM4.34916 315.568V314.069C4.34916 313.448 4.0859 313.124 3.45055 313.124C2.85401 313.124 2.58232 313.448 2.58232 314.069V315.568H4.34916Z" fill="white"/>
<path d="M7.77405 309.268H1.50488V310.635H7.77405V309.268Z" fill="white"/>
<path d="M1.50488 308.061V306.693L5.71188 304.104V304.079H1.50488V302.799H7.77826V304.159L3.57546 306.76V306.777H7.77826V308.06L1.50488 308.061Z" fill="white"/>
<path d="M2.66558 300.217V302.088H1.49951V296.982H2.66558V298.841H7.76866V300.217H2.66558Z" fill="white"/>
<path d="M1.50488 296.257V291.591H2.67095V294.906H4.01508V291.878H5.08076V294.906H6.61387V291.531H7.77319V296.257H1.50488Z" fill="white"/>
<path d="M1.50488 290.599V289.239L5.71188 286.638V286.621H1.50488V285.329H7.77826V286.706L3.57546 289.307V289.328H7.77826V290.599H1.50488Z" fill="white"/>
<path d="M1.50488 284.14V281.45C1.50488 279.837 2.52414 278.62 4.6133 278.62C6.42908 278.62 7.77319 279.554 7.77319 281.45V284.14H1.50488ZM6.61387 282.763V281.543C6.61387 280.749 6.13629 279.985 4.74071 279.985C3.48181 279.985 2.6701 280.428 2.6701 281.788V282.759L6.61387 282.763Z" fill="white"/>
<path d="M1.50488 277.679V273.008H2.67095V276.306H4.01508V273.278H5.08076V276.306H6.61387V272.944H7.77319V277.679H1.50488Z" fill="white"/>
<path d="M1.50488 272.005V270.663L5.71188 268.048V268.036H1.50488V266.756H7.77826V268.116L3.57546 270.717V270.734H7.77826V272.009L1.50488 272.005Z" fill="white"/>
<path d="M3.60875 261.395C3.29578 261.457 3.01485 261.626 2.81576 261.874C2.61667 262.122 2.51228 262.432 2.52113 262.749C2.52113 263.991 3.56571 264.452 4.67442 264.452C5.70887 264.452 6.76444 263.991 6.76444 262.749C6.7647 262.378 6.61777 262.021 6.35548 261.756C6.0932 261.491 5.73663 261.34 5.36294 261.335V260.018C5.71242 260.028 6.05642 260.106 6.37503 260.25C6.69364 260.393 6.98054 260.597 7.2191 260.851C7.45766 261.106 7.64316 261.404 7.76484 261.73C7.88652 262.056 7.94197 262.403 7.92799 262.75C7.88527 263.588 7.52036 264.378 6.90871 264.956C6.29707 265.534 5.48542 265.856 4.64151 265.856C3.79761 265.856 2.98596 265.534 2.37431 264.956C1.76266 264.378 1.39778 263.588 1.35506 262.75C1.31031 262.1 1.51964 261.458 1.93937 260.958C2.3591 260.458 2.95685 260.138 3.60792 260.065L3.60875 261.395Z" fill="white"/>
<path d="M7.77405 257.713H1.50488V259.089H7.77405V257.713Z" fill="white"/>
<path d="M1.50488 254.801V253.399L7.77404 251.069V252.5L6.38773 252.965V255.296L7.77404 255.786V257.176L1.50488 254.801ZM5.35919 254.949V253.327L3.05488 254.108V254.121L5.35919 254.949Z" fill="white"/>
<path d="M1.50488 248.106V243.719H2.67095V246.734H4.11463V244.116H5.18875V246.734H7.77319V248.106H1.50488Z" fill="white"/>
<path d="M7.77405 241.555H1.50488V242.931H7.77405V241.555Z" fill="white"/>
<path d="M1.50488 240.343V238.991L5.71188 236.385V236.364H1.50488V235.077H7.77826V236.449L3.57546 239.05V239.062H7.77826V240.342L1.50488 240.343Z" fill="white"/>
<path d="M1.50488 232.185V230.779L7.77404 228.443V229.858L6.38773 230.348V232.666L7.77404 233.16V234.55L1.50488 232.185ZM5.35919 232.311V230.694L3.05488 231.483V231.496L5.35919 232.311Z" fill="white"/>
<path d="M1.50488 227.915V226.546L5.71188 223.946V223.916H1.50488V222.641H7.77826V224.009L3.57546 226.602V226.627H7.77826V227.91L1.50488 227.915Z" fill="white"/>
<path d="M3.60822 217.291C3.2939 217.352 3.01177 217.522 2.81255 217.772C2.61334 218.021 2.51011 218.333 2.52145 218.651C2.52145 219.88 3.56603 220.34 4.67474 220.34C5.70919 220.34 6.76473 219.88 6.76473 218.651C6.7673 218.466 6.73298 218.283 6.66372 218.111C6.59446 217.94 6.49166 217.784 6.36129 217.652C6.23091 217.521 6.07556 217.416 5.90423 217.345C5.73291 217.273 5.54903 217.237 5.36326 217.236V215.902C5.71401 215.913 6.05912 215.993 6.37857 216.137C6.69801 216.282 6.9854 216.488 7.22406 216.744C7.46271 216.999 7.64787 217.3 7.76876 217.627C7.88966 217.955 7.9439 218.303 7.92831 218.652C7.88559 219.49 7.52068 220.279 6.90904 220.858C6.29739 221.436 5.48574 221.758 4.64183 221.758C3.79793 221.758 2.98628 221.436 2.37463 220.858C1.76298 220.279 1.3981 219.49 1.35538 218.652C1.3094 218 1.51802 217.357 1.93774 216.855C2.35745 216.353 2.95587 216.031 3.60822 215.957V217.291Z" fill="white"/>
<path d="M7.77405 213.603H1.50488V214.979H7.77405V213.603Z" fill="white"/>
<path d="M1.50488 212.389V207.733H2.67095V211.035H4.01508V208.003H5.08076V211.035H6.61387V207.666H7.77319V212.389H1.50488Z" fill="white"/>
<path d="M1.5032 206.737V203.381C1.48771 203.145 1.52111 202.909 1.60133 202.686C1.68155 202.464 1.80687 202.26 1.96953 202.088C2.13218 201.916 2.32871 201.778 2.54691 201.685C2.76511 201.591 3.00033 201.543 3.23798 201.544C3.57319 201.519 3.90732 201.603 4.19079 201.783C4.47426 201.962 4.69197 202.228 4.81159 202.54H4.82845C4.99721 201.877 5.66295 201.679 6.29577 201.628C6.80195 201.658 7.30785 201.566 7.7715 201.362V202.735C7.28665 202.874 6.7852 202.948 6.28058 202.955C5.60557 203.056 5.33557 203.314 5.33557 204.002V205.374H7.7715V206.733L1.5032 206.737ZM4.3492 205.378V203.867C4.3492 203.259 4.08595 202.938 3.45059 202.938C2.85405 202.938 2.58237 203.259 2.58237 203.867V205.378H4.3492Z" fill="white"/>
<path d="M1.50488 198.734V197.331L7.77404 195V196.419L6.38773 196.9V199.232L7.77404 199.717V201.103L1.50488 198.734ZM5.35919 198.869V197.259L3.05488 198.045V198.057L5.35919 198.869Z" fill="white"/>
<path d="M12.0439 298.69V296.005C12.0439 294.392 13.0565 293.185 15.138 293.185C16.9648 293.185 18.3089 294.107 18.3089 296.005V298.69H12.0439ZM17.1512 297.33V296.109C17.1512 295.311 16.6686 294.555 15.2671 294.555C14.0082 294.555 13.199 294.995 13.199 296.354V297.334L17.1512 297.33Z" fill="white"/>
<path d="M12.0439 292.231V287.564H13.199V290.858H14.5415V287.838H15.6139V290.858H17.1513V287.493H18.308V292.227L12.0439 292.231Z" fill="white"/>
<path d="M14.1527 279.986C13.8356 280.049 13.5511 280.221 13.3493 280.472C13.1475 280.724 13.0414 281.038 13.0498 281.359C13.0498 282.588 14.1012 283.043 15.2031 283.043C16.2562 283.043 17.3075 282.587 17.3075 281.359C17.3087 281.173 17.273 280.989 17.2026 280.817C17.1321 280.646 17.0282 280.489 16.8968 280.357C16.7654 280.226 16.6091 280.121 16.4369 280.049C16.2647 279.978 16.08 279.941 15.8933 279.94V278.605C16.2442 278.617 16.5894 278.697 16.9088 278.842C17.2282 278.987 17.5155 279.193 17.7541 279.45C17.9927 279.706 18.1778 280.006 18.2987 280.334C18.4196 280.662 18.4739 281.01 18.4584 281.359C18.4065 282.19 18.0378 282.97 17.4276 283.54C16.8174 284.111 16.0115 284.428 15.174 284.428C14.3366 284.428 13.5307 284.111 12.9204 283.54C12.3102 282.97 11.9416 282.19 11.8897 281.359C11.8432 280.706 12.0527 280.06 12.4744 279.557C12.8961 279.054 13.4972 278.732 14.1518 278.66L14.1527 279.986Z" fill="white"/>
<path d="M11.8907 274.892C11.8466 274.238 12.0009 273.586 12.3337 273.021C12.6665 272.455 13.1623 272.002 13.7571 271.72C14.3519 271.438 15.0181 271.34 15.6696 271.438C16.321 271.537 16.9277 271.828 17.411 272.273C17.8943 272.719 18.2319 273.298 18.3802 273.936C18.5286 274.575 18.4806 275.243 18.2428 275.854C18.0049 276.465 17.5881 276.991 17.0462 277.364C16.5042 277.736 15.8622 277.939 15.2033 277.945C14.7793 277.982 14.352 277.931 13.9492 277.794C13.5464 277.657 13.1769 277.438 12.8647 277.15C12.5525 276.862 12.3045 276.513 12.1367 276.124C11.9689 275.735 11.8851 275.315 11.8907 274.892ZM17.3076 274.892C17.3076 273.654 16.2479 273.194 15.2033 273.194C14.1013 273.194 13.0458 273.654 13.0458 274.892C13.0458 276.129 14.1013 276.577 15.2033 276.577C16.2479 276.577 17.3076 276.121 17.3076 274.892Z" fill="white"/>
<path d="M12.0439 270.886V269.522H17.1513V266.485H18.308V270.886H12.0439Z" fill="white"/>
<path d="M11.8892 262.915C11.8892 260.986 13.3379 259.866 15.2018 259.866C15.6198 259.845 16.0379 259.908 16.4306 260.052C16.8233 260.196 17.1824 260.418 17.486 260.704C17.7896 260.991 18.0314 261.336 18.1966 261.718C18.3618 262.101 18.447 262.512 18.447 262.929C18.447 263.345 18.3618 263.757 18.1966 264.139C18.0314 264.521 17.7896 264.866 17.486 265.153C17.1824 265.439 16.8233 265.661 16.4306 265.805C16.0379 265.95 15.6198 266.013 15.2018 265.991C14.7761 266.028 14.3473 265.976 13.9432 265.838C13.5391 265.699 13.1688 265.478 12.8564 265.188C12.544 264.898 12.2964 264.546 12.1298 264.155C11.9631 263.764 11.8812 263.342 11.8892 262.917V262.915ZM17.3062 262.917C17.3062 261.692 16.2464 261.231 15.2018 261.231C14.0999 261.231 13.0443 261.692 13.0443 262.917C13.0443 264.142 14.0999 264.618 15.2018 264.618C16.2464 264.618 17.3062 264.145 17.3062 262.917Z" fill="white"/>
<path d="M12.0439 258.93V256.992L16.3547 255.535V255.514L12.0439 254.142V252.212H18.308V253.496H13.8614V253.516L18.308 255.041V256.106L13.9061 257.63V257.647H18.308V258.93H12.0439Z" fill="white"/>
<path d="M12.0439 251.002V248.066C12.0439 246.891 12.4177 246.072 13.5939 246.072C13.8744 246.065 14.1505 246.143 14.3843 246.297C14.6181 246.452 14.7982 246.674 14.9001 246.934C14.9863 246.585 15.1935 246.278 15.4853 246.066C15.777 245.855 16.1345 245.752 16.4948 245.777C17.7604 245.777 18.308 246.858 18.308 247.986V251.001L12.0439 251.002ZM14.5752 249.63V248.249C14.5752 247.767 14.3584 247.395 13.8276 247.395C13.237 247.395 13.1096 247.856 13.1096 248.346V249.63H14.5752ZM17.2449 249.63V248.172C17.2449 247.632 17.0669 247.155 16.4121 247.155C15.7751 247.155 15.5143 247.551 15.5143 248.147V249.63H17.2449Z" fill="white"/>
<path d="M18.308 243.494H12.0439V244.866H18.308V243.494Z" fill="white"/>
<path d="M12.0342 240.584V239.186L18.3067 236.85V238.265L16.9094 238.738V241.073L18.3067 241.558V242.956L12.0342 240.584ZM15.8817 240.714V239.101L13.5859 239.878V239.903L15.8817 240.714Z" fill="white"/>
<path d="M14.8036 432.807V435.038L5.73584 437.974V435.93L12.111 433.92V433.892L5.73584 431.858V429.82L14.8036 432.807Z" fill="white"/>
<path d="M14.7877 424.309H5.72461V426.291H14.7877V424.309Z" fill="white"/>
<path d="M13.77 413.267C14.1581 413.552 14.4731 413.924 14.6894 414.352C14.9056 414.781 15.017 415.254 15.0145 415.733C15.0145 418.533 12.9216 420.177 10.2976 420.177C7.61631 420.177 5.5169 418.533 5.5169 415.733C5.47017 414.816 5.77408 413.915 6.36764 413.211C6.9612 412.507 7.80051 412.053 8.71718 411.938V413.835C8.27493 413.915 7.87658 414.151 7.59598 414.5C7.31538 414.849 7.17155 415.287 7.19117 415.733C7.19117 417.523 8.71717 418.181 10.2976 418.181C11.8208 418.181 13.3374 417.528 13.3374 415.733C13.365 415.462 13.3349 415.188 13.2493 414.929C13.1636 414.669 13.0242 414.431 12.84 414.229C12.6559 414.026 12.4311 413.865 12.1802 413.754C11.9293 413.644 11.6579 413.587 11.3835 413.587V415.58H9.89594V411.798H14.7949V413.06L13.77 413.267Z" fill="white"/>
<path d="M14.7877 405.445H5.72461V407.44H14.7877V405.445Z" fill="white"/>
<path d="M5.73584 400.945V398.954H13.1265V394.568H14.7989V400.946L5.73584 400.945Z" fill="white"/>
<path d="M5.72461 388.217V386.193L14.7989 382.82V384.883L12.7746 385.554V388.922L14.7989 389.627V391.632L5.72461 388.217ZM11.2899 388.409V386.07L7.97419 387.211V387.225L11.2899 388.409Z" fill="white"/>
<path d="M5.73584 379.265V375.371C5.73584 373.051 7.2074 371.285 10.2256 371.285C12.8478 371.285 14.8026 372.619 14.8026 375.371V379.265H5.73584ZM13.1265 377.288V375.526C13.1265 374.366 12.416 373.276 10.4123 373.276C8.58415 373.276 7.41762 373.901 7.41762 375.874V377.288H13.1265Z" fill="white"/>
<path d="M5.52344 363.104C5.52344 360.318 7.61348 358.679 10.3098 358.679C12.9272 358.679 15.022 360.317 15.022 363.104C15.0355 363.712 14.921 364.317 14.6858 364.879C14.4507 365.441 14.1 365.947 13.6564 366.367C13.2127 366.786 12.6858 367.108 12.1095 367.313C11.5332 367.518 10.9202 367.601 10.3098 367.557C7.61442 367.557 5.52344 365.903 5.52344 363.104ZM13.3439 363.104C13.3439 361.323 11.8226 360.651 10.3088 360.651C8.72184 360.651 7.19771 361.323 7.19771 363.104C7.19771 364.884 8.7209 365.555 10.3088 365.555C11.8226 365.555 13.3439 364.883 13.3439 363.104Z" fill="white"/>
<path d="M2.72821 356.94H0V439.471H2.72821V356.94Z" fill="white"/>
<path d="M19.8141 356.94H17.084V439.471H19.8141V356.94Z" fill="white"/>
</svg>
