<svg width="21" height="20" viewBox="0 0 21 20" fill="none" xmlns="http://www.w3.org/2000/svg">
<path d="M8.67822 12.1916C10.1788 11.4135 11.6663 10.6426 13.1674 9.86407C11.6618 9.07839 10.1747 8.30294 8.67822 7.52197C8.67822 9.08392 8.67822 10.6299 8.67822 12.1916Z" fill="#999999"/>
<path d="M10.5005 0C4.97783 0 0.500488 4.47714 0.500488 10C0.500488 15.5229 4.97783 20 10.5005 20C16.0231 20 20.5005 15.5229 20.5005 10C20.5005 4.47714 16.0231 0 10.5005 0ZM17.314 13.3379C17.1409 14.0888 16.5267 14.6427 15.7874 14.7251C14.0367 14.9209 12.2648 14.9219 10.5001 14.9209C8.73537 14.9219 6.9631 14.9209 5.21189 14.7251C4.47266 14.6427 3.85885 14.0888 3.68617 13.3379C3.44003 12.2682 3.44003 11.101 3.44003 10C3.44003 8.89903 3.44289 7.73136 3.68903 6.6621C3.86172 5.9112 4.47553 5.35714 5.21476 5.27448C6.96596 5.07887 8.73824 5.07785 10.5029 5.07887C12.2672 5.07785 14.0395 5.07887 15.7901 5.27448C16.5297 5.35714 17.144 5.911 17.3167 6.6621C17.5628 7.73156 17.5607 8.89903 17.5607 10C17.5607 11.101 17.5601 12.2684 17.314 13.3379Z" fill="#999999"/>
</svg>
