<svg id="pse-seeklogo.com" xmlns="http://www.w3.org/2000/svg" xmlns:xlink="http://www.w3.org/1999/xlink" width="24" height="24" viewBox="0 0 24 24">
  <defs>
    <radialGradient id="radial-gradient" cx="0.509" cy="0.498" fx="0.23958800733089447" fy="0.4784333407878876" r="0.5" gradientTransform="translate(0)" gradientUnits="objectBoundingBox">
      <stop offset="0.315" stop-color="#2d5ca8"/>
      <stop offset="0.531" stop-color="#285496"/>
      <stop offset="0.729" stop-color="#1f4272"/>
      <stop offset="1" stop-color="#0d2d4d"/>
    </radialGradient>
  </defs>
  <circle id="Circle_1_" cx="12" cy="12" r="12" transform="translate(0 0)" fill="url(#radial-gradient)"/>
  <g id="PSE_1_" transform="translate(2.449 8.43)">
    <path id="Trazado_48735" data-name="Trazado 48735" d="M87.072,71H83.836a.214.214,0,0,0-.043,0,1.859,1.859,0,0,0-1.48,1.788,1.407,1.407,0,0,0,1.092,1.44h2.307c.1,0,.732.144.69,1.243s-.987,1.252-1.123,1.4H81.7a.221.221,0,0,0,0,.44H85.3c.012,0,.023-.054.034-.056a1.852,1.852,0,0,0,1.477-1.791C86.869,73.9,85.742,73.8,85.73,73.8L83.454,73.8a.939.939,0,0,1-.734-1c0-.005,0,.008,0,0a1.377,1.377,0,0,1,1.139-1.359h3.212a.221.221,0,0,0,0-.44Z" transform="translate(-75.505 -70.972)" fill="#fff"/>
    <path id="Trazado_48736" data-name="Trazado 48736" d="M125.789,70.839c-.019-.005-.038.023-.057.023h-2.418c-1.095,0-1.589,1.267-1.609,1.323,0,.009-.006,0-.008.012a26.8,26.8,0,0,0-.595,3.659c.019.828.862,1.129,1.305,1.176.007,0,.015-.006.022-.006h3.362a.221.221,0,0,0,0-.44h-3.349c-.105,0-.912-.123-.926-.764a10.827,10.827,0,0,1,.208-1.667l4.678-.035a.2.2,0,0,0,.2-.169,14.743,14.743,0,0,0,.219-1.965C126.823,71.131,125.831,70.852,125.789,70.839Zm.435,2.872-4.425.037c.136-.721.274-1.312.3-1.418.047-.118.453-1.028,1.217-1.028H125.7c.129,0,.711.228.711.712A12.741,12.741,0,0,1,126.224,73.711Z" transform="translate(-109.294 -70.839)" fill="#fff"/>
    <path id="Trazado_48737" data-name="Trazado 48737" d="M46.836,72.239c.121-.826-.922-1.239-1.117-1.239h0c-.842,0-2.118.029-2.251.024-.018,0-.036.01-.055.013a2.361,2.361,0,0,0-1.457,1.376l0,0a3.2,3.2,0,0,0-.073.337c-.037.194-.088.472-.15.8-.123.665-.285,1.552-.446,2.438-.323,1.773-.643,3.545-.643,3.545a.2.2,0,1,0,.4.072c.136-.749.358-1.976.581-3.2a1.9,1.9,0,0,0,1.211.735h.024l2.068-.059a.192.192,0,0,0,.052-.008,2.066,2.066,0,0,0,1.288-1.349c0-.007,0-.015,0-.022l.561-3.438C46.835,72.265,46.835,72.246,46.836,72.239Zm-.4-.008-.557,3.4a1.686,1.686,0,0,1-.989,1.057l-2.025.058a1.611,1.611,0,0,1-1.135-.909c.3-1.637.572-3.129.607-3.287a2.025,2.025,0,0,1,1.135-1.1c.077,0,.183,0,.329.005h.783l1.09,0C45.912,71.447,46.493,71.852,46.434,72.231Z" transform="translate(-40.644 -70.976)" fill="#fff"/>
  </g>
  <g id="Figures" transform="translate(0 5.457)">
    <ellipse id="Elipse_2273" data-name="Elipse 2273" cx="0.576" cy="0.614" rx="0.576" ry="0.614" transform="translate(2.092 1.904)" fill="#fdb718"/>
    <path id="Trazado_48738" data-name="Trazado 48738" d="M10.047,49.442a.61.61,0,0,0-.391-.579q-.287.52-.53,1.067a.548.548,0,0,0,.346.126A.6.6,0,0,0,10.047,49.442Z" transform="translate(-7.961 -48.863)" fill="#fdb718"/>
    <path id="Trazado_48739" data-name="Trazado 48739" d="M4.7,63.531a.633.633,0,0,0-.164-.428q-.177.507-.316,1.032A.6.6,0,0,0,4.7,63.531Z" transform="translate(-3.773 -61.013)" fill="#fdb718"/>
    <ellipse id="Elipse_2274" data-name="Elipse 2274" cx="0.576" cy="0.614" rx="0.576" ry="0.614" transform="translate(2.172 9.386)" fill="#fdb718"/>
    <path id="Trazado_48740" data-name="Trazado 48740" d="M3.674,114.094a.5.5,0,0,0-.409-.5q.1.455.226.9A.517.517,0,0,0,3.674,114.094Z" transform="translate(-2.96 -104.094)" fill="#fdb718"/>
    <path id="Trazado_48741" data-name="Trazado 48741" d="M9.045,127.081a.6.6,0,0,0-.576-.614.572.572,0,0,0-.515.345q.179.441.387.867a.544.544,0,0,0,.128.016A.6.6,0,0,0,9.045,127.081Z" transform="translate(-6.961 -115.079)" fill="#fdb718"/>
    <path id="Trazado_48742" data-name="Trazado 48742" d="M4.249,79.255H3.094a.715.715,0,0,0-.545-.4.629.629,0,0,0,0,1.253.519.519,0,0,0,.545-.414h1.3l1.211-2.2H7.47V77.2H4.409L3.151,75H1.465c-.03.146-.057.293-.082.44H2.968L4,77.2H1.2c0,.1-.007.2-.009.293H5.25Z" transform="translate(-1.188 -71.163)" fill="#fdb718"/>
  </g>
  <g id="ach_1_" transform="translate(6.484 6.925)">
    <path id="Trazado_48743" data-name="Trazado 48743" d="M53.464,59.231h-.726l-.012,0a.351.351,0,0,1-.179-.516l0-.008.006-.007c.016-.02.162-.192.312-.192h0l.546.018.028-.195a.154.154,0,0,0-.089-.182h-.6V58h.628l.01,0a.3.3,0,0,1,.2.347Zm-.7-.147h.57l.059-.415-.529-.018a.372.372,0,0,0-.192.131.241.241,0,0,0-.02.19A.228.228,0,0,0,52.766,59.085Z" transform="translate(-52.496 -57.562)" fill="#fff"/>
    <path id="Trazado_48744" data-name="Trazado 48744" d="M60.9,59.247H60.31l-.111-.025-.016-.028a1.02,1.02,0,0,1-.034-.758.628.628,0,0,1,.3-.43L60.469,58H61.1v.147h-.6a.488.488,0,0,0-.213.324v.005l0,.005a.923.923,0,0,0,.006.614l.031.007H60.9Z" transform="translate(-58.975 -57.562)" fill="#fff"/>
    <path id="Trazado_48745" data-name="Trazado 48745" d="M67.1,56.655l-.144-.026.29-1.61.144.026Z" transform="translate(-64.836 -55.019)" fill="#fff"/>
    <path id="Trazado_48746" data-name="Trazado 48746" d="M68.946,59.12l-.145-.025.143-.83a.113.113,0,0,0-.047-.1l-.017-.008-.011-.016s-.033-.043-.247-.049a2.166,2.166,0,0,0-.221.006.455.455,0,0,0-.157.169l-.131-.066a.587.587,0,0,1,.235-.24l.012-.006h.013a2.324,2.324,0,0,1,.252-.008.5.5,0,0,1,.351.1.263.263,0,0,1,.113.238v0Z" transform="translate(-65.823 -57.511)" fill="#fff"/>
  </g>
</svg>
